<ttFont>
    <TTGlyph name=".notdef" xMin="68" yMin="0" xMax="612" yMax="1365">
      <contour>
        <pt x="68" y="0" on="1"/>
        <pt x="68" y="1365" on="1"/>
        <pt x="612" y="1365" on="1"/>
        <pt x="612" y="0" on="1"/>
      </contour>
      <contour>
        <pt x="136" y="68" on="1"/>
        <pt x="544" y="68" on="1"/>
        <pt x="544" y="1297" on="1"/>
        <pt x="136" y="1297" on="1"/>
      </contour>
    </TTGlyph>
    <TTGlyph name="A" xMin="108" yMin="0" xMax="1293" yMax="1268">
      <contour>
        <pt x="500" y="534" on="1"/>
        <pt x="893" y="534" on="1"/>
        <pt x="700" y="1085" on="1"/>
      </contour>
      <contour>
        <pt x="108" y="0" on="1"/>
        <pt x="113" y="42" on="1"/>
        <pt x="255" y="72" on="1"/>
        <pt x="693" y="1254" on="1"/>
        <pt x="746" y="1268" on="1"/>
        <pt x="1161" y="66" on="1"/>
        <pt x="1293" y="47" on="1"/>
        <pt x="1285" y="1" on="1"/>
        <pt x="876" y="1" on="1"/>
        <pt x="885" y="43" on="1"/>
        <pt x="1051" y="73" on="1"/>
        <pt x="912" y="478" on="1"/>
        <pt x="480" y="478" on="1"/>
        <pt x="332" y="65" on="1"/>
        <pt x="516" y="46" on="1"/>
        <pt x="507" y="0" on="1"/>
      </contour>
    </TTGlyph>
    <TTGlyph name="AE" xMin="42" yMin="0" xMax="1649" yMax="1244">
      <contour>
        <pt x="553" y="537" on="1"/>
        <pt x="867" y="537" on="1"/>
        <pt x="867" y="1093" on="1"/>
      </contour>
      <contour>
        <pt x="42" y="3" on="1"/>
        <pt x="46" y="43" on="1"/>
        <pt x="189" y="73" on="1"/>
        <pt x="843" y="1180" on="1"/>
        <pt x="610" y="1205" on="1"/>
        <pt x="616" y="1244" on="1"/>
        <pt x="1603" y="1244" on="1"/>
        <pt x="1571" y="925" on="1"/>
        <pt x="1527" y="931" on="1"/>
        <pt x="1506" y="1193" on="1"/>
        <pt x="972" y="1193" on="1"/>
        <pt x="972" y="659" on="1"/>
        <pt x="1314" y="659" on="1"/>
        <pt x="1350" y="798" on="1"/>
        <pt x="1399" y="806" on="1"/>
        <pt x="1366" y="417" on="1"/>
        <pt x="1319" y="408" on="1"/>
        <pt x="1302" y="605" on="1"/>
        <pt x="972" y="605" on="1"/>
        <pt x="972" y="54" on="1"/>
        <pt x="1536" y="54" on="1"/>
        <pt x="1607" y="323" on="1"/>
        <pt x="1649" y="313" on="1"/>
        <pt x="1619" y="0" on="1"/>
        <pt x="665" y="0" on="1"/>
        <pt x="671" y="42" on="1"/>
        <pt x="864" y="72" on="1"/>
        <pt x="864" y="472" on="1"/>
        <pt x="515" y="472" on="1"/>
        <pt x="279" y="66" on="1"/>
        <pt x="463" y="48" on="1"/>
        <pt x="453" y="3" on="1"/>
      </contour>
    </TTGlyph>
    <TTGlyph name="Aacute" xMin="108" yMin="0" xMax="1293" yMax="1713">
      <contour>
        <pt x="681" y="1376" on="1"/>
        <pt x="813" y="1713" on="1"/>
        <pt x="909" y="1674" on="1"/>
        <pt x="726" y="1350" on="1"/>
      </contour>
      <contour>
        <pt x="500" y="534" on="1"/>
        <pt x="893" y="534" on="1"/>
        <pt x="700" y="1085" on="1"/>
      </contour>
      <contour>
        <pt x="108" y="0" on="1"/>
        <pt x="113" y="42" on="1"/>
        <pt x="255" y="72" on="1"/>
        <pt x="693" y="1254" on="1"/>
        <pt x="746" y="1268" on="1"/>
        <pt x="1161" y="66" on="1"/>
        <pt x="1293" y="47" on="1"/>
        <pt x="1285" y="1" on="1"/>
        <pt x="876" y="1" on="1"/>
        <pt x="885" y="43" on="1"/>
        <pt x="1051" y="73" on="1"/>
        <pt x="912" y="478" on="1"/>
        <pt x="480" y="478" on="1"/>
        <pt x="332" y="65" on="1"/>
        <pt x="516" y="46" on="1"/>
        <pt x="507" y="0" on="1"/>
      </contour>
    </TTGlyph>
    <TTGlyph name="Abreve" xMin="108" yMin="0" xMax="1293" yMax="1585">
      <contour>
        <pt x="538" y="1559" on="1"/>
        <pt x="568" y="1583" on="1"/>
        <pt x="634" y="1456" on="0"/>
        <pt x="827" y="1456" on="0"/>
        <pt x="897" y="1585" on="1"/>
        <pt x="920" y="1564" on="1"/>
        <pt x="860" y="1381" on="0"/>
        <pt x="583" y="1381" on="0"/>
      </contour>
      <contour>
        <pt x="500" y="534" on="1"/>
        <pt x="893" y="534" on="1"/>
        <pt x="700" y="1085" on="1"/>
      </contour>
      <contour>
        <pt x="108" y="0" on="1"/>
        <pt x="113" y="42" on="1"/>
        <pt x="255" y="72" on="1"/>
        <pt x="693" y="1254" on="1"/>
        <pt x="746" y="1268" on="1"/>
        <pt x="1161" y="66" on="1"/>
        <pt x="1293" y="47" on="1"/>
        <pt x="1285" y="1" on="1"/>
        <pt x="876" y="1" on="1"/>
        <pt x="885" y="43" on="1"/>
        <pt x="1051" y="73" on="1"/>
        <pt x="912" y="478" on="1"/>
        <pt x="480" y="478" on="1"/>
        <pt x="332" y="65" on="1"/>
        <pt x="516" y="46" on="1"/>
        <pt x="507" y="0" on="1"/>
      </contour>
    </TTGlyph>
    <TTGlyph name="Acircumflex" xMin="108" yMin="0" xMax="1293" yMax="1588">
      <contour>
        <pt x="525" y="1394" on="1"/>
        <pt x="692" y="1575" on="1"/>
        <pt x="746" y="1588" on="1"/>
        <pt x="925" y="1402" on="1"/>
        <pt x="893" y="1365" on="1"/>
        <pt x="712" y="1500" on="1"/>
        <pt x="703" y="1500" on="1"/>
        <pt x="546" y="1364" on="1"/>
      </contour>
      <contour>
        <pt x="500" y="534" on="1"/>
        <pt x="893" y="534" on="1"/>
        <pt x="700" y="1085" on="1"/>
      </contour>
      <contour>
        <pt x="108" y="0" on="1"/>
        <pt x="113" y="42" on="1"/>
        <pt x="255" y="72" on="1"/>
        <pt x="693" y="1254" on="1"/>
        <pt x="746" y="1268" on="1"/>
        <pt x="1161" y="66" on="1"/>
        <pt x="1293" y="47" on="1"/>
        <pt x="1285" y="1" on="1"/>
        <pt x="876" y="1" on="1"/>
        <pt x="885" y="43" on="1"/>
        <pt x="1051" y="73" on="1"/>
        <pt x="912" y="478" on="1"/>
        <pt x="480" y="478" on="1"/>
        <pt x="332" y="65" on="1"/>
        <pt x="516" y="46" on="1"/>
        <pt x="507" y="0" on="1"/>
      </contour>
    </TTGlyph>
    <TTGlyph name="Adieresis" xMin="108" yMin="0" xMax="1293" yMax="1543">
      <contour>
        <pt x="500" y="534" on="1"/>
        <pt x="893" y="534" on="1"/>
        <pt x="700" y="1085" on="1"/>
      </contour>
      <contour>
        <pt x="108" y="0" on="1"/>
        <pt x="113" y="42" on="1"/>
        <pt x="255" y="72" on="1"/>
        <pt x="693" y="1254" on="1"/>
        <pt x="746" y="1268" on="1"/>
        <pt x="1161" y="66" on="1"/>
        <pt x="1293" y="47" on="1"/>
        <pt x="1285" y="1" on="1"/>
        <pt x="876" y="1" on="1"/>
        <pt x="885" y="43" on="1"/>
        <pt x="1051" y="73" on="1"/>
        <pt x="912" y="478" on="1"/>
        <pt x="480" y="478" on="1"/>
        <pt x="332" y="65" on="1"/>
        <pt x="516" y="46" on="1"/>
        <pt x="507" y="0" on="1"/>
      </contour>
      <contour>
        <pt x="789" y="1384" on="0"/>
        <pt x="789" y="1543" on="0"/>
        <pt x="901" y="1543" on="0"/>
        <pt x="901" y="1384" on="0"/>
      </contour>
      <contour>
        <pt x="577" y="1384" on="1"/>
        <pt x="520" y="1384" on="0"/>
        <pt x="520" y="1543" on="0"/>
        <pt x="633" y="1543" on="0"/>
        <pt x="633" y="1465" on="1"/>
        <pt x="633" y="1424" on="0"/>
        <pt x="608" y="1384" on="0"/>
      </contour>
    </TTGlyph>
    <TTGlyph name="Agrave" xMin="108" yMin="0" xMax="1293" yMax="1704">
      <contour>
        <pt x="539" y="1667" on="1"/>
        <pt x="633" y="1704" on="1"/>
        <pt x="766" y="1368" on="1"/>
        <pt x="720" y="1341" on="1"/>
      </contour>
      <contour>
        <pt x="500" y="534" on="1"/>
        <pt x="893" y="534" on="1"/>
        <pt x="700" y="1085" on="1"/>
      </contour>
      <contour>
        <pt x="108" y="0" on="1"/>
        <pt x="113" y="42" on="1"/>
        <pt x="255" y="72" on="1"/>
        <pt x="693" y="1254" on="1"/>
        <pt x="746" y="1268" on="1"/>
        <pt x="1161" y="66" on="1"/>
        <pt x="1293" y="47" on="1"/>
        <pt x="1285" y="1" on="1"/>
        <pt x="876" y="1" on="1"/>
        <pt x="885" y="43" on="1"/>
        <pt x="1051" y="73" on="1"/>
        <pt x="912" y="478" on="1"/>
        <pt x="480" y="478" on="1"/>
        <pt x="332" y="65" on="1"/>
        <pt x="516" y="46" on="1"/>
        <pt x="507" y="0" on="1"/>
      </contour>
    </TTGlyph>
    <TTGlyph name="Amacron" xMin="108" yMin="0" xMax="1293" yMax="1438">
      <contour>
        <pt x="487" y="1386" on="1"/>
        <pt x="496" y="1438" on="1"/>
        <pt x="936" y="1438" on="1"/>
        <pt x="928" y="1386" on="1"/>
      </contour>
      <contour>
        <pt x="500" y="534" on="1"/>
        <pt x="893" y="534" on="1"/>
        <pt x="700" y="1085" on="1"/>
      </contour>
      <contour>
        <pt x="108" y="0" on="1"/>
        <pt x="113" y="42" on="1"/>
        <pt x="255" y="72" on="1"/>
        <pt x="693" y="1254" on="1"/>
        <pt x="746" y="1268" on="1"/>
        <pt x="1161" y="66" on="1"/>
        <pt x="1293" y="47" on="1"/>
        <pt x="1285" y="1" on="1"/>
        <pt x="876" y="1" on="1"/>
        <pt x="885" y="43" on="1"/>
        <pt x="1051" y="73" on="1"/>
        <pt x="912" y="478" on="1"/>
        <pt x="480" y="478" on="1"/>
        <pt x="332" y="65" on="1"/>
        <pt x="516" y="46" on="1"/>
        <pt x="507" y="0" on="1"/>
      </contour>
    </TTGlyph>
    <TTGlyph name="Aogonek" xMin="108" yMin="-387" xMax="1341" yMax="1268">
      <contour>
        <pt x="500" y="534" on="1"/>
        <pt x="893" y="534" on="1"/>
        <pt x="700" y="1085" on="1"/>
      </contour>
      <contour>
        <pt x="108" y="0" on="1"/>
        <pt x="113" y="42" on="1"/>
        <pt x="255" y="72" on="1"/>
        <pt x="693" y="1254" on="1"/>
        <pt x="746" y="1268" on="1"/>
        <pt x="1161" y="66" on="1"/>
        <pt x="1293" y="47" on="1"/>
        <pt x="1285" y="1" on="1"/>
        <pt x="1278" y="1" on="1"/>
        <pt x="1200" y="-94" on="0"/>
        <pt x="1200" y="-225" on="0"/>
        <pt x="1269" y="-311" on="0"/>
        <pt x="1341" y="-353" on="1"/>
        <pt x="1308" y="-387" on="1"/>
        <pt x="1206" y="-376" on="0"/>
        <pt x="1102" y="-277" on="0"/>
        <pt x="1102" y="-164" on="0"/>
        <pt x="1155" y="-68" on="0"/>
        <pt x="1228" y="1" on="1"/>
        <pt x="876" y="1" on="1"/>
        <pt x="885" y="43" on="1"/>
        <pt x="1051" y="73" on="1"/>
        <pt x="912" y="478" on="1"/>
        <pt x="480" y="478" on="1"/>
        <pt x="332" y="65" on="1"/>
        <pt x="516" y="46" on="1"/>
        <pt x="507" y="0" on="1"/>
      </contour>
    </TTGlyph>
    <TTGlyph name="Aring" xMin="108" yMin="0" xMax="1293" yMax="1706">
      <contour>
        <pt x="664" y="1666" on="0"/>
        <pt x="618" y="1596" on="0"/>
        <pt x="618" y="1493" on="0"/>
        <pt x="671" y="1410" on="0"/>
        <pt x="763" y="1410" on="0"/>
        <pt x="813" y="1472" on="0"/>
        <pt x="813" y="1582" on="0"/>
        <pt x="756" y="1666" on="0"/>
      </contour>
      <contour>
        <pt x="639" y="1369" on="0"/>
        <pt x="553" y="1459" on="0"/>
        <pt x="553" y="1605" on="0"/>
        <pt x="651" y="1706" on="0"/>
        <pt x="793" y="1706" on="0"/>
        <pt x="879" y="1615" on="0"/>
        <pt x="879" y="1473" on="0"/>
        <pt x="783" y="1369" on="0"/>
      </contour>
      <contour>
        <pt x="500" y="534" on="1"/>
        <pt x="893" y="534" on="1"/>
        <pt x="700" y="1085" on="1"/>
      </contour>
      <contour>
        <pt x="108" y="0" on="1"/>
        <pt x="113" y="42" on="1"/>
        <pt x="255" y="72" on="1"/>
        <pt x="693" y="1254" on="1"/>
        <pt x="746" y="1268" on="1"/>
        <pt x="1161" y="66" on="1"/>
        <pt x="1293" y="47" on="1"/>
        <pt x="1285" y="1" on="1"/>
        <pt x="876" y="1" on="1"/>
        <pt x="885" y="43" on="1"/>
        <pt x="1051" y="73" on="1"/>
        <pt x="912" y="478" on="1"/>
        <pt x="480" y="478" on="1"/>
        <pt x="332" y="65" on="1"/>
        <pt x="516" y="46" on="1"/>
        <pt x="507" y="0" on="1"/>
      </contour>
    </TTGlyph>
    <TTGlyph name="Atilde" xMin="108" yMin="0" xMax="1293" yMax="1537">
      <contour>
        <pt x="470" y="1389" on="1"/>
        <pt x="470" y="1407" on="0"/>
        <pt x="502" y="1473" on="0"/>
        <pt x="510" y="1483" on="1"/>
        <pt x="566" y="1549" on="0"/>
        <pt x="628" y="1524" on="1"/>
        <pt x="809" y="1470" on="1"/>
        <pt x="841" y="1460" on="0"/>
        <pt x="889" y="1494" on="0"/>
        <pt x="897" y="1516" on="1"/>
        <pt x="905" y="1537" on="1"/>
        <pt x="939" y="1535" on="1"/>
        <pt x="938" y="1533" on="0"/>
        <pt x="929" y="1502" on="0"/>
        <pt x="924" y="1492" on="1"/>
        <pt x="912" y="1467" on="1"/>
        <pt x="901" y="1447" on="0"/>
        <pt x="881" y="1427" on="1"/>
        <pt x="831" y="1379" on="0"/>
        <pt x="773" y="1401" on="1"/>
        <pt x="597" y="1453" on="1"/>
        <pt x="569" y="1462" on="0"/>
        <pt x="519" y="1424" on="0"/>
        <pt x="508" y="1400" on="1"/>
        <pt x="498" y="1377" on="1"/>
      </contour>
      <contour>
        <pt x="500" y="534" on="1"/>
        <pt x="893" y="534" on="1"/>
        <pt x="700" y="1085" on="1"/>
      </contour>
      <contour>
        <pt x="108" y="0" on="1"/>
        <pt x="113" y="42" on="1"/>
        <pt x="255" y="72" on="1"/>
        <pt x="693" y="1254" on="1"/>
        <pt x="746" y="1268" on="1"/>
        <pt x="1161" y="66" on="1"/>
        <pt x="1293" y="47" on="1"/>
        <pt x="1285" y="1" on="1"/>
        <pt x="876" y="1" on="1"/>
        <pt x="885" y="43" on="1"/>
        <pt x="1051" y="73" on="1"/>
        <pt x="912" y="478" on="1"/>
        <pt x="480" y="478" on="1"/>
        <pt x="332" y="65" on="1"/>
        <pt x="516" y="46" on="1"/>
        <pt x="507" y="0" on="1"/>
      </contour>
    </TTGlyph>
    <TTGlyph name="B" xMin="115" yMin="0" xMax="1075" yMax="1257">
      <contour>
        <pt x="393" y="680" on="1"/>
        <pt x="703" y="680" on="1"/>
        <pt x="770" y="723" on="0"/>
        <pt x="868" y="853" on="0"/>
        <pt x="868" y="933" on="1"/>
        <pt x="868" y="1071" on="0"/>
        <pt x="681" y="1212" on="0"/>
        <pt x="515" y="1212" on="1"/>
        <pt x="420" y="1212" on="0"/>
        <pt x="393" y="1206" on="1"/>
      </contour>
      <contour>
        <pt x="393" y="54" on="1"/>
        <pt x="639" y="54" on="1"/>
        <pt x="892" y="54" on="0"/>
        <pt x="953" y="242" on="1"/>
        <pt x="969" y="291" on="0"/>
        <pt x="969" y="344" on="1"/>
        <pt x="969" y="451" on="0"/>
        <pt x="824" y="631" on="0"/>
        <pt x="649" y="631" on="1"/>
        <pt x="393" y="631" on="1"/>
      </contour>
      <contour>
        <pt x="115" y="0" on="1"/>
        <pt x="123" y="42" on="1"/>
        <pt x="292" y="72" on="1"/>
        <pt x="292" y="1153" on="1"/>
        <pt x="120" y="1175" on="1"/>
        <pt x="130" y="1211" on="1"/>
        <pt x="364" y="1250" on="0"/>
        <pt x="522" y="1257" on="0"/>
        <pt x="573" y="1257" on="1"/>
        <pt x="761" y="1257" on="0"/>
        <pt x="970" y="1088" on="0"/>
        <pt x="970" y="967" on="1"/>
        <pt x="970" y="792" on="0"/>
        <pt x="763" y="678" on="1"/>
        <pt x="763" y="672" on="1"/>
        <pt x="908" y="664" on="0"/>
        <pt x="1075" y="489" on="0"/>
        <pt x="1075" y="380" on="1"/>
        <pt x="1075" y="92" on="0"/>
        <pt x="756" y="21" on="1"/>
        <pt x="661" y="0" on="0"/>
        <pt x="540" y="0" on="1"/>
      </contour>
    </TTGlyph>
    <TTGlyph name="C" xMin="154" yMin="-26" xMax="1112" yMax="1271">
      <contour>
        <pt x="154" y="607" on="1"/>
        <pt x="154" y="758" on="0"/>
        <pt x="274" y="1061" on="0"/>
        <pt x="531" y="1271" on="0"/>
        <pt x="924" y="1271" on="0"/>
        <pt x="1057" y="1171" on="1"/>
        <pt x="1026" y="834" on="1"/>
        <pt x="979" y="842" on="1"/>
        <pt x="949" y="1101" on="1"/>
        <pt x="862" y="1215" on="0"/>
        <pt x="502" y="1215" on="0"/>
        <pt x="260" y="892" on="0"/>
        <pt x="260" y="362" on="0"/>
        <pt x="495" y="54" on="0"/>
        <pt x="711" y="54" on="1"/>
        <pt x="818" y="54" on="0"/>
        <pt x="1020" y="164" on="0"/>
        <pt x="1089" y="243" on="1"/>
        <pt x="1112" y="206" on="1"/>
        <pt x="1060" y="128" on="0"/>
        <pt x="819" y="-26" on="0"/>
        <pt x="665" y="-26" on="1"/>
        <pt x="435" y="-26" on="0"/>
        <pt x="154" y="319" on="0"/>
      </contour>
    </TTGlyph>
    <TTGlyph name="Cacute" xMin="154" yMin="-26" xMax="1112" yMax="1713">
      <contour>
        <pt x="671" y="1376" on="1"/>
        <pt x="803" y="1713" on="1"/>
        <pt x="899" y="1674" on="1"/>
        <pt x="716" y="1350" on="1"/>
      </contour>
      <contour>
        <pt x="154" y="607" on="1"/>
        <pt x="154" y="758" on="0"/>
        <pt x="274" y="1061" on="0"/>
        <pt x="531" y="1271" on="0"/>
        <pt x="924" y="1271" on="0"/>
        <pt x="1057" y="1171" on="1"/>
        <pt x="1026" y="834" on="1"/>
        <pt x="979" y="842" on="1"/>
        <pt x="949" y="1101" on="1"/>
        <pt x="862" y="1215" on="0"/>
        <pt x="502" y="1215" on="0"/>
        <pt x="260" y="892" on="0"/>
        <pt x="260" y="362" on="0"/>
        <pt x="495" y="54" on="0"/>
        <pt x="711" y="54" on="1"/>
        <pt x="818" y="54" on="0"/>
        <pt x="1020" y="164" on="0"/>
        <pt x="1089" y="243" on="1"/>
        <pt x="1112" y="206" on="1"/>
        <pt x="1060" y="128" on="0"/>
        <pt x="819" y="-26" on="0"/>
        <pt x="665" y="-26" on="1"/>
        <pt x="435" y="-26" on="0"/>
        <pt x="154" y="319" on="0"/>
      </contour>
    </TTGlyph>
    <TTGlyph name="Ccaron" xMin="154" yMin="-26" xMax="1112" yMax="1592">
      <contour>
        <pt x="517" y="1543" on="1"/>
        <pt x="572" y="1592" on="1"/>
        <pt x="738" y="1423" on="1"/>
        <pt x="747" y="1423" on="1"/>
        <pt x="890" y="1588" on="1"/>
        <pt x="926" y="1561" on="1"/>
        <pt x="752" y="1377" on="1"/>
        <pt x="696" y="1363" on="1"/>
      </contour>
      <contour>
        <pt x="154" y="607" on="1"/>
        <pt x="154" y="758" on="0"/>
        <pt x="274" y="1061" on="0"/>
        <pt x="531" y="1271" on="0"/>
        <pt x="924" y="1271" on="0"/>
        <pt x="1057" y="1171" on="1"/>
        <pt x="1026" y="834" on="1"/>
        <pt x="979" y="842" on="1"/>
        <pt x="949" y="1101" on="1"/>
        <pt x="862" y="1215" on="0"/>
        <pt x="502" y="1215" on="0"/>
        <pt x="260" y="892" on="0"/>
        <pt x="260" y="362" on="0"/>
        <pt x="495" y="54" on="0"/>
        <pt x="711" y="54" on="1"/>
        <pt x="818" y="54" on="0"/>
        <pt x="1020" y="164" on="0"/>
        <pt x="1089" y="243" on="1"/>
        <pt x="1112" y="206" on="1"/>
        <pt x="1060" y="128" on="0"/>
        <pt x="819" y="-26" on="0"/>
        <pt x="665" y="-26" on="1"/>
        <pt x="435" y="-26" on="0"/>
        <pt x="154" y="319" on="0"/>
      </contour>
    </TTGlyph>
    <TTGlyph name="Ccedilla" xMin="154" yMin="-390" xMax="1112" yMax="1271">
      <contour>
        <pt x="154" y="607" on="1"/>
        <pt x="154" y="758" on="0"/>
        <pt x="274" y="1061" on="0"/>
        <pt x="531" y="1271" on="0"/>
        <pt x="924" y="1271" on="0"/>
        <pt x="1057" y="1171" on="1"/>
        <pt x="1026" y="834" on="1"/>
        <pt x="979" y="842" on="1"/>
        <pt x="949" y="1101" on="1"/>
        <pt x="862" y="1215" on="0"/>
        <pt x="502" y="1215" on="0"/>
        <pt x="260" y="892" on="0"/>
        <pt x="260" y="362" on="0"/>
        <pt x="495" y="54" on="0"/>
        <pt x="711" y="54" on="1"/>
        <pt x="818" y="54" on="0"/>
        <pt x="1020" y="164" on="0"/>
        <pt x="1089" y="243" on="1"/>
        <pt x="1112" y="206" on="1"/>
        <pt x="1061" y="131" on="0"/>
        <pt x="856" y="-6" on="0"/>
        <pt x="730" y="-22" on="1"/>
        <pt x="692" y="-76" on="1"/>
        <pt x="781" y="-155" on="0"/>
        <pt x="781" y="-283" on="0"/>
        <pt x="678" y="-361" on="0"/>
        <pt x="582" y="-390" on="1"/>
        <pt x="571" y="-347" on="1"/>
        <pt x="614" y="-332" on="0"/>
        <pt x="689" y="-269" on="0"/>
        <pt x="689" y="-224" on="0"/>
        <pt x="670" y="-183" on="0"/>
        <pt x="652" y="-162" on="0"/>
        <pt x="609" y="-124" on="0"/>
        <pt x="603" y="-118" on="1"/>
        <pt x="668" y="-26" on="1"/>
        <pt x="665" y="-26" on="1"/>
        <pt x="435" y="-26" on="0"/>
        <pt x="154" y="319" on="0"/>
      </contour>
    </TTGlyph>
    <TTGlyph name="Cdotaccent" xMin="154" yMin="-26" xMax="1112" yMax="1576">
      <contour>
        <pt x="154" y="607" on="1"/>
        <pt x="154" y="758" on="0"/>
        <pt x="274" y="1061" on="0"/>
        <pt x="531" y="1271" on="0"/>
        <pt x="924" y="1271" on="0"/>
        <pt x="1057" y="1171" on="1"/>
        <pt x="1026" y="834" on="1"/>
        <pt x="979" y="842" on="1"/>
        <pt x="949" y="1101" on="1"/>
        <pt x="862" y="1215" on="0"/>
        <pt x="502" y="1215" on="0"/>
        <pt x="260" y="892" on="0"/>
        <pt x="260" y="362" on="0"/>
        <pt x="495" y="54" on="0"/>
        <pt x="711" y="54" on="1"/>
        <pt x="818" y="54" on="0"/>
        <pt x="1020" y="164" on="0"/>
        <pt x="1089" y="243" on="1"/>
        <pt x="1112" y="206" on="1"/>
        <pt x="1060" y="128" on="0"/>
        <pt x="819" y="-26" on="0"/>
        <pt x="665" y="-26" on="1"/>
        <pt x="435" y="-26" on="0"/>
        <pt x="154" y="319" on="0"/>
      </contour>
      <contour>
        <pt x="761" y="1376" on="0"/>
        <pt x="635" y="1376" on="0"/>
        <pt x="635" y="1576" on="0"/>
        <pt x="761" y="1576" on="0"/>
      </contour>
    </TTGlyph>
    <TTGlyph name="D" xMin="115" yMin="0" xMax="1266" yMax="1259">
      <contour>
        <pt x="393" y="54" on="1"/>
        <pt x="573" y="54" on="1"/>
        <pt x="837" y="54" on="0"/>
        <pt x="1158" y="370" on="0"/>
        <pt x="1158" y="906" on="0"/>
        <pt x="850" y="1205" on="0"/>
        <pt x="567" y="1205" on="1"/>
        <pt x="421" y="1205" on="0"/>
        <pt x="393" y="1201" on="1"/>
      </contour>
      <contour>
        <pt x="115" y="0" on="1"/>
        <pt x="123" y="42" on="1"/>
        <pt x="292" y="72" on="1"/>
        <pt x="292" y="1153" on="1"/>
        <pt x="120" y="1175" on="1"/>
        <pt x="130" y="1211" on="1"/>
        <pt x="435" y="1259" on="0"/>
        <pt x="745" y="1259" on="0"/>
        <pt x="858" y="1224" on="1"/>
        <pt x="1067" y="1161" on="0"/>
        <pt x="1266" y="846" on="0"/>
        <pt x="1266" y="655" on="1"/>
        <pt x="1266" y="313" on="0"/>
        <pt x="1022" y="132" on="1"/>
        <pt x="843" y="0" on="0"/>
        <pt x="546" y="0" on="1"/>
      </contour>
    </TTGlyph>
    <TTGlyph name="Dcaron" xMin="115" yMin="0" xMax="1266" yMax="1592">
      <contour>
        <pt x="440" y="1543" on="1"/>
        <pt x="495" y="1592" on="1"/>
        <pt x="661" y="1423" on="1"/>
        <pt x="670" y="1423" on="1"/>
        <pt x="813" y="1588" on="1"/>
        <pt x="849" y="1561" on="1"/>
        <pt x="675" y="1377" on="1"/>
        <pt x="619" y="1363" on="1"/>
      </contour>
      <contour>
        <pt x="393" y="54" on="1"/>
        <pt x="573" y="54" on="1"/>
        <pt x="837" y="54" on="0"/>
        <pt x="1158" y="370" on="0"/>
        <pt x="1158" y="906" on="0"/>
        <pt x="850" y="1205" on="0"/>
        <pt x="567" y="1205" on="1"/>
        <pt x="421" y="1205" on="0"/>
        <pt x="393" y="1201" on="1"/>
      </contour>
      <contour>
        <pt x="115" y="0" on="1"/>
        <pt x="123" y="42" on="1"/>
        <pt x="292" y="72" on="1"/>
        <pt x="292" y="1153" on="1"/>
        <pt x="120" y="1175" on="1"/>
        <pt x="130" y="1211" on="1"/>
        <pt x="435" y="1259" on="0"/>
        <pt x="745" y="1259" on="0"/>
        <pt x="858" y="1224" on="1"/>
        <pt x="1067" y="1161" on="0"/>
        <pt x="1266" y="846" on="0"/>
        <pt x="1266" y="655" on="1"/>
        <pt x="1266" y="313" on="0"/>
        <pt x="1022" y="132" on="1"/>
        <pt x="843" y="0" on="0"/>
        <pt x="546" y="0" on="1"/>
      </contour>
    </TTGlyph>
    <TTGlyph name="Dcroat" xMin="111" yMin="0" xMax="1275" yMax="1259">
      <contour>
        <pt x="393" y="54" on="1"/>
        <pt x="573" y="54" on="1"/>
        <pt x="839" y="54" on="0"/>
        <pt x="1161" y="351" on="0"/>
        <pt x="1161" y="878" on="0"/>
        <pt x="853" y="1205" on="0"/>
        <pt x="567" y="1205" on="1"/>
        <pt x="421" y="1205" on="0"/>
        <pt x="393" y="1201" on="1"/>
        <pt x="393" y="672" on="1"/>
        <pt x="680" y="691" on="1"/>
        <pt x="672" y="631" on="1"/>
        <pt x="393" y="612" on="1"/>
      </contour>
      <contour>
        <pt x="111" y="592" on="1"/>
        <pt x="120" y="653" on="1"/>
        <pt x="292" y="664" on="1"/>
        <pt x="292" y="1153" on="1"/>
        <pt x="120" y="1175" on="1"/>
        <pt x="130" y="1211" on="1"/>
        <pt x="435" y="1259" on="0"/>
        <pt x="752" y="1259" on="0"/>
        <pt x="868" y="1226" on="1"/>
        <pt x="1082" y="1164" on="0"/>
        <pt x="1275" y="856" on="0"/>
        <pt x="1275" y="437" on="0"/>
        <pt x="1166" y="277" on="1"/>
        <pt x="976" y="0" on="0"/>
        <pt x="546" y="0" on="1"/>
        <pt x="115" y="0" on="1"/>
        <pt x="123" y="42" on="1"/>
        <pt x="292" y="72" on="1"/>
        <pt x="292" y="605" on="1"/>
      </contour>
    </TTGlyph>
    <TTGlyph name="E" xMin="118" yMin="0" xMax="1078" yMax="1244">
      <contour>
        <pt x="118" y="1202" on="1"/>
        <pt x="125" y="1244" on="1"/>
        <pt x="1031" y="1244" on="1"/>
        <pt x="1000" y="925" on="1"/>
        <pt x="954" y="931" on="1"/>
        <pt x="935" y="1193" on="1"/>
        <pt x="401" y="1193" on="1"/>
        <pt x="401" y="659" on="1"/>
        <pt x="736" y="659" on="1"/>
        <pt x="773" y="798" on="1"/>
        <pt x="827" y="806" on="1"/>
        <pt x="794" y="417" on="1"/>
        <pt x="743" y="408" on="1"/>
        <pt x="727" y="605" on="1"/>
        <pt x="401" y="605" on="1"/>
        <pt x="401" y="54" on="1"/>
        <pt x="963" y="54" on="1"/>
        <pt x="1037" y="323" on="1"/>
        <pt x="1078" y="313" on="1"/>
        <pt x="1048" y="0" on="1"/>
        <pt x="121" y="0" on="1"/>
        <pt x="127" y="42" on="1"/>
        <pt x="297" y="72" on="1"/>
        <pt x="297" y="1175" on="1"/>
      </contour>
    </TTGlyph>
    <TTGlyph name="Eacute" xMin="118" yMin="0" xMax="1078" yMax="1713">
      <contour>
        <pt x="556" y="1376" on="1"/>
        <pt x="688" y="1713" on="1"/>
        <pt x="784" y="1674" on="1"/>
        <pt x="601" y="1350" on="1"/>
      </contour>
      <contour>
        <pt x="118" y="1202" on="1"/>
        <pt x="125" y="1244" on="1"/>
        <pt x="1031" y="1244" on="1"/>
        <pt x="1000" y="925" on="1"/>
        <pt x="954" y="931" on="1"/>
        <pt x="935" y="1193" on="1"/>
        <pt x="401" y="1193" on="1"/>
        <pt x="401" y="659" on="1"/>
        <pt x="736" y="659" on="1"/>
        <pt x="773" y="798" on="1"/>
        <pt x="827" y="806" on="1"/>
        <pt x="794" y="417" on="1"/>
        <pt x="743" y="408" on="1"/>
        <pt x="727" y="605" on="1"/>
        <pt x="401" y="605" on="1"/>
        <pt x="401" y="54" on="1"/>
        <pt x="963" y="54" on="1"/>
        <pt x="1037" y="323" on="1"/>
        <pt x="1078" y="313" on="1"/>
        <pt x="1048" y="0" on="1"/>
        <pt x="121" y="0" on="1"/>
        <pt x="127" y="42" on="1"/>
        <pt x="297" y="72" on="1"/>
        <pt x="297" y="1175" on="1"/>
      </contour>
    </TTGlyph>
    <TTGlyph name="Ecaron" xMin="118" yMin="0" xMax="1078" yMax="1592">
      <contour>
        <pt x="434" y="1543" on="1"/>
        <pt x="489" y="1592" on="1"/>
        <pt x="655" y="1423" on="1"/>
        <pt x="664" y="1423" on="1"/>
        <pt x="807" y="1588" on="1"/>
        <pt x="843" y="1561" on="1"/>
        <pt x="669" y="1377" on="1"/>
        <pt x="613" y="1363" on="1"/>
      </contour>
      <contour>
        <pt x="118" y="1202" on="1"/>
        <pt x="125" y="1244" on="1"/>
        <pt x="1031" y="1244" on="1"/>
        <pt x="1000" y="925" on="1"/>
        <pt x="954" y="931" on="1"/>
        <pt x="935" y="1193" on="1"/>
        <pt x="401" y="1193" on="1"/>
        <pt x="401" y="659" on="1"/>
        <pt x="736" y="659" on="1"/>
        <pt x="773" y="798" on="1"/>
        <pt x="827" y="806" on="1"/>
        <pt x="794" y="417" on="1"/>
        <pt x="743" y="408" on="1"/>
        <pt x="727" y="605" on="1"/>
        <pt x="401" y="605" on="1"/>
        <pt x="401" y="54" on="1"/>
        <pt x="963" y="54" on="1"/>
        <pt x="1037" y="323" on="1"/>
        <pt x="1078" y="313" on="1"/>
        <pt x="1048" y="0" on="1"/>
        <pt x="121" y="0" on="1"/>
        <pt x="127" y="42" on="1"/>
        <pt x="297" y="72" on="1"/>
        <pt x="297" y="1175" on="1"/>
      </contour>
    </TTGlyph>
    <TTGlyph name="Ecircumflex" xMin="118" yMin="0" xMax="1078" yMax="1588">
      <contour>
        <pt x="423" y="1394" on="1"/>
        <pt x="590" y="1575" on="1"/>
        <pt x="644" y="1588" on="1"/>
        <pt x="823" y="1402" on="1"/>
        <pt x="791" y="1365" on="1"/>
        <pt x="610" y="1500" on="1"/>
        <pt x="601" y="1500" on="1"/>
        <pt x="444" y="1364" on="1"/>
      </contour>
      <contour>
        <pt x="118" y="1202" on="1"/>
        <pt x="125" y="1244" on="1"/>
        <pt x="1031" y="1244" on="1"/>
        <pt x="1000" y="925" on="1"/>
        <pt x="954" y="931" on="1"/>
        <pt x="935" y="1193" on="1"/>
        <pt x="401" y="1193" on="1"/>
        <pt x="401" y="659" on="1"/>
        <pt x="736" y="659" on="1"/>
        <pt x="773" y="798" on="1"/>
        <pt x="827" y="806" on="1"/>
        <pt x="794" y="417" on="1"/>
        <pt x="743" y="408" on="1"/>
        <pt x="727" y="605" on="1"/>
        <pt x="401" y="605" on="1"/>
        <pt x="401" y="54" on="1"/>
        <pt x="963" y="54" on="1"/>
        <pt x="1037" y="323" on="1"/>
        <pt x="1078" y="313" on="1"/>
        <pt x="1048" y="0" on="1"/>
        <pt x="121" y="0" on="1"/>
        <pt x="127" y="42" on="1"/>
        <pt x="297" y="72" on="1"/>
        <pt x="297" y="1175" on="1"/>
      </contour>
    </TTGlyph>
    <TTGlyph name="Edieresis" xMin="118" yMin="0" xMax="1078" yMax="1532">
      <contour>
        <pt x="699" y="1373" on="0"/>
        <pt x="699" y="1532" on="0"/>
        <pt x="811" y="1532" on="0"/>
        <pt x="811" y="1373" on="0"/>
      </contour>
      <contour>
        <pt x="487" y="1373" on="1"/>
        <pt x="430" y="1373" on="0"/>
        <pt x="430" y="1532" on="0"/>
        <pt x="543" y="1532" on="0"/>
        <pt x="543" y="1454" on="1"/>
        <pt x="543" y="1413" on="0"/>
        <pt x="518" y="1373" on="0"/>
      </contour>
      <contour>
        <pt x="118" y="1202" on="1"/>
        <pt x="125" y="1244" on="1"/>
        <pt x="1031" y="1244" on="1"/>
        <pt x="1000" y="925" on="1"/>
        <pt x="954" y="931" on="1"/>
        <pt x="935" y="1193" on="1"/>
        <pt x="401" y="1193" on="1"/>
        <pt x="401" y="659" on="1"/>
        <pt x="736" y="659" on="1"/>
        <pt x="773" y="798" on="1"/>
        <pt x="827" y="806" on="1"/>
        <pt x="794" y="417" on="1"/>
        <pt x="743" y="408" on="1"/>
        <pt x="727" y="605" on="1"/>
        <pt x="401" y="605" on="1"/>
        <pt x="401" y="54" on="1"/>
        <pt x="963" y="54" on="1"/>
        <pt x="1037" y="323" on="1"/>
        <pt x="1078" y="313" on="1"/>
        <pt x="1048" y="0" on="1"/>
        <pt x="121" y="0" on="1"/>
        <pt x="127" y="42" on="1"/>
        <pt x="297" y="72" on="1"/>
        <pt x="297" y="1175" on="1"/>
      </contour>
    </TTGlyph>
    <TTGlyph name="Edotaccent" xMin="118" yMin="0" xMax="1078" yMax="1555">
      <contour>
        <pt x="550" y="1356" on="0"/>
        <pt x="550" y="1555" on="0"/>
        <pt x="676" y="1555" on="0"/>
        <pt x="676" y="1356" on="0"/>
      </contour>
      <contour>
        <pt x="118" y="1202" on="1"/>
        <pt x="125" y="1244" on="1"/>
        <pt x="1031" y="1244" on="1"/>
        <pt x="1000" y="925" on="1"/>
        <pt x="954" y="931" on="1"/>
        <pt x="935" y="1193" on="1"/>
        <pt x="401" y="1193" on="1"/>
        <pt x="401" y="659" on="1"/>
        <pt x="736" y="659" on="1"/>
        <pt x="773" y="798" on="1"/>
        <pt x="827" y="806" on="1"/>
        <pt x="794" y="417" on="1"/>
        <pt x="743" y="408" on="1"/>
        <pt x="727" y="605" on="1"/>
        <pt x="401" y="605" on="1"/>
        <pt x="401" y="54" on="1"/>
        <pt x="963" y="54" on="1"/>
        <pt x="1037" y="323" on="1"/>
        <pt x="1078" y="313" on="1"/>
        <pt x="1048" y="0" on="1"/>
        <pt x="121" y="0" on="1"/>
        <pt x="127" y="42" on="1"/>
        <pt x="297" y="72" on="1"/>
        <pt x="297" y="1175" on="1"/>
      </contour>
    </TTGlyph>
    <TTGlyph name="Egrave" xMin="118" yMin="0" xMax="1078" yMax="1704">
      <contour>
        <pt x="457" y="1667" on="1"/>
        <pt x="551" y="1704" on="1"/>
        <pt x="684" y="1368" on="1"/>
        <pt x="638" y="1341" on="1"/>
      </contour>
      <contour>
        <pt x="118" y="1202" on="1"/>
        <pt x="125" y="1244" on="1"/>
        <pt x="1031" y="1244" on="1"/>
        <pt x="1000" y="925" on="1"/>
        <pt x="954" y="931" on="1"/>
        <pt x="935" y="1193" on="1"/>
        <pt x="401" y="1193" on="1"/>
        <pt x="401" y="659" on="1"/>
        <pt x="736" y="659" on="1"/>
        <pt x="773" y="798" on="1"/>
        <pt x="827" y="806" on="1"/>
        <pt x="794" y="417" on="1"/>
        <pt x="743" y="408" on="1"/>
        <pt x="727" y="605" on="1"/>
        <pt x="401" y="605" on="1"/>
        <pt x="401" y="54" on="1"/>
        <pt x="963" y="54" on="1"/>
        <pt x="1037" y="323" on="1"/>
        <pt x="1078" y="313" on="1"/>
        <pt x="1048" y="0" on="1"/>
        <pt x="121" y="0" on="1"/>
        <pt x="127" y="42" on="1"/>
        <pt x="297" y="72" on="1"/>
        <pt x="297" y="1175" on="1"/>
      </contour>
    </TTGlyph>
    <TTGlyph name="Emacron" xMin="118" yMin="0" xMax="1078" yMax="1438">
      <contour>
        <pt x="379" y="1386" on="1"/>
        <pt x="388" y="1438" on="1"/>
        <pt x="828" y="1438" on="1"/>
        <pt x="820" y="1386" on="1"/>
      </contour>
      <contour>
        <pt x="118" y="1202" on="1"/>
        <pt x="125" y="1244" on="1"/>
        <pt x="1031" y="1244" on="1"/>
        <pt x="1000" y="925" on="1"/>
        <pt x="954" y="931" on="1"/>
        <pt x="935" y="1193" on="1"/>
        <pt x="401" y="1193" on="1"/>
        <pt x="401" y="659" on="1"/>
        <pt x="736" y="659" on="1"/>
        <pt x="773" y="798" on="1"/>
        <pt x="827" y="806" on="1"/>
        <pt x="794" y="417" on="1"/>
        <pt x="743" y="408" on="1"/>
        <pt x="727" y="605" on="1"/>
        <pt x="401" y="605" on="1"/>
        <pt x="401" y="54" on="1"/>
        <pt x="963" y="54" on="1"/>
        <pt x="1037" y="323" on="1"/>
        <pt x="1078" y="313" on="1"/>
        <pt x="1048" y="0" on="1"/>
        <pt x="121" y="0" on="1"/>
        <pt x="127" y="42" on="1"/>
        <pt x="297" y="72" on="1"/>
        <pt x="297" y="1175" on="1"/>
      </contour>
    </TTGlyph>
    <TTGlyph name="Eng" xMin="76" yMin="-384" xMax="1325" yMax="1244">
      <contour>
        <pt x="852" y="-335" on="1"/>
        <pt x="1025" y="-207" on="0"/>
        <pt x="1052" y="50" on="1"/>
        <pt x="335" y="1133" on="1"/>
        <pt x="335" y="65" on="1"/>
        <pt x="519" y="46" on="1"/>
        <pt x="509" y="0" on="1"/>
        <pt x="88" y="0" on="1"/>
        <pt x="94" y="42" on="1"/>
        <pt x="261" y="72" on="1"/>
        <pt x="261" y="1175" on="1"/>
        <pt x="76" y="1208" on="1"/>
        <pt x="84" y="1244" on="1"/>
        <pt x="387" y="1244" on="1"/>
        <pt x="1078" y="179" on="1"/>
        <pt x="1078" y="1180" on="1"/>
        <pt x="895" y="1205" on="1"/>
        <pt x="901" y="1244" on="1"/>
        <pt x="1325" y="1244" on="1"/>
        <pt x="1317" y="1205" on="1"/>
        <pt x="1151" y="1182" on="1"/>
        <pt x="1151" y="151" on="1"/>
        <pt x="1151" y="-197" on="0"/>
        <pt x="930" y="-353" on="1"/>
        <pt x="885" y="-384" on="1"/>
      </contour>
    </TTGlyph>
    <TTGlyph name="Eogonek" xMin="118" yMin="-387" xMax="1097" yMax="1244">
      <contour>
        <pt x="858" y="-209" on="1"/>
        <pt x="858" y="-117" on="0"/>
        <pt x="984" y="0" on="1"/>
        <pt x="121" y="0" on="1"/>
        <pt x="127" y="42" on="1"/>
        <pt x="297" y="72" on="1"/>
        <pt x="297" y="1175" on="1"/>
        <pt x="118" y="1202" on="1"/>
        <pt x="125" y="1244" on="1"/>
        <pt x="1031" y="1244" on="1"/>
        <pt x="1000" y="925" on="1"/>
        <pt x="954" y="931" on="1"/>
        <pt x="935" y="1193" on="1"/>
        <pt x="401" y="1193" on="1"/>
        <pt x="401" y="659" on="1"/>
        <pt x="736" y="659" on="1"/>
        <pt x="773" y="798" on="1"/>
        <pt x="827" y="806" on="1"/>
        <pt x="794" y="417" on="1"/>
        <pt x="743" y="408" on="1"/>
        <pt x="727" y="605" on="1"/>
        <pt x="401" y="605" on="1"/>
        <pt x="401" y="54" on="1"/>
        <pt x="963" y="54" on="1"/>
        <pt x="1037" y="323" on="1"/>
        <pt x="1078" y="313" on="1"/>
        <pt x="1048" y="0" on="1"/>
        <pt x="1034" y="0" on="1"/>
        <pt x="956" y="-97" on="0"/>
        <pt x="956" y="-225" on="0"/>
        <pt x="1025" y="-311" on="0"/>
        <pt x="1097" y="-353" on="1"/>
        <pt x="1064" y="-387" on="1"/>
        <pt x="962" y="-376" on="0"/>
        <pt x="858" y="-277" on="0"/>
      </contour>
    </TTGlyph>
    <TTGlyph name="Eth" xMin="111" yMin="0" xMax="1275" yMax="1259">
      <contour>
        <pt x="393" y="54" on="1"/>
        <pt x="573" y="54" on="1"/>
        <pt x="839" y="54" on="0"/>
        <pt x="1161" y="351" on="0"/>
        <pt x="1161" y="878" on="0"/>
        <pt x="853" y="1205" on="0"/>
        <pt x="567" y="1205" on="1"/>
        <pt x="421" y="1205" on="0"/>
        <pt x="393" y="1201" on="1"/>
        <pt x="393" y="672" on="1"/>
        <pt x="680" y="691" on="1"/>
        <pt x="672" y="631" on="1"/>
        <pt x="393" y="612" on="1"/>
      </contour>
      <contour>
        <pt x="111" y="592" on="1"/>
        <pt x="120" y="653" on="1"/>
        <pt x="292" y="664" on="1"/>
        <pt x="292" y="1153" on="1"/>
        <pt x="120" y="1175" on="1"/>
        <pt x="130" y="1211" on="1"/>
        <pt x="435" y="1259" on="0"/>
        <pt x="752" y="1259" on="0"/>
        <pt x="868" y="1226" on="1"/>
        <pt x="1082" y="1164" on="0"/>
        <pt x="1275" y="856" on="0"/>
        <pt x="1275" y="437" on="0"/>
        <pt x="1166" y="277" on="1"/>
        <pt x="976" y="0" on="0"/>
        <pt x="546" y="0" on="1"/>
        <pt x="115" y="0" on="1"/>
        <pt x="123" y="42" on="1"/>
        <pt x="292" y="72" on="1"/>
        <pt x="292" y="605" on="1"/>
      </contour>
    </TTGlyph>
    <TTGlyph name="Euro" xMin="-37" yMin="-26" xMax="1006" yMax="1271">
      <contour>
        <pt x="-31" y="693" on="1"/>
        <pt x="-29" y="758" on="1"/>
        <pt x="152" y="758" on="1"/>
        <pt x="189" y="986" on="0"/>
        <pt x="453" y="1271" on="0"/>
        <pt x="684" y="1271" on="1"/>
        <pt x="782" y="1271" on="0"/>
        <pt x="916" y="1227" on="0"/>
        <pt x="990" y="1171" on="1"/>
        <pt x="958" y="834" on="1"/>
        <pt x="914" y="842" on="1"/>
        <pt x="884" y="1101" on="1"/>
        <pt x="852" y="1155" on="0"/>
        <pt x="761" y="1206" on="0"/>
        <pt x="680" y="1206" on="1"/>
        <pt x="506" y="1206" on="0"/>
        <pt x="296" y="970" on="0"/>
        <pt x="270" y="758" on="1"/>
        <pt x="806" y="758" on="1"/>
        <pt x="793" y="693" on="1"/>
        <pt x="264" y="693" on="1"/>
        <pt x="262" y="668" on="0"/>
        <pt x="262" y="616" on="1"/>
        <pt x="262" y="584" on="1"/>
        <pt x="760" y="584" on="1"/>
        <pt x="747" y="517" on="1"/>
        <pt x="266" y="517" on="1"/>
        <pt x="285" y="283" on="0"/>
        <pt x="502" y="43" on="0"/>
        <pt x="679" y="43" on="1"/>
        <pt x="732" y="43" on="0"/>
        <pt x="853" y="108" on="0"/>
        <pt x="899" y="172" on="1"/>
        <pt x="931" y="432" on="1"/>
        <pt x="975" y="438" on="1"/>
        <pt x="1006" y="103" on="1"/>
        <pt x="910" y="35" on="0"/>
        <pt x="743" y="-26" on="0"/>
        <pt x="627" y="-26" on="1"/>
        <pt x="425" y="-26" on="0"/>
        <pt x="158" y="270" on="0"/>
        <pt x="141" y="517" on="1"/>
        <pt x="-37" y="517" on="1"/>
        <pt x="-36" y="584" on="1"/>
        <pt x="139" y="584" on="1"/>
        <pt x="139" y="633" on="0"/>
        <pt x="144" y="693" on="1"/>
      </contour>
    </TTGlyph>
    <TTGlyph name="Euro.osf" xMin="7" yMin="-24" xMax="829" yMax="972">
      <contour>
        <pt x="829" y="54" on="1"/>
        <pt x="736" y="-24" on="0"/>
        <pt x="391" y="-24" on="0"/>
        <pt x="168" y="187" on="0"/>
        <pt x="145" y="358" on="1"/>
        <pt x="7" y="358" on="1"/>
        <pt x="15" y="425" on="1"/>
        <pt x="139" y="425" on="1"/>
        <pt x="139" y="444" on="1"/>
        <pt x="139" y="478" on="0"/>
        <pt x="142" y="509" on="1"/>
        <pt x="15" y="509" on="1"/>
        <pt x="19" y="574" on="1"/>
        <pt x="152" y="574" on="1"/>
        <pt x="186" y="747" on="0"/>
        <pt x="411" y="972" on="0"/>
        <pt x="576" y="972" on="1"/>
        <pt x="690" y="972" on="0"/>
        <pt x="813" y="899" on="1"/>
        <pt x="783" y="614" on="1"/>
        <pt x="736" y="622" on="1"/>
        <pt x="707" y="831" on="1"/>
        <pt x="631" y="908" on="0"/>
        <pt x="420" y="908" on="0"/>
        <pt x="284" y="724" on="0"/>
        <pt x="267" y="574" on="1"/>
        <pt x="628" y="574" on="1"/>
        <pt x="616" y="509" on="1"/>
        <pt x="263" y="509" on="1"/>
        <pt x="262" y="477" on="1"/>
        <pt x="262" y="459" on="0"/>
        <pt x="264" y="425" on="1"/>
        <pt x="595" y="425" on="1"/>
        <pt x="582" y="358" on="1"/>
        <pt x="272" y="358" on="1"/>
        <pt x="297" y="218" on="0"/>
        <pt x="455" y="42" on="0"/>
        <pt x="581" y="42" on="1"/>
        <pt x="669" y="42" on="0"/>
        <pt x="723" y="105" on="1"/>
        <pt x="752" y="317" on="1"/>
        <pt x="798" y="323" on="1"/>
      </contour>
    </TTGlyph>
    <TTGlyph name="F" xMin="111" yMin="0" xMax="1024" yMax="1244">
      <contour>
        <pt x="111" y="1202" on="1"/>
        <pt x="118" y="1244" on="1"/>
        <pt x="1024" y="1244" on="1"/>
        <pt x="991" y="922" on="1"/>
        <pt x="942" y="930" on="1"/>
        <pt x="921" y="1193" on="1"/>
        <pt x="391" y="1193" on="1"/>
        <pt x="391" y="633" on="1"/>
        <pt x="724" y="633" on="1"/>
        <pt x="763" y="773" on="1"/>
        <pt x="819" y="780" on="1"/>
        <pt x="788" y="392" on="1"/>
        <pt x="733" y="384" on="1"/>
        <pt x="715" y="580" on="1"/>
        <pt x="391" y="580" on="1"/>
        <pt x="391" y="70" on="1"/>
        <pt x="637" y="53" on="1"/>
        <pt x="625" y="0" on="1"/>
        <pt x="115" y="0" on="1"/>
        <pt x="118" y="42" on="1"/>
        <pt x="288" y="72" on="1"/>
        <pt x="288" y="1175" on="1"/>
      </contour>
    </TTGlyph>
    <TTGlyph name="G" xMin="154" yMin="-20" xMax="1271" yMax="1262">
      <contour>
        <pt x="1130" y="79" on="1"/>
        <pt x="965" y="-20" on="0"/>
        <pt x="688" y="-20" on="1"/>
        <pt x="448" y="-20" on="0"/>
        <pt x="304" y="147" on="1"/>
        <pt x="235" y="226" on="0"/>
        <pt x="154" y="463" on="0"/>
        <pt x="154" y="696" on="0"/>
        <pt x="179" y="790" on="1"/>
        <pt x="230" y="980" on="0"/>
        <pt x="529" y="1262" on="0"/>
        <pt x="1000" y="1262" on="0"/>
        <pt x="1135" y="1160" on="1"/>
        <pt x="1105" y="842" on="1"/>
        <pt x="1060" y="847" on="1"/>
        <pt x="1029" y="1083" on="1"/>
        <pt x="990" y="1133" on="0"/>
        <pt x="830" y="1203" on="0"/>
        <pt x="719" y="1203" on="1"/>
        <pt x="513" y="1203" on="0"/>
        <pt x="268" y="881" on="0"/>
        <pt x="268" y="633" on="1"/>
        <pt x="268" y="331" on="0"/>
        <pt x="430" y="168" on="1"/>
        <pt x="551" y="45" on="0"/>
        <pt x="764" y="45" on="1"/>
        <pt x="919" y="45" on="0"/>
        <pt x="1024" y="118" on="1"/>
        <pt x="1026" y="492" on="1"/>
        <pt x="785" y="517" on="1"/>
        <pt x="791" y="556" on="1"/>
        <pt x="1271" y="556" on="1"/>
        <pt x="1264" y="517" on="1"/>
        <pt x="1130" y="496" on="1"/>
      </contour>
    </TTGlyph>
    <TTGlyph name="Gbreve" xMin="154" yMin="-20" xMax="1271" yMax="1585">
      <contour>
        <pt x="550" y="1559" on="1"/>
        <pt x="580" y="1583" on="1"/>
        <pt x="646" y="1456" on="0"/>
        <pt x="839" y="1456" on="0"/>
        <pt x="909" y="1585" on="1"/>
        <pt x="932" y="1564" on="1"/>
        <pt x="872" y="1381" on="0"/>
        <pt x="595" y="1381" on="0"/>
      </contour>
      <contour>
        <pt x="1130" y="79" on="1"/>
        <pt x="965" y="-20" on="0"/>
        <pt x="688" y="-20" on="1"/>
        <pt x="448" y="-20" on="0"/>
        <pt x="304" y="147" on="1"/>
        <pt x="235" y="226" on="0"/>
        <pt x="154" y="463" on="0"/>
        <pt x="154" y="696" on="0"/>
        <pt x="179" y="790" on="1"/>
        <pt x="230" y="980" on="0"/>
        <pt x="529" y="1262" on="0"/>
        <pt x="1000" y="1262" on="0"/>
        <pt x="1135" y="1160" on="1"/>
        <pt x="1105" y="842" on="1"/>
        <pt x="1060" y="847" on="1"/>
        <pt x="1029" y="1083" on="1"/>
        <pt x="990" y="1133" on="0"/>
        <pt x="830" y="1203" on="0"/>
        <pt x="719" y="1203" on="1"/>
        <pt x="513" y="1203" on="0"/>
        <pt x="268" y="881" on="0"/>
        <pt x="268" y="633" on="1"/>
        <pt x="268" y="331" on="0"/>
        <pt x="430" y="168" on="1"/>
        <pt x="551" y="45" on="0"/>
        <pt x="764" y="45" on="1"/>
        <pt x="919" y="45" on="0"/>
        <pt x="1024" y="118" on="1"/>
        <pt x="1026" y="492" on="1"/>
        <pt x="785" y="517" on="1"/>
        <pt x="791" y="556" on="1"/>
        <pt x="1271" y="556" on="1"/>
        <pt x="1264" y="517" on="1"/>
        <pt x="1130" y="496" on="1"/>
      </contour>
    </TTGlyph>
    <TTGlyph name="Gcommaaccent" xMin="154" yMin="-390" xMax="1271" yMax="1262">
      <contour>
        <pt x="632" y="-353" on="1"/>
        <pt x="692" y="-339" on="0"/>
        <pt x="758" y="-280" on="0"/>
        <pt x="758" y="-241" on="1"/>
        <pt x="758" y="-158" on="0"/>
        <pt x="653" y="-151" on="1"/>
        <pt x="653" y="-127" on="0"/>
        <pt x="697" y="-85" on="0"/>
        <pt x="775" y="-85" on="0"/>
        <pt x="834" y="-149" on="0"/>
        <pt x="834" y="-241" on="0"/>
        <pt x="802" y="-311" on="0"/>
        <pt x="714" y="-377" on="0"/>
        <pt x="648" y="-390" on="1"/>
      </contour>
      <contour>
        <pt x="1130" y="79" on="1"/>
        <pt x="965" y="-20" on="0"/>
        <pt x="688" y="-20" on="1"/>
        <pt x="448" y="-20" on="0"/>
        <pt x="304" y="147" on="1"/>
        <pt x="235" y="226" on="0"/>
        <pt x="154" y="463" on="0"/>
        <pt x="154" y="696" on="0"/>
        <pt x="179" y="790" on="1"/>
        <pt x="230" y="980" on="0"/>
        <pt x="529" y="1262" on="0"/>
        <pt x="1000" y="1262" on="0"/>
        <pt x="1135" y="1160" on="1"/>
        <pt x="1105" y="842" on="1"/>
        <pt x="1060" y="847" on="1"/>
        <pt x="1029" y="1083" on="1"/>
        <pt x="990" y="1133" on="0"/>
        <pt x="830" y="1203" on="0"/>
        <pt x="719" y="1203" on="1"/>
        <pt x="513" y="1203" on="0"/>
        <pt x="268" y="881" on="0"/>
        <pt x="268" y="633" on="1"/>
        <pt x="268" y="331" on="0"/>
        <pt x="430" y="168" on="1"/>
        <pt x="551" y="45" on="0"/>
        <pt x="764" y="45" on="1"/>
        <pt x="919" y="45" on="0"/>
        <pt x="1024" y="118" on="1"/>
        <pt x="1026" y="492" on="1"/>
        <pt x="785" y="517" on="1"/>
        <pt x="791" y="556" on="1"/>
        <pt x="1271" y="556" on="1"/>
        <pt x="1264" y="517" on="1"/>
        <pt x="1130" y="496" on="1"/>
      </contour>
    </TTGlyph>
    <TTGlyph name="Gdotaccent" xMin="154" yMin="-20" xMax="1271" yMax="1576">
      <contour>
        <pt x="1130" y="79" on="1"/>
        <pt x="965" y="-20" on="0"/>
        <pt x="688" y="-20" on="1"/>
        <pt x="448" y="-20" on="0"/>
        <pt x="304" y="147" on="1"/>
        <pt x="235" y="226" on="0"/>
        <pt x="154" y="463" on="0"/>
        <pt x="154" y="696" on="0"/>
        <pt x="179" y="790" on="1"/>
        <pt x="230" y="980" on="0"/>
        <pt x="529" y="1262" on="0"/>
        <pt x="1000" y="1262" on="0"/>
        <pt x="1135" y="1160" on="1"/>
        <pt x="1105" y="842" on="1"/>
        <pt x="1060" y="847" on="1"/>
        <pt x="1029" y="1083" on="1"/>
        <pt x="990" y="1133" on="0"/>
        <pt x="830" y="1203" on="0"/>
        <pt x="719" y="1203" on="1"/>
        <pt x="513" y="1203" on="0"/>
        <pt x="268" y="881" on="0"/>
        <pt x="268" y="633" on="1"/>
        <pt x="268" y="331" on="0"/>
        <pt x="430" y="168" on="1"/>
        <pt x="551" y="45" on="0"/>
        <pt x="764" y="45" on="1"/>
        <pt x="919" y="45" on="0"/>
        <pt x="1024" y="118" on="1"/>
        <pt x="1026" y="492" on="1"/>
        <pt x="785" y="517" on="1"/>
        <pt x="791" y="556" on="1"/>
        <pt x="1271" y="556" on="1"/>
        <pt x="1264" y="517" on="1"/>
        <pt x="1130" y="496" on="1"/>
      </contour>
      <contour>
        <pt x="769" y="1376" on="0"/>
        <pt x="643" y="1376" on="0"/>
        <pt x="643" y="1576" on="0"/>
        <pt x="769" y="1576" on="0"/>
      </contour>
    </TTGlyph>
    <TTGlyph name="H" xMin="117" yMin="0" xMax="1406" yMax="1244">
      <contour>
        <pt x="117" y="1205" on="1"/>
        <pt x="120" y="1244" on="1"/>
        <pt x="576" y="1244" on="1"/>
        <pt x="571" y="1205" on="1"/>
        <pt x="402" y="1182" on="1"/>
        <pt x="402" y="651" on="1"/>
        <pt x="1120" y="651" on="1"/>
        <pt x="1120" y="1180" on="1"/>
        <pt x="936" y="1205" on="1"/>
        <pt x="943" y="1244" on="1"/>
        <pt x="1398" y="1244" on="1"/>
        <pt x="1390" y="1205" on="1"/>
        <pt x="1223" y="1182" on="1"/>
        <pt x="1223" y="65" on="1"/>
        <pt x="1406" y="46" on="1"/>
        <pt x="1399" y="0" on="1"/>
        <pt x="946" y="0" on="1"/>
        <pt x="954" y="42" on="1"/>
        <pt x="1120" y="72" on="1"/>
        <pt x="1120" y="591" on="1"/>
        <pt x="402" y="591" on="1"/>
        <pt x="402" y="65" on="1"/>
        <pt x="588" y="46" on="1"/>
        <pt x="577" y="0" on="1"/>
        <pt x="125" y="0" on="1"/>
        <pt x="130" y="42" on="1"/>
        <pt x="297" y="72" on="1"/>
        <pt x="297" y="1180" on="1"/>
      </contour>
    </TTGlyph>
    <TTGlyph name="Hbar" xMin="117" yMin="0" xMax="1406" yMax="1244">
      <contour>
        <pt x="1120" y="952" on="1"/>
        <pt x="402" y="952" on="1"/>
        <pt x="402" y="651" on="1"/>
        <pt x="1120" y="651" on="1"/>
      </contour>
      <contour>
        <pt x="123" y="943" on="1"/>
        <pt x="132" y="1012" on="1"/>
        <pt x="297" y="1012" on="1"/>
        <pt x="297" y="1180" on="1"/>
        <pt x="117" y="1205" on="1"/>
        <pt x="120" y="1244" on="1"/>
        <pt x="576" y="1244" on="1"/>
        <pt x="571" y="1205" on="1"/>
        <pt x="402" y="1182" on="1"/>
        <pt x="402" y="1006" on="1"/>
        <pt x="1120" y="1006" on="1"/>
        <pt x="1120" y="1180" on="1"/>
        <pt x="936" y="1205" on="1"/>
        <pt x="943" y="1244" on="1"/>
        <pt x="1398" y="1244" on="1"/>
        <pt x="1390" y="1205" on="1"/>
        <pt x="1223" y="1182" on="1"/>
        <pt x="1223" y="1012" on="1"/>
        <pt x="1378" y="1012" on="1"/>
        <pt x="1371" y="943" on="1"/>
        <pt x="1223" y="943" on="1"/>
        <pt x="1223" y="65" on="1"/>
        <pt x="1406" y="46" on="1"/>
        <pt x="1399" y="0" on="1"/>
        <pt x="946" y="0" on="1"/>
        <pt x="954" y="42" on="1"/>
        <pt x="1120" y="72" on="1"/>
        <pt x="1120" y="591" on="1"/>
        <pt x="402" y="591" on="1"/>
        <pt x="402" y="65" on="1"/>
        <pt x="588" y="46" on="1"/>
        <pt x="577" y="0" on="1"/>
        <pt x="125" y="0" on="1"/>
        <pt x="130" y="42" on="1"/>
        <pt x="297" y="72" on="1"/>
        <pt x="297" y="943" on="1"/>
      </contour>
    </TTGlyph>
    <TTGlyph name="I" xMin="121" yMin="0" xMax="595" yMax="1244">
      <contour>
        <pt x="121" y="1205" on="1"/>
        <pt x="127" y="1244" on="1"/>
        <pt x="584" y="1244" on="1"/>
        <pt x="577" y="1205" on="1"/>
        <pt x="402" y="1182" on="1"/>
        <pt x="402" y="65" on="1"/>
        <pt x="595" y="46" on="1"/>
        <pt x="586" y="0" on="1"/>
        <pt x="131" y="0" on="1"/>
        <pt x="136" y="42" on="1"/>
        <pt x="294" y="72" on="1"/>
        <pt x="294" y="1180" on="1"/>
      </contour>
    </TTGlyph>
    <TTGlyph name="Iacute" xMin="121" yMin="0" xMax="595" yMax="1713">
      <contour>
        <pt x="303" y="1376" on="1"/>
        <pt x="435" y="1713" on="1"/>
        <pt x="531" y="1674" on="1"/>
        <pt x="348" y="1350" on="1"/>
      </contour>
      <contour>
        <pt x="121" y="1205" on="1"/>
        <pt x="127" y="1244" on="1"/>
        <pt x="584" y="1244" on="1"/>
        <pt x="577" y="1205" on="1"/>
        <pt x="402" y="1182" on="1"/>
        <pt x="402" y="65" on="1"/>
        <pt x="595" y="46" on="1"/>
        <pt x="586" y="0" on="1"/>
        <pt x="131" y="0" on="1"/>
        <pt x="136" y="42" on="1"/>
        <pt x="294" y="72" on="1"/>
        <pt x="294" y="1180" on="1"/>
      </contour>
    </TTGlyph>
    <TTGlyph name="Icircumflex" xMin="121" yMin="0" xMax="595" yMax="1588">
      <contour>
        <pt x="148" y="1394" on="1"/>
        <pt x="315" y="1575" on="1"/>
        <pt x="369" y="1588" on="1"/>
        <pt x="548" y="1402" on="1"/>
        <pt x="516" y="1365" on="1"/>
        <pt x="335" y="1500" on="1"/>
        <pt x="326" y="1500" on="1"/>
        <pt x="169" y="1364" on="1"/>
      </contour>
      <contour>
        <pt x="121" y="1205" on="1"/>
        <pt x="127" y="1244" on="1"/>
        <pt x="584" y="1244" on="1"/>
        <pt x="577" y="1205" on="1"/>
        <pt x="402" y="1182" on="1"/>
        <pt x="402" y="65" on="1"/>
        <pt x="595" y="46" on="1"/>
        <pt x="586" y="0" on="1"/>
        <pt x="131" y="0" on="1"/>
        <pt x="136" y="42" on="1"/>
        <pt x="294" y="72" on="1"/>
        <pt x="294" y="1180" on="1"/>
      </contour>
    </TTGlyph>
    <TTGlyph name="Idieresis" xMin="121" yMin="0" xMax="595" yMax="1532">
      <contour>
        <pt x="432" y="1373" on="0"/>
        <pt x="432" y="1532" on="0"/>
        <pt x="544" y="1532" on="0"/>
        <pt x="544" y="1373" on="0"/>
      </contour>
      <contour>
        <pt x="220" y="1373" on="1"/>
        <pt x="163" y="1373" on="0"/>
        <pt x="163" y="1532" on="0"/>
        <pt x="276" y="1532" on="0"/>
        <pt x="276" y="1454" on="1"/>
        <pt x="276" y="1413" on="0"/>
        <pt x="251" y="1373" on="0"/>
      </contour>
      <contour>
        <pt x="121" y="1205" on="1"/>
        <pt x="127" y="1244" on="1"/>
        <pt x="584" y="1244" on="1"/>
        <pt x="577" y="1205" on="1"/>
        <pt x="402" y="1182" on="1"/>
        <pt x="402" y="65" on="1"/>
        <pt x="595" y="46" on="1"/>
        <pt x="586" y="0" on="1"/>
        <pt x="131" y="0" on="1"/>
        <pt x="136" y="42" on="1"/>
        <pt x="294" y="72" on="1"/>
        <pt x="294" y="1180" on="1"/>
      </contour>
    </TTGlyph>
    <TTGlyph name="Idotaccent" xMin="121" yMin="0" xMax="595" yMax="1582">
      <contour>
        <pt x="414" y="1382" on="0"/>
        <pt x="288" y="1382" on="0"/>
        <pt x="288" y="1582" on="0"/>
        <pt x="414" y="1582" on="0"/>
      </contour>
      <contour>
        <pt x="121" y="1205" on="1"/>
        <pt x="127" y="1244" on="1"/>
        <pt x="584" y="1244" on="1"/>
        <pt x="577" y="1205" on="1"/>
        <pt x="402" y="1182" on="1"/>
        <pt x="402" y="65" on="1"/>
        <pt x="595" y="46" on="1"/>
        <pt x="586" y="0" on="1"/>
        <pt x="131" y="0" on="1"/>
        <pt x="136" y="42" on="1"/>
        <pt x="294" y="72" on="1"/>
        <pt x="294" y="1180" on="1"/>
      </contour>
    </TTGlyph>
    <TTGlyph name="Igrave" xMin="121" yMin="0" xMax="595" yMax="1704">
      <contour>
        <pt x="173" y="1667" on="1"/>
        <pt x="267" y="1704" on="1"/>
        <pt x="400" y="1368" on="1"/>
        <pt x="354" y="1341" on="1"/>
      </contour>
      <contour>
        <pt x="121" y="1205" on="1"/>
        <pt x="127" y="1244" on="1"/>
        <pt x="584" y="1244" on="1"/>
        <pt x="577" y="1205" on="1"/>
        <pt x="402" y="1182" on="1"/>
        <pt x="402" y="65" on="1"/>
        <pt x="595" y="46" on="1"/>
        <pt x="586" y="0" on="1"/>
        <pt x="131" y="0" on="1"/>
        <pt x="136" y="42" on="1"/>
        <pt x="294" y="72" on="1"/>
        <pt x="294" y="1180" on="1"/>
      </contour>
    </TTGlyph>
    <TTGlyph name="Imacron" xMin="121" yMin="0" xMax="595" yMax="1438">
      <contour>
        <pt x="127" y="1386" on="1"/>
        <pt x="136" y="1438" on="1"/>
        <pt x="576" y="1438" on="1"/>
        <pt x="568" y="1386" on="1"/>
      </contour>
      <contour>
        <pt x="121" y="1205" on="1"/>
        <pt x="127" y="1244" on="1"/>
        <pt x="584" y="1244" on="1"/>
        <pt x="577" y="1205" on="1"/>
        <pt x="402" y="1182" on="1"/>
        <pt x="402" y="65" on="1"/>
        <pt x="595" y="46" on="1"/>
        <pt x="586" y="0" on="1"/>
        <pt x="131" y="0" on="1"/>
        <pt x="136" y="42" on="1"/>
        <pt x="294" y="72" on="1"/>
        <pt x="294" y="1180" on="1"/>
      </contour>
    </TTGlyph>
    <TTGlyph name="Iogonek" xMin="121" yMin="-387" xMax="622" yMax="1244">
      <contour>
        <pt x="383" y="-209" on="1"/>
        <pt x="383" y="-117" on="0"/>
        <pt x="509" y="0" on="1"/>
        <pt x="131" y="0" on="1"/>
        <pt x="136" y="42" on="1"/>
        <pt x="294" y="72" on="1"/>
        <pt x="294" y="1180" on="1"/>
        <pt x="121" y="1205" on="1"/>
        <pt x="127" y="1244" on="1"/>
        <pt x="584" y="1244" on="1"/>
        <pt x="577" y="1205" on="1"/>
        <pt x="402" y="1182" on="1"/>
        <pt x="402" y="65" on="1"/>
        <pt x="595" y="46" on="1"/>
        <pt x="586" y="0" on="1"/>
        <pt x="559" y="0" on="1"/>
        <pt x="481" y="-97" on="0"/>
        <pt x="481" y="-225" on="0"/>
        <pt x="550" y="-311" on="0"/>
        <pt x="622" y="-353" on="1"/>
        <pt x="589" y="-387" on="1"/>
        <pt x="487" y="-376" on="0"/>
        <pt x="383" y="-277" on="0"/>
      </contour>
    </TTGlyph>
    <TTGlyph name="J" xMin="42" yMin="-325" xMax="577" yMax="1244">
      <contour>
        <pt x="42" y="-281" on="1"/>
        <pt x="175" y="-168" on="0"/>
        <pt x="293" y="80" on="0"/>
        <pt x="293" y="282" on="1"/>
        <pt x="293" y="1180" on="1"/>
        <pt x="113" y="1205" on="1"/>
        <pt x="118" y="1244" on="1"/>
        <pt x="577" y="1244" on="1"/>
        <pt x="571" y="1205" on="1"/>
        <pt x="404" y="1182" on="1"/>
        <pt x="400" y="360" on="1"/>
        <pt x="399" y="212" on="0"/>
        <pt x="366" y="15" on="0"/>
        <pt x="281" y="-143" on="0"/>
        <pt x="164" y="-255" on="0"/>
        <pt x="64" y="-325" on="1"/>
      </contour>
    </TTGlyph>
    <TTGlyph name="K" xMin="120" yMin="-12" xMax="1223" yMax="1244">
      <contour>
        <pt x="455" y="619" on="1"/>
        <pt x="549" y="720" on="0"/>
        <pt x="602" y="783" on="1"/>
        <pt x="933" y="1180" on="1"/>
        <pt x="760" y="1205" on="1"/>
        <pt x="764" y="1244" on="1"/>
        <pt x="1171" y="1244" on="1"/>
        <pt x="1168" y="1205" on="1"/>
        <pt x="1015" y="1182" on="1"/>
        <pt x="559" y="629" on="1"/>
        <pt x="821" y="321" on="1"/>
        <pt x="937" y="185" on="0"/>
        <pt x="1084" y="67" on="0"/>
        <pt x="1169" y="54" on="1"/>
        <pt x="1223" y="46" on="1"/>
        <pt x="1211" y="3" on="1"/>
        <pt x="1172" y="-10" on="0"/>
        <pt x="1165" y="-12" on="1"/>
        <pt x="1047" y="-55" on="0"/>
        <pt x="924" y="54" on="1"/>
        <pt x="878" y="94" on="0"/>
        <pt x="846" y="129" on="1"/>
        <pt x="760" y="230" on="1"/>
        <pt x="457" y="604" on="1"/>
      </contour>
      <contour>
        <pt x="120" y="1205" on="1"/>
        <pt x="125" y="1244" on="1"/>
        <pt x="574" y="1244" on="1"/>
        <pt x="571" y="1205" on="1"/>
        <pt x="401" y="1182" on="1"/>
        <pt x="401" y="65" on="1"/>
        <pt x="587" y="46" on="1"/>
        <pt x="576" y="0" on="1"/>
        <pt x="130" y="0" on="1"/>
        <pt x="136" y="42" on="1"/>
        <pt x="293" y="72" on="1"/>
        <pt x="293" y="1180" on="1"/>
      </contour>
    </TTGlyph>
    <TTGlyph name="Kcommaaccent" xMin="120" yMin="-411" xMax="1223" yMax="1244">
      <contour>
        <pt x="628" y="-374" on="1"/>
        <pt x="688" y="-360" on="0"/>
        <pt x="754" y="-301" on="0"/>
        <pt x="754" y="-262" on="1"/>
        <pt x="754" y="-179" on="0"/>
        <pt x="649" y="-172" on="1"/>
        <pt x="649" y="-148" on="0"/>
        <pt x="693" y="-106" on="0"/>
        <pt x="771" y="-106" on="0"/>
        <pt x="830" y="-170" on="0"/>
        <pt x="830" y="-262" on="0"/>
        <pt x="798" y="-332" on="0"/>
        <pt x="710" y="-398" on="0"/>
        <pt x="644" y="-411" on="1"/>
      </contour>
      <contour>
        <pt x="455" y="619" on="1"/>
        <pt x="549" y="720" on="0"/>
        <pt x="602" y="783" on="1"/>
        <pt x="933" y="1180" on="1"/>
        <pt x="760" y="1205" on="1"/>
        <pt x="764" y="1244" on="1"/>
        <pt x="1171" y="1244" on="1"/>
        <pt x="1168" y="1205" on="1"/>
        <pt x="1015" y="1182" on="1"/>
        <pt x="559" y="629" on="1"/>
        <pt x="821" y="321" on="1"/>
        <pt x="937" y="185" on="0"/>
        <pt x="1084" y="67" on="0"/>
        <pt x="1169" y="54" on="1"/>
        <pt x="1223" y="46" on="1"/>
        <pt x="1211" y="3" on="1"/>
        <pt x="1172" y="-10" on="0"/>
        <pt x="1165" y="-12" on="1"/>
        <pt x="1047" y="-55" on="0"/>
        <pt x="924" y="54" on="1"/>
        <pt x="878" y="94" on="0"/>
        <pt x="846" y="129" on="1"/>
        <pt x="760" y="230" on="1"/>
        <pt x="457" y="604" on="1"/>
      </contour>
      <contour>
        <pt x="120" y="1205" on="1"/>
        <pt x="125" y="1244" on="1"/>
        <pt x="574" y="1244" on="1"/>
        <pt x="571" y="1205" on="1"/>
        <pt x="401" y="1182" on="1"/>
        <pt x="401" y="65" on="1"/>
        <pt x="587" y="46" on="1"/>
        <pt x="576" y="0" on="1"/>
        <pt x="130" y="0" on="1"/>
        <pt x="136" y="42" on="1"/>
        <pt x="293" y="72" on="1"/>
        <pt x="293" y="1180" on="1"/>
      </contour>
    </TTGlyph>
    <TTGlyph name="L" xMin="131" yMin="0" xMax="1063" yMax="1243">
      <contour>
        <pt x="131" y="0" on="1"/>
        <pt x="136" y="42" on="1"/>
        <pt x="305" y="72" on="1"/>
        <pt x="305" y="1178" on="1"/>
        <pt x="133" y="1203" on="1"/>
        <pt x="137" y="1243" on="1"/>
        <pt x="592" y="1243" on="1"/>
        <pt x="588" y="1203" on="1"/>
        <pt x="412" y="1182" on="1"/>
        <pt x="412" y="54" on="1"/>
        <pt x="942" y="54" on="1"/>
        <pt x="1019" y="338" on="1"/>
        <pt x="1063" y="330" on="1"/>
        <pt x="1031" y="0" on="1"/>
      </contour>
    </TTGlyph>
    <TTGlyph name="Lacute" xMin="131" yMin="0" xMax="1063" yMax="1713">
      <contour>
        <pt x="303" y="1376" on="1"/>
        <pt x="435" y="1713" on="1"/>
        <pt x="531" y="1674" on="1"/>
        <pt x="348" y="1350" on="1"/>
      </contour>
      <contour>
        <pt x="131" y="0" on="1"/>
        <pt x="136" y="42" on="1"/>
        <pt x="305" y="72" on="1"/>
        <pt x="305" y="1178" on="1"/>
        <pt x="133" y="1203" on="1"/>
        <pt x="137" y="1243" on="1"/>
        <pt x="592" y="1243" on="1"/>
        <pt x="588" y="1203" on="1"/>
        <pt x="412" y="1182" on="1"/>
        <pt x="412" y="54" on="1"/>
        <pt x="942" y="54" on="1"/>
        <pt x="1019" y="338" on="1"/>
        <pt x="1063" y="330" on="1"/>
        <pt x="1031" y="0" on="1"/>
      </contour>
    </TTGlyph>
    <TTGlyph name="Lcaron" xMin="131" yMin="0" xMax="1063" yMax="1281">
      <contour>
        <pt x="660" y="827" on="1"/>
        <pt x="761" y="867" on="0"/>
        <pt x="838" y="966" on="0"/>
        <pt x="838" y="1097" on="0"/>
        <pt x="775" y="1175" on="0"/>
        <pt x="729" y="1175" on="1"/>
        <pt x="711" y="1175" on="0"/>
        <pt x="702" y="1171" on="1"/>
        <pt x="699" y="1180" on="0"/>
        <pt x="699" y="1231" on="0"/>
        <pt x="752" y="1281" on="0"/>
        <pt x="855" y="1281" on="0"/>
        <pt x="938" y="1171" on="0"/>
        <pt x="938" y="996" on="0"/>
        <pt x="824" y="831" on="0"/>
        <pt x="672" y="782" on="1"/>
      </contour>
      <contour>
        <pt x="131" y="0" on="1"/>
        <pt x="136" y="42" on="1"/>
        <pt x="305" y="72" on="1"/>
        <pt x="305" y="1178" on="1"/>
        <pt x="133" y="1203" on="1"/>
        <pt x="137" y="1243" on="1"/>
        <pt x="592" y="1243" on="1"/>
        <pt x="588" y="1203" on="1"/>
        <pt x="412" y="1182" on="1"/>
        <pt x="412" y="54" on="1"/>
        <pt x="942" y="54" on="1"/>
        <pt x="1019" y="338" on="1"/>
        <pt x="1063" y="330" on="1"/>
        <pt x="1031" y="0" on="1"/>
      </contour>
    </TTGlyph>
    <TTGlyph name="Lcommaaccent" xMin="131" yMin="-375" xMax="1063" yMax="1243">
      <contour>
        <pt x="504" y="-338" on="1"/>
        <pt x="564" y="-324" on="0"/>
        <pt x="630" y="-265" on="0"/>
        <pt x="630" y="-226" on="1"/>
        <pt x="630" y="-143" on="0"/>
        <pt x="525" y="-136" on="1"/>
        <pt x="525" y="-112" on="0"/>
        <pt x="569" y="-70" on="0"/>
        <pt x="647" y="-70" on="0"/>
        <pt x="706" y="-134" on="0"/>
        <pt x="706" y="-226" on="0"/>
        <pt x="674" y="-296" on="0"/>
        <pt x="586" y="-362" on="0"/>
        <pt x="520" y="-375" on="1"/>
      </contour>
      <contour>
        <pt x="131" y="0" on="1"/>
        <pt x="136" y="42" on="1"/>
        <pt x="305" y="72" on="1"/>
        <pt x="305" y="1178" on="1"/>
        <pt x="133" y="1203" on="1"/>
        <pt x="137" y="1243" on="1"/>
        <pt x="592" y="1243" on="1"/>
        <pt x="588" y="1203" on="1"/>
        <pt x="412" y="1182" on="1"/>
        <pt x="412" y="54" on="1"/>
        <pt x="942" y="54" on="1"/>
        <pt x="1019" y="338" on="1"/>
        <pt x="1063" y="330" on="1"/>
        <pt x="1031" y="0" on="1"/>
      </contour>
    </TTGlyph>
    <TTGlyph name="Lslash" xMin="118" yMin="0" xMax="1063" yMax="1243">
      <contour>
        <pt x="118" y="475" on="1"/>
        <pt x="131" y="558" on="1"/>
        <pt x="305" y="659" on="1"/>
        <pt x="305" y="1178" on="1"/>
        <pt x="133" y="1203" on="1"/>
        <pt x="137" y="1243" on="1"/>
        <pt x="592" y="1243" on="1"/>
        <pt x="588" y="1203" on="1"/>
        <pt x="412" y="1182" on="1"/>
        <pt x="412" y="721" on="1"/>
        <pt x="622" y="843" on="1"/>
        <pt x="609" y="763" on="1"/>
        <pt x="412" y="647" on="1"/>
        <pt x="412" y="54" on="1"/>
        <pt x="942" y="54" on="1"/>
        <pt x="1019" y="338" on="1"/>
        <pt x="1063" y="330" on="1"/>
        <pt x="1031" y="0" on="1"/>
        <pt x="131" y="0" on="1"/>
        <pt x="136" y="42" on="1"/>
        <pt x="305" y="72" on="1"/>
        <pt x="305" y="585" on="1"/>
      </contour>
    </TTGlyph>
    <TTGlyph name="M" xMin="78" yMin="0" xMax="1663" yMax="1244">
      <contour>
        <pt x="78" y="0" on="1"/>
        <pt x="83" y="33" on="1"/>
        <pt x="250" y="64" on="1"/>
        <pt x="333" y="1175" on="1"/>
        <pt x="149" y="1208" on="1"/>
        <pt x="156" y="1244" on="1"/>
        <pt x="475" y="1244" on="1"/>
        <pt x="860" y="227" on="1"/>
        <pt x="1279" y="1244" on="1"/>
        <pt x="1605" y="1244" on="1"/>
        <pt x="1600" y="1208" on="1"/>
        <pt x="1428" y="1178" on="1"/>
        <pt x="1483" y="57" on="1"/>
        <pt x="1663" y="40" on="1"/>
        <pt x="1661" y="0" on="1"/>
        <pt x="1199" y="0" on="1"/>
        <pt x="1205" y="33" on="1"/>
        <pt x="1376" y="64" on="1"/>
        <pt x="1319" y="1169" on="1"/>
        <pt x="854" y="60" on="1"/>
        <pt x="804" y="50" on="1"/>
        <pt x="396" y="1151" on="1"/>
        <pt x="317" y="57" on="1"/>
        <pt x="498" y="40" on="1"/>
        <pt x="492" y="0" on="1"/>
      </contour>
    </TTGlyph>
    <TTGlyph name="N" xMin="76" yMin="-18" xMax="1325" yMax="1244">
      <contour>
        <pt x="76" y="1208" on="1"/>
        <pt x="84" y="1244" on="1"/>
        <pt x="387" y="1244" on="1"/>
        <pt x="1078" y="179" on="1"/>
        <pt x="1078" y="1180" on="1"/>
        <pt x="895" y="1205" on="1"/>
        <pt x="901" y="1244" on="1"/>
        <pt x="1325" y="1244" on="1"/>
        <pt x="1317" y="1205" on="1"/>
        <pt x="1151" y="1182" on="1"/>
        <pt x="1151" y="-7" on="1"/>
        <pt x="1097" y="-18" on="1"/>
        <pt x="335" y="1133" on="1"/>
        <pt x="335" y="65" on="1"/>
        <pt x="519" y="46" on="1"/>
        <pt x="509" y="0" on="1"/>
        <pt x="88" y="0" on="1"/>
        <pt x="94" y="42" on="1"/>
        <pt x="261" y="72" on="1"/>
        <pt x="261" y="1175" on="1"/>
      </contour>
    </TTGlyph>
    <TTGlyph name="Nacute" xMin="76" yMin="-18" xMax="1325" yMax="1713">
      <contour>
        <pt x="619" y="1376" on="1"/>
        <pt x="751" y="1713" on="1"/>
        <pt x="847" y="1674" on="1"/>
        <pt x="664" y="1350" on="1"/>
      </contour>
      <contour>
        <pt x="76" y="1208" on="1"/>
        <pt x="84" y="1244" on="1"/>
        <pt x="387" y="1244" on="1"/>
        <pt x="1078" y="179" on="1"/>
        <pt x="1078" y="1180" on="1"/>
        <pt x="895" y="1205" on="1"/>
        <pt x="901" y="1244" on="1"/>
        <pt x="1325" y="1244" on="1"/>
        <pt x="1317" y="1205" on="1"/>
        <pt x="1151" y="1182" on="1"/>
        <pt x="1151" y="-7" on="1"/>
        <pt x="1097" y="-18" on="1"/>
        <pt x="335" y="1133" on="1"/>
        <pt x="335" y="65" on="1"/>
        <pt x="519" y="46" on="1"/>
        <pt x="509" y="0" on="1"/>
        <pt x="88" y="0" on="1"/>
        <pt x="94" y="42" on="1"/>
        <pt x="261" y="72" on="1"/>
        <pt x="261" y="1175" on="1"/>
      </contour>
    </TTGlyph>
    <TTGlyph name="Ncaron" xMin="76" yMin="-18" xMax="1325" yMax="1592">
      <contour>
        <pt x="491" y="1543" on="1"/>
        <pt x="546" y="1592" on="1"/>
        <pt x="712" y="1423" on="1"/>
        <pt x="721" y="1423" on="1"/>
        <pt x="864" y="1588" on="1"/>
        <pt x="900" y="1561" on="1"/>
        <pt x="726" y="1377" on="1"/>
        <pt x="670" y="1363" on="1"/>
      </contour>
      <contour>
        <pt x="76" y="1208" on="1"/>
        <pt x="84" y="1244" on="1"/>
        <pt x="387" y="1244" on="1"/>
        <pt x="1078" y="179" on="1"/>
        <pt x="1078" y="1180" on="1"/>
        <pt x="895" y="1205" on="1"/>
        <pt x="901" y="1244" on="1"/>
        <pt x="1325" y="1244" on="1"/>
        <pt x="1317" y="1205" on="1"/>
        <pt x="1151" y="1182" on="1"/>
        <pt x="1151" y="-7" on="1"/>
        <pt x="1097" y="-18" on="1"/>
        <pt x="335" y="1133" on="1"/>
        <pt x="335" y="65" on="1"/>
        <pt x="519" y="46" on="1"/>
        <pt x="509" y="0" on="1"/>
        <pt x="88" y="0" on="1"/>
        <pt x="94" y="42" on="1"/>
        <pt x="261" y="72" on="1"/>
        <pt x="261" y="1175" on="1"/>
      </contour>
    </TTGlyph>
    <TTGlyph name="Ncommaaccent" xMin="76" yMin="-390" xMax="1325" yMax="1244">
      <contour>
        <pt x="615" y="-353" on="1"/>
        <pt x="675" y="-339" on="0"/>
        <pt x="741" y="-280" on="0"/>
        <pt x="741" y="-241" on="1"/>
        <pt x="741" y="-158" on="0"/>
        <pt x="636" y="-151" on="1"/>
        <pt x="636" y="-127" on="0"/>
        <pt x="680" y="-85" on="0"/>
        <pt x="758" y="-85" on="0"/>
        <pt x="817" y="-149" on="0"/>
        <pt x="817" y="-241" on="0"/>
        <pt x="785" y="-311" on="0"/>
        <pt x="697" y="-377" on="0"/>
        <pt x="631" y="-390" on="1"/>
      </contour>
      <contour>
        <pt x="76" y="1208" on="1"/>
        <pt x="84" y="1244" on="1"/>
        <pt x="387" y="1244" on="1"/>
        <pt x="1078" y="179" on="1"/>
        <pt x="1078" y="1180" on="1"/>
        <pt x="895" y="1205" on="1"/>
        <pt x="901" y="1244" on="1"/>
        <pt x="1325" y="1244" on="1"/>
        <pt x="1317" y="1205" on="1"/>
        <pt x="1151" y="1182" on="1"/>
        <pt x="1151" y="-7" on="1"/>
        <pt x="1097" y="-18" on="1"/>
        <pt x="335" y="1133" on="1"/>
        <pt x="335" y="65" on="1"/>
        <pt x="519" y="46" on="1"/>
        <pt x="509" y="0" on="1"/>
        <pt x="88" y="0" on="1"/>
        <pt x="94" y="42" on="1"/>
        <pt x="261" y="72" on="1"/>
        <pt x="261" y="1175" on="1"/>
      </contour>
    </TTGlyph>
    <TTGlyph name="Ntilde" xMin="76" yMin="-18" xMax="1325" yMax="1537">
      <contour>
        <pt x="442" y="1389" on="1"/>
        <pt x="442" y="1407" on="0"/>
        <pt x="474" y="1473" on="0"/>
        <pt x="482" y="1483" on="1"/>
        <pt x="538" y="1549" on="0"/>
        <pt x="600" y="1524" on="1"/>
        <pt x="781" y="1470" on="1"/>
        <pt x="813" y="1460" on="0"/>
        <pt x="861" y="1494" on="0"/>
        <pt x="869" y="1516" on="1"/>
        <pt x="877" y="1537" on="1"/>
        <pt x="911" y="1535" on="1"/>
        <pt x="910" y="1533" on="0"/>
        <pt x="901" y="1502" on="0"/>
        <pt x="896" y="1492" on="1"/>
        <pt x="884" y="1467" on="1"/>
        <pt x="873" y="1447" on="0"/>
        <pt x="853" y="1427" on="1"/>
        <pt x="803" y="1379" on="0"/>
        <pt x="745" y="1401" on="1"/>
        <pt x="569" y="1453" on="1"/>
        <pt x="541" y="1462" on="0"/>
        <pt x="491" y="1424" on="0"/>
        <pt x="480" y="1400" on="1"/>
        <pt x="470" y="1377" on="1"/>
      </contour>
      <contour>
        <pt x="76" y="1208" on="1"/>
        <pt x="84" y="1244" on="1"/>
        <pt x="387" y="1244" on="1"/>
        <pt x="1078" y="179" on="1"/>
        <pt x="1078" y="1180" on="1"/>
        <pt x="895" y="1205" on="1"/>
        <pt x="901" y="1244" on="1"/>
        <pt x="1325" y="1244" on="1"/>
        <pt x="1317" y="1205" on="1"/>
        <pt x="1151" y="1182" on="1"/>
        <pt x="1151" y="-7" on="1"/>
        <pt x="1097" y="-18" on="1"/>
        <pt x="335" y="1133" on="1"/>
        <pt x="335" y="65" on="1"/>
        <pt x="519" y="46" on="1"/>
        <pt x="509" y="0" on="1"/>
        <pt x="88" y="0" on="1"/>
        <pt x="94" y="42" on="1"/>
        <pt x="261" y="72" on="1"/>
        <pt x="261" y="1175" on="1"/>
      </contour>
    </TTGlyph>
    <TTGlyph name="O" xMin="162" yMin="-27" xMax="1273" yMax="1274">
      <contour>
        <pt x="272" y="679" on="1"/>
        <pt x="272" y="290" on="0"/>
        <pt x="483" y="121" on="1"/>
        <pt x="588" y="37" on="0"/>
        <pt x="731" y="37" on="1"/>
        <pt x="972" y="37" on="0"/>
        <pt x="1096" y="280" on="1"/>
        <pt x="1165" y="416" on="0"/>
        <pt x="1165" y="573" on="1"/>
        <pt x="1165" y="862" on="0"/>
        <pt x="916" y="1218" on="0"/>
        <pt x="704" y="1218" on="1"/>
        <pt x="459" y="1218" on="0"/>
        <pt x="340" y="982" on="1"/>
        <pt x="272" y="846" on="0"/>
      </contour>
      <contour>
        <pt x="162" y="620" on="1"/>
        <pt x="162" y="912" on="0"/>
        <pt x="483" y="1274" on="0"/>
        <pt x="752" y="1274" on="1"/>
        <pt x="918" y="1274" on="0"/>
        <pt x="1038" y="1188" on="1"/>
        <pt x="1273" y="1020" on="0"/>
        <pt x="1273" y="627" on="1"/>
        <pt x="1273" y="429" on="0"/>
        <pt x="1182" y="265" on="1"/>
        <pt x="1018" y="-27" on="0"/>
        <pt x="683" y="-27" on="1"/>
        <pt x="529" y="-27" on="0"/>
        <pt x="288" y="150" on="0"/>
        <pt x="162" y="443" on="0"/>
      </contour>
    </TTGlyph>
    <TTGlyph name="OE" xMin="64" yMin="-27" xMax="1531" yMax="1274">
      <contour>
        <pt x="172" y="494" on="0"/>
        <pt x="281" y="201" on="0"/>
        <pt x="492" y="31" on="0"/>
        <pt x="632" y="31" on="1"/>
        <pt x="721" y="31" on="0"/>
        <pt x="788" y="63" on="1"/>
        <pt x="788" y="1151" on="1"/>
        <pt x="709" y="1218" on="0"/>
        <pt x="522" y="1218" on="0"/>
        <pt x="450" y="1187" on="1"/>
        <pt x="318" y="1131" on="0"/>
        <pt x="172" y="845" on="0"/>
      </contour>
      <contour>
        <pt x="191" y="150" on="0"/>
        <pt x="64" y="443" on="0"/>
        <pt x="64" y="812" on="0"/>
        <pt x="207" y="1108" on="0"/>
        <pt x="476" y="1274" on="0"/>
        <pt x="655" y="1274" on="1"/>
        <pt x="755" y="1274" on="0"/>
        <pt x="832" y="1245" on="1"/>
        <pt x="1483" y="1244" on="1"/>
        <pt x="1453" y="925" on="1"/>
        <pt x="1407" y="931" on="1"/>
        <pt x="1386" y="1193" on="1"/>
        <pt x="894" y="1193" on="1"/>
        <pt x="894" y="659" on="1"/>
        <pt x="1192" y="659" on="1"/>
        <pt x="1229" y="798" on="1"/>
        <pt x="1280" y="806" on="1"/>
        <pt x="1246" y="417" on="1"/>
        <pt x="1200" y="408" on="1"/>
        <pt x="1182" y="605" on="1"/>
        <pt x="894" y="605" on="1"/>
        <pt x="894" y="54" on="1"/>
        <pt x="1416" y="54" on="1"/>
        <pt x="1488" y="323" on="1"/>
        <pt x="1531" y="313" on="1"/>
        <pt x="1499" y="0" on="1"/>
        <pt x="785" y="0" on="1"/>
        <pt x="666" y="-27" on="0"/>
        <pt x="586" y="-27" on="1"/>
        <pt x="432" y="-27" on="0"/>
      </contour>
    </TTGlyph>
    <TTGlyph name="Oacute" xMin="162" yMin="-27" xMax="1273" yMax="1713">
      <contour>
        <pt x="640" y="1376" on="1"/>
        <pt x="772" y="1713" on="1"/>
        <pt x="868" y="1674" on="1"/>
        <pt x="685" y="1350" on="1"/>
      </contour>
      <contour>
        <pt x="272" y="679" on="1"/>
        <pt x="272" y="290" on="0"/>
        <pt x="483" y="121" on="1"/>
        <pt x="588" y="37" on="0"/>
        <pt x="731" y="37" on="1"/>
        <pt x="972" y="37" on="0"/>
        <pt x="1096" y="280" on="1"/>
        <pt x="1165" y="416" on="0"/>
        <pt x="1165" y="573" on="1"/>
        <pt x="1165" y="862" on="0"/>
        <pt x="916" y="1218" on="0"/>
        <pt x="704" y="1218" on="1"/>
        <pt x="459" y="1218" on="0"/>
        <pt x="340" y="982" on="1"/>
        <pt x="272" y="846" on="0"/>
      </contour>
      <contour>
        <pt x="162" y="620" on="1"/>
        <pt x="162" y="912" on="0"/>
        <pt x="483" y="1274" on="0"/>
        <pt x="752" y="1274" on="1"/>
        <pt x="918" y="1274" on="0"/>
        <pt x="1038" y="1188" on="1"/>
        <pt x="1273" y="1020" on="0"/>
        <pt x="1273" y="627" on="1"/>
        <pt x="1273" y="429" on="0"/>
        <pt x="1182" y="265" on="1"/>
        <pt x="1018" y="-27" on="0"/>
        <pt x="683" y="-27" on="1"/>
        <pt x="529" y="-27" on="0"/>
        <pt x="288" y="150" on="0"/>
        <pt x="162" y="443" on="0"/>
      </contour>
    </TTGlyph>
    <TTGlyph name="Ocircumflex" xMin="162" yMin="-27" xMax="1273" yMax="1588">
      <contour>
        <pt x="514" y="1394" on="1"/>
        <pt x="681" y="1575" on="1"/>
        <pt x="735" y="1588" on="1"/>
        <pt x="914" y="1402" on="1"/>
        <pt x="882" y="1365" on="1"/>
        <pt x="701" y="1500" on="1"/>
        <pt x="692" y="1500" on="1"/>
        <pt x="535" y="1364" on="1"/>
      </contour>
      <contour>
        <pt x="272" y="679" on="1"/>
        <pt x="272" y="290" on="0"/>
        <pt x="483" y="121" on="1"/>
        <pt x="588" y="37" on="0"/>
        <pt x="731" y="37" on="1"/>
        <pt x="972" y="37" on="0"/>
        <pt x="1096" y="280" on="1"/>
        <pt x="1165" y="416" on="0"/>
        <pt x="1165" y="573" on="1"/>
        <pt x="1165" y="862" on="0"/>
        <pt x="916" y="1218" on="0"/>
        <pt x="704" y="1218" on="1"/>
        <pt x="459" y="1218" on="0"/>
        <pt x="340" y="982" on="1"/>
        <pt x="272" y="846" on="0"/>
      </contour>
      <contour>
        <pt x="162" y="620" on="1"/>
        <pt x="162" y="912" on="0"/>
        <pt x="483" y="1274" on="0"/>
        <pt x="752" y="1274" on="1"/>
        <pt x="918" y="1274" on="0"/>
        <pt x="1038" y="1188" on="1"/>
        <pt x="1273" y="1020" on="0"/>
        <pt x="1273" y="627" on="1"/>
        <pt x="1273" y="429" on="0"/>
        <pt x="1182" y="265" on="1"/>
        <pt x="1018" y="-27" on="0"/>
        <pt x="683" y="-27" on="1"/>
        <pt x="529" y="-27" on="0"/>
        <pt x="288" y="150" on="0"/>
        <pt x="162" y="443" on="0"/>
      </contour>
    </TTGlyph>
    <TTGlyph name="Odieresis" xMin="162" yMin="-27" xMax="1273" yMax="1532">
      <contour>
        <pt x="798" y="1373" on="0"/>
        <pt x="798" y="1532" on="0"/>
        <pt x="910" y="1532" on="0"/>
        <pt x="910" y="1373" on="0"/>
      </contour>
      <contour>
        <pt x="586" y="1373" on="1"/>
        <pt x="529" y="1373" on="0"/>
        <pt x="529" y="1532" on="0"/>
        <pt x="642" y="1532" on="0"/>
        <pt x="642" y="1454" on="1"/>
        <pt x="642" y="1413" on="0"/>
        <pt x="617" y="1373" on="0"/>
      </contour>
      <contour>
        <pt x="272" y="679" on="1"/>
        <pt x="272" y="290" on="0"/>
        <pt x="483" y="121" on="1"/>
        <pt x="588" y="37" on="0"/>
        <pt x="731" y="37" on="1"/>
        <pt x="972" y="37" on="0"/>
        <pt x="1096" y="280" on="1"/>
        <pt x="1165" y="416" on="0"/>
        <pt x="1165" y="573" on="1"/>
        <pt x="1165" y="862" on="0"/>
        <pt x="916" y="1218" on="0"/>
        <pt x="704" y="1218" on="1"/>
        <pt x="459" y="1218" on="0"/>
        <pt x="340" y="982" on="1"/>
        <pt x="272" y="846" on="0"/>
      </contour>
      <contour>
        <pt x="162" y="620" on="1"/>
        <pt x="162" y="912" on="0"/>
        <pt x="483" y="1274" on="0"/>
        <pt x="752" y="1274" on="1"/>
        <pt x="918" y="1274" on="0"/>
        <pt x="1038" y="1188" on="1"/>
        <pt x="1273" y="1020" on="0"/>
        <pt x="1273" y="627" on="1"/>
        <pt x="1273" y="429" on="0"/>
        <pt x="1182" y="265" on="1"/>
        <pt x="1018" y="-27" on="0"/>
        <pt x="683" y="-27" on="1"/>
        <pt x="529" y="-27" on="0"/>
        <pt x="288" y="150" on="0"/>
        <pt x="162" y="443" on="0"/>
      </contour>
    </TTGlyph>
    <TTGlyph name="Ograve" xMin="162" yMin="-27" xMax="1273" yMax="1704">
      <contour>
        <pt x="530" y="1667" on="1"/>
        <pt x="624" y="1704" on="1"/>
        <pt x="757" y="1368" on="1"/>
        <pt x="711" y="1341" on="1"/>
      </contour>
      <contour>
        <pt x="272" y="679" on="1"/>
        <pt x="272" y="290" on="0"/>
        <pt x="483" y="121" on="1"/>
        <pt x="588" y="37" on="0"/>
        <pt x="731" y="37" on="1"/>
        <pt x="972" y="37" on="0"/>
        <pt x="1096" y="280" on="1"/>
        <pt x="1165" y="416" on="0"/>
        <pt x="1165" y="573" on="1"/>
        <pt x="1165" y="862" on="0"/>
        <pt x="916" y="1218" on="0"/>
        <pt x="704" y="1218" on="1"/>
        <pt x="459" y="1218" on="0"/>
        <pt x="340" y="982" on="1"/>
        <pt x="272" y="846" on="0"/>
      </contour>
      <contour>
        <pt x="162" y="620" on="1"/>
        <pt x="162" y="912" on="0"/>
        <pt x="483" y="1274" on="0"/>
        <pt x="752" y="1274" on="1"/>
        <pt x="918" y="1274" on="0"/>
        <pt x="1038" y="1188" on="1"/>
        <pt x="1273" y="1020" on="0"/>
        <pt x="1273" y="627" on="1"/>
        <pt x="1273" y="429" on="0"/>
        <pt x="1182" y="265" on="1"/>
        <pt x="1018" y="-27" on="0"/>
        <pt x="683" y="-27" on="1"/>
        <pt x="529" y="-27" on="0"/>
        <pt x="288" y="150" on="0"/>
        <pt x="162" y="443" on="0"/>
      </contour>
    </TTGlyph>
    <TTGlyph name="Ohungarumlaut" xMin="162" yMin="-27" xMax="1273" yMax="1607">
      <contour>
        <pt x="735" y="1398" on="1"/>
        <pt x="992" y="1597" on="1"/>
        <pt x="1048" y="1533" on="1"/>
        <pt x="756" y="1365" on="1"/>
      </contour>
      <contour>
        <pt x="526" y="1398" on="1"/>
        <pt x="786" y="1607" on="1"/>
        <pt x="846" y="1537" on="1"/>
        <pt x="547" y="1365" on="1"/>
      </contour>
      <contour>
        <pt x="272" y="679" on="1"/>
        <pt x="272" y="290" on="0"/>
        <pt x="483" y="121" on="1"/>
        <pt x="588" y="37" on="0"/>
        <pt x="731" y="37" on="1"/>
        <pt x="972" y="37" on="0"/>
        <pt x="1096" y="280" on="1"/>
        <pt x="1165" y="416" on="0"/>
        <pt x="1165" y="573" on="1"/>
        <pt x="1165" y="862" on="0"/>
        <pt x="916" y="1218" on="0"/>
        <pt x="704" y="1218" on="1"/>
        <pt x="459" y="1218" on="0"/>
        <pt x="340" y="982" on="1"/>
        <pt x="272" y="846" on="0"/>
      </contour>
      <contour>
        <pt x="162" y="620" on="1"/>
        <pt x="162" y="912" on="0"/>
        <pt x="483" y="1274" on="0"/>
        <pt x="752" y="1274" on="1"/>
        <pt x="918" y="1274" on="0"/>
        <pt x="1038" y="1188" on="1"/>
        <pt x="1273" y="1020" on="0"/>
        <pt x="1273" y="627" on="1"/>
        <pt x="1273" y="429" on="0"/>
        <pt x="1182" y="265" on="1"/>
        <pt x="1018" y="-27" on="0"/>
        <pt x="683" y="-27" on="1"/>
        <pt x="529" y="-27" on="0"/>
        <pt x="288" y="150" on="0"/>
        <pt x="162" y="443" on="0"/>
      </contour>
    </TTGlyph>
    <TTGlyph name="Omacron" xMin="162" yMin="-27" xMax="1273" yMax="1438">
      <contour>
        <pt x="502" y="1386" on="1"/>
        <pt x="511" y="1438" on="1"/>
        <pt x="951" y="1438" on="1"/>
        <pt x="943" y="1386" on="1"/>
      </contour>
      <contour>
        <pt x="272" y="679" on="1"/>
        <pt x="272" y="290" on="0"/>
        <pt x="483" y="121" on="1"/>
        <pt x="588" y="37" on="0"/>
        <pt x="731" y="37" on="1"/>
        <pt x="972" y="37" on="0"/>
        <pt x="1096" y="280" on="1"/>
        <pt x="1165" y="416" on="0"/>
        <pt x="1165" y="573" on="1"/>
        <pt x="1165" y="862" on="0"/>
        <pt x="916" y="1218" on="0"/>
        <pt x="704" y="1218" on="1"/>
        <pt x="459" y="1218" on="0"/>
        <pt x="340" y="982" on="1"/>
        <pt x="272" y="846" on="0"/>
      </contour>
      <contour>
        <pt x="162" y="620" on="1"/>
        <pt x="162" y="912" on="0"/>
        <pt x="483" y="1274" on="0"/>
        <pt x="752" y="1274" on="1"/>
        <pt x="918" y="1274" on="0"/>
        <pt x="1038" y="1188" on="1"/>
        <pt x="1273" y="1020" on="0"/>
        <pt x="1273" y="627" on="1"/>
        <pt x="1273" y="429" on="0"/>
        <pt x="1182" y="265" on="1"/>
        <pt x="1018" y="-27" on="0"/>
        <pt x="683" y="-27" on="1"/>
        <pt x="529" y="-27" on="0"/>
        <pt x="288" y="150" on="0"/>
        <pt x="162" y="443" on="0"/>
      </contour>
    </TTGlyph>
    <TTGlyph name="Oslash" xMin="124" yMin="-27" xMax="1314" yMax="1274">
      <contour>
        <pt x="683" y="-27" on="1"/>
        <pt x="439" y="-27" on="0"/>
        <pt x="291" y="180" on="1"/>
        <pt x="208" y="92" on="1"/>
        <pt x="124" y="127" on="1"/>
        <pt x="254" y="240" on="1"/>
        <pt x="162" y="407" on="0"/>
        <pt x="162" y="620" on="1"/>
        <pt x="162" y="912" on="0"/>
        <pt x="483" y="1274" on="0"/>
        <pt x="1009" y="1274" on="0"/>
        <pt x="1147" y="1083" on="1"/>
        <pt x="1226" y="1161" on="1"/>
        <pt x="1314" y="1127" on="1"/>
        <pt x="1186" y="1022" on="1"/>
        <pt x="1273" y="862" on="0"/>
        <pt x="1273" y="429" on="0"/>
        <pt x="1182" y="265" on="1"/>
        <pt x="1018" y="-27" on="0"/>
      </contour>
      <contour>
        <pt x="367" y="261" on="1"/>
        <pt x="493" y="37" on="0"/>
        <pt x="972" y="37" on="0"/>
        <pt x="1096" y="280" on="1"/>
        <pt x="1165" y="416" on="0"/>
        <pt x="1165" y="790" on="0"/>
        <pt x="1092" y="950" on="1"/>
      </contour>
      <contour>
        <pt x="1069" y="995" on="1"/>
        <pt x="1009" y="1102" on="0"/>
        <pt x="822" y="1218" on="0"/>
        <pt x="619" y="1218" on="0"/>
        <pt x="547" y="1187" on="1"/>
        <pt x="415" y="1130" on="0"/>
        <pt x="272" y="846" on="0"/>
        <pt x="272" y="464" on="0"/>
        <pt x="343" y="308" on="1"/>
      </contour>
    </TTGlyph>
    <TTGlyph name="Otilde" xMin="162" yMin="-27" xMax="1273" yMax="1531">
      <contour>
        <pt x="272" y="679" on="1"/>
        <pt x="272" y="290" on="0"/>
        <pt x="483" y="121" on="1"/>
        <pt x="588" y="37" on="0"/>
        <pt x="731" y="37" on="1"/>
        <pt x="972" y="37" on="0"/>
        <pt x="1096" y="280" on="1"/>
        <pt x="1165" y="416" on="0"/>
        <pt x="1165" y="573" on="1"/>
        <pt x="1165" y="862" on="0"/>
        <pt x="916" y="1218" on="0"/>
        <pt x="704" y="1218" on="1"/>
        <pt x="459" y="1218" on="0"/>
        <pt x="340" y="982" on="1"/>
        <pt x="272" y="846" on="0"/>
      </contour>
      <contour>
        <pt x="162" y="620" on="1"/>
        <pt x="162" y="912" on="0"/>
        <pt x="483" y="1274" on="0"/>
        <pt x="752" y="1274" on="1"/>
        <pt x="918" y="1274" on="0"/>
        <pt x="1038" y="1188" on="1"/>
        <pt x="1273" y="1020" on="0"/>
        <pt x="1273" y="627" on="1"/>
        <pt x="1273" y="429" on="0"/>
        <pt x="1182" y="265" on="1"/>
        <pt x="1018" y="-27" on="0"/>
        <pt x="683" y="-27" on="1"/>
        <pt x="529" y="-27" on="0"/>
        <pt x="288" y="150" on="0"/>
        <pt x="162" y="443" on="0"/>
      </contour>
      <contour>
        <pt x="477" y="1383" on="1"/>
        <pt x="477" y="1401" on="0"/>
        <pt x="509" y="1467" on="0"/>
        <pt x="518" y="1477" on="1"/>
        <pt x="573" y="1543" on="0"/>
        <pt x="635" y="1518" on="1"/>
        <pt x="816" y="1464" on="1"/>
        <pt x="848" y="1454" on="0"/>
        <pt x="896" y="1488" on="0"/>
        <pt x="904" y="1510" on="1"/>
        <pt x="912" y="1531" on="1"/>
        <pt x="946" y="1529" on="1"/>
        <pt x="945" y="1527" on="0"/>
        <pt x="936" y="1496" on="0"/>
        <pt x="931" y="1486" on="1"/>
        <pt x="918" y="1461" on="1"/>
        <pt x="908" y="1441" on="0"/>
        <pt x="888" y="1421" on="1"/>
        <pt x="838" y="1373" on="0"/>
        <pt x="780" y="1395" on="1"/>
        <pt x="604" y="1447" on="1"/>
        <pt x="576" y="1456" on="0"/>
        <pt x="526" y="1418" on="0"/>
        <pt x="516" y="1394" on="1"/>
        <pt x="505" y="1371" on="1"/>
      </contour>
    </TTGlyph>
    <TTGlyph name="P" xMin="120" yMin="0" xMax="1018" yMax="1256">
      <contour>
        <pt x="120" y="0" on="1"/>
        <pt x="125" y="42" on="1"/>
        <pt x="283" y="72" on="1"/>
        <pt x="283" y="1153" on="1"/>
        <pt x="121" y="1175" on="1"/>
        <pt x="130" y="1211" on="1"/>
        <pt x="130" y="1211" on="0"/>
        <pt x="220" y="1226" on="1"/>
        <pt x="399" y="1256" on="0"/>
        <pt x="517" y="1256" on="1"/>
        <pt x="740" y="1256" on="0"/>
        <pt x="1018" y="1079" on="0"/>
        <pt x="1018" y="893" on="1"/>
        <pt x="1018" y="804" on="0"/>
        <pt x="936" y="648" on="0"/>
        <pt x="868" y="595" on="1"/>
        <pt x="725" y="482" on="0"/>
        <pt x="532" y="482" on="1"/>
        <pt x="492" y="482" on="0"/>
        <pt x="482" y="484" on="1"/>
        <pt x="472" y="526" on="1"/>
        <pt x="526" y="529" on="1"/>
        <pt x="802" y="540" on="0"/>
        <pt x="874" y="746" on="1"/>
        <pt x="894" y="804" on="0"/>
        <pt x="894" y="872" on="1"/>
        <pt x="894" y="1009" on="0"/>
        <pt x="695" y="1212" on="0"/>
        <pt x="503" y="1212" on="1"/>
        <pt x="393" y="1206" on="1"/>
        <pt x="393" y="66" on="1"/>
        <pt x="627" y="46" on="1"/>
        <pt x="619" y="0" on="1"/>
      </contour>
    </TTGlyph>
    <TTGlyph name="Q" xMin="171" yMin="-385" xMax="1280" yMax="1274">
      <contour>
        <pt x="499" y="1218" on="0"/>
        <pt x="275" y="911" on="0"/>
        <pt x="275" y="389" on="0"/>
        <pt x="558" y="32" on="0"/>
        <pt x="770" y="27" on="1"/>
        <pt x="935" y="61" on="0"/>
        <pt x="1176" y="378" on="0"/>
        <pt x="1176" y="573" on="1"/>
        <pt x="1176" y="869" on="0"/>
        <pt x="919" y="1218" on="0"/>
      </contour>
      <contour>
        <pt x="253" y="248" on="0"/>
        <pt x="171" y="485" on="0"/>
        <pt x="171" y="805" on="0"/>
        <pt x="307" y="1102" on="0"/>
        <pt x="571" y="1274" on="0"/>
        <pt x="749" y="1274" on="1"/>
        <pt x="1043" y="1274" on="0"/>
        <pt x="1192" y="1000" on="1"/>
        <pt x="1280" y="837" on="0"/>
        <pt x="1280" y="419" on="0"/>
        <pt x="1154" y="231" on="1"/>
        <pt x="1095" y="143" on="0"/>
        <pt x="917" y="12" on="0"/>
        <pt x="813" y="-12" on="1"/>
        <pt x="905" y="-214" on="0"/>
        <pt x="1048" y="-271" on="1"/>
        <pt x="1127" y="-303" on="0"/>
        <pt x="1252" y="-313" on="1"/>
        <pt x="1250" y="-316" on="0"/>
        <pt x="1244" y="-355" on="0"/>
        <pt x="1243" y="-358" on="1"/>
        <pt x="1184" y="-385" on="0"/>
        <pt x="1090" y="-385" on="1"/>
        <pt x="964" y="-385" on="0"/>
        <pt x="790" y="-177" on="0"/>
        <pt x="763" y="-22" on="1"/>
        <pt x="737" y="-25" on="0"/>
        <pt x="581" y="-25" on="0"/>
        <pt x="392" y="77" on="0"/>
      </contour>
    </TTGlyph>
    <TTGlyph name="R" xMin="160" yMin="-18" xMax="1223" yMax="1253">
      <contour>
        <pt x="426" y="627" on="1"/>
        <pt x="653" y="627" on="1"/>
        <pt x="753" y="664" on="0"/>
        <pt x="887" y="834" on="0"/>
        <pt x="887" y="933" on="1"/>
        <pt x="887" y="1066" on="0"/>
        <pt x="706" y="1207" on="0"/>
        <pt x="547" y="1207" on="1"/>
        <pt x="426" y="1202" on="1"/>
      </contour>
      <contour>
        <pt x="160" y="0" on="1"/>
        <pt x="167" y="42" on="1"/>
        <pt x="323" y="72" on="1"/>
        <pt x="323" y="1153" on="1"/>
        <pt x="163" y="1174" on="1"/>
        <pt x="172" y="1210" on="1"/>
        <pt x="439" y="1253" on="0"/>
        <pt x="709" y="1253" on="0"/>
        <pt x="887" y="1189" on="0"/>
        <pt x="997" y="1054" on="0"/>
        <pt x="997" y="853" on="0"/>
        <pt x="872" y="684" on="0"/>
        <pt x="721" y="610" on="1"/>
        <pt x="721" y="609" on="1"/>
        <pt x="914" y="323" on="1"/>
        <pt x="1018" y="170" on="0"/>
        <pt x="1119" y="70" on="0"/>
        <pt x="1175" y="50" on="1"/>
        <pt x="1223" y="34" on="1"/>
        <pt x="1217" y="-3" on="1"/>
        <pt x="1174" y="-18" on="0"/>
        <pt x="1128" y="-18" on="1"/>
        <pt x="1040" y="-18" on="0"/>
        <pt x="915" y="119" on="0"/>
        <pt x="843" y="238" on="1"/>
        <pt x="640" y="571" on="1"/>
        <pt x="426" y="571" on="1"/>
        <pt x="426" y="65" on="1"/>
        <pt x="637" y="46" on="1"/>
        <pt x="627" y="0" on="1"/>
      </contour>
    </TTGlyph>
    <TTGlyph name="Racute" xMin="160" yMin="-18" xMax="1223" yMax="1713">
      <contour>
        <pt x="526" y="1376" on="1"/>
        <pt x="658" y="1713" on="1"/>
        <pt x="754" y="1674" on="1"/>
        <pt x="571" y="1350" on="1"/>
      </contour>
      <contour>
        <pt x="426" y="627" on="1"/>
        <pt x="653" y="627" on="1"/>
        <pt x="753" y="664" on="0"/>
        <pt x="887" y="834" on="0"/>
        <pt x="887" y="933" on="1"/>
        <pt x="887" y="1066" on="0"/>
        <pt x="706" y="1207" on="0"/>
        <pt x="547" y="1207" on="1"/>
        <pt x="426" y="1202" on="1"/>
      </contour>
      <contour>
        <pt x="160" y="0" on="1"/>
        <pt x="167" y="42" on="1"/>
        <pt x="323" y="72" on="1"/>
        <pt x="323" y="1153" on="1"/>
        <pt x="163" y="1174" on="1"/>
        <pt x="172" y="1210" on="1"/>
        <pt x="439" y="1253" on="0"/>
        <pt x="709" y="1253" on="0"/>
        <pt x="887" y="1189" on="0"/>
        <pt x="997" y="1054" on="0"/>
        <pt x="997" y="853" on="0"/>
        <pt x="872" y="684" on="0"/>
        <pt x="721" y="610" on="1"/>
        <pt x="721" y="609" on="1"/>
        <pt x="914" y="323" on="1"/>
        <pt x="1018" y="170" on="0"/>
        <pt x="1119" y="70" on="0"/>
        <pt x="1175" y="50" on="1"/>
        <pt x="1223" y="34" on="1"/>
        <pt x="1217" y="-3" on="1"/>
        <pt x="1174" y="-18" on="0"/>
        <pt x="1128" y="-18" on="1"/>
        <pt x="1040" y="-18" on="0"/>
        <pt x="915" y="119" on="0"/>
        <pt x="843" y="238" on="1"/>
        <pt x="640" y="571" on="1"/>
        <pt x="426" y="571" on="1"/>
        <pt x="426" y="65" on="1"/>
        <pt x="637" y="46" on="1"/>
        <pt x="627" y="0" on="1"/>
      </contour>
    </TTGlyph>
    <TTGlyph name="Rcaron" xMin="160" yMin="-18" xMax="1223" yMax="1592">
      <contour>
        <pt x="395" y="1543" on="1"/>
        <pt x="450" y="1592" on="1"/>
        <pt x="616" y="1423" on="1"/>
        <pt x="625" y="1423" on="1"/>
        <pt x="768" y="1588" on="1"/>
        <pt x="804" y="1561" on="1"/>
        <pt x="630" y="1377" on="1"/>
        <pt x="574" y="1363" on="1"/>
      </contour>
      <contour>
        <pt x="426" y="627" on="1"/>
        <pt x="653" y="627" on="1"/>
        <pt x="753" y="664" on="0"/>
        <pt x="887" y="834" on="0"/>
        <pt x="887" y="933" on="1"/>
        <pt x="887" y="1066" on="0"/>
        <pt x="706" y="1207" on="0"/>
        <pt x="547" y="1207" on="1"/>
        <pt x="426" y="1202" on="1"/>
      </contour>
      <contour>
        <pt x="160" y="0" on="1"/>
        <pt x="167" y="42" on="1"/>
        <pt x="323" y="72" on="1"/>
        <pt x="323" y="1153" on="1"/>
        <pt x="163" y="1174" on="1"/>
        <pt x="172" y="1210" on="1"/>
        <pt x="439" y="1253" on="0"/>
        <pt x="709" y="1253" on="0"/>
        <pt x="887" y="1189" on="0"/>
        <pt x="997" y="1054" on="0"/>
        <pt x="997" y="853" on="0"/>
        <pt x="872" y="684" on="0"/>
        <pt x="721" y="610" on="1"/>
        <pt x="721" y="609" on="1"/>
        <pt x="914" y="323" on="1"/>
        <pt x="1018" y="170" on="0"/>
        <pt x="1119" y="70" on="0"/>
        <pt x="1175" y="50" on="1"/>
        <pt x="1223" y="34" on="1"/>
        <pt x="1217" y="-3" on="1"/>
        <pt x="1174" y="-18" on="0"/>
        <pt x="1128" y="-18" on="1"/>
        <pt x="1040" y="-18" on="0"/>
        <pt x="915" y="119" on="0"/>
        <pt x="843" y="238" on="1"/>
        <pt x="640" y="571" on="1"/>
        <pt x="426" y="571" on="1"/>
        <pt x="426" y="65" on="1"/>
        <pt x="637" y="46" on="1"/>
        <pt x="627" y="0" on="1"/>
      </contour>
    </TTGlyph>
    <TTGlyph name="Rcommaaccent" xMin="160" yMin="-390" xMax="1223" yMax="1253">
      <contour>
        <pt x="692" y="-353" on="1"/>
        <pt x="752" y="-339" on="0"/>
        <pt x="818" y="-280" on="0"/>
        <pt x="818" y="-241" on="1"/>
        <pt x="818" y="-158" on="0"/>
        <pt x="713" y="-151" on="1"/>
        <pt x="713" y="-127" on="0"/>
        <pt x="757" y="-85" on="0"/>
        <pt x="835" y="-85" on="0"/>
        <pt x="894" y="-149" on="0"/>
        <pt x="894" y="-241" on="0"/>
        <pt x="862" y="-311" on="0"/>
        <pt x="774" y="-377" on="0"/>
        <pt x="708" y="-390" on="1"/>
      </contour>
      <contour>
        <pt x="426" y="627" on="1"/>
        <pt x="653" y="627" on="1"/>
        <pt x="753" y="664" on="0"/>
        <pt x="887" y="834" on="0"/>
        <pt x="887" y="933" on="1"/>
        <pt x="887" y="1066" on="0"/>
        <pt x="706" y="1207" on="0"/>
        <pt x="547" y="1207" on="1"/>
        <pt x="426" y="1202" on="1"/>
      </contour>
      <contour>
        <pt x="160" y="0" on="1"/>
        <pt x="167" y="42" on="1"/>
        <pt x="323" y="72" on="1"/>
        <pt x="323" y="1153" on="1"/>
        <pt x="163" y="1174" on="1"/>
        <pt x="172" y="1210" on="1"/>
        <pt x="439" y="1253" on="0"/>
        <pt x="709" y="1253" on="0"/>
        <pt x="887" y="1189" on="0"/>
        <pt x="997" y="1054" on="0"/>
        <pt x="997" y="853" on="0"/>
        <pt x="872" y="684" on="0"/>
        <pt x="721" y="610" on="1"/>
        <pt x="721" y="609" on="1"/>
        <pt x="914" y="323" on="1"/>
        <pt x="1018" y="170" on="0"/>
        <pt x="1119" y="70" on="0"/>
        <pt x="1175" y="50" on="1"/>
        <pt x="1223" y="34" on="1"/>
        <pt x="1217" y="-3" on="1"/>
        <pt x="1174" y="-18" on="0"/>
        <pt x="1128" y="-18" on="1"/>
        <pt x="1040" y="-18" on="0"/>
        <pt x="915" y="119" on="0"/>
        <pt x="843" y="238" on="1"/>
        <pt x="640" y="571" on="1"/>
        <pt x="426" y="571" on="1"/>
        <pt x="426" y="65" on="1"/>
        <pt x="637" y="46" on="1"/>
        <pt x="627" y="0" on="1"/>
      </contour>
    </TTGlyph>
    <TTGlyph name="S" xMin="94" yMin="-26" xMax="826" yMax="1271">
      <contour>
        <pt x="94" y="116" on="1"/>
        <pt x="124" y="401" on="1"/>
        <pt x="172" y="393" on="1"/>
        <pt x="200" y="174" on="1"/>
        <pt x="233" y="111" on="0"/>
        <pt x="388" y="37" on="0"/>
        <pt x="576" y="37" on="0"/>
        <pt x="716" y="156" on="0"/>
        <pt x="716" y="378" on="0"/>
        <pt x="602" y="470" on="1"/>
        <pt x="552" y="511" on="0"/>
        <pt x="491" y="551" on="1"/>
        <pt x="368" y="632" on="1"/>
        <pt x="307" y="674" on="0"/>
        <pt x="256" y="720" on="1"/>
        <pt x="143" y="822" on="0"/>
        <pt x="143" y="1100" on="0"/>
        <pt x="346" y="1271" on="0"/>
        <pt x="475" y="1271" on="1"/>
        <pt x="561" y="1271" on="0"/>
        <pt x="719" y="1215" on="0"/>
        <pt x="767" y="1161" on="1"/>
        <pt x="734" y="851" on="1"/>
        <pt x="688" y="858" on="1"/>
        <pt x="661" y="1101" on="1"/>
        <pt x="634" y="1150" on="0"/>
        <pt x="512" y="1214" on="0"/>
        <pt x="362" y="1214" on="0"/>
        <pt x="241" y="1101" on="0"/>
        <pt x="241" y="942" on="0"/>
        <pt x="306" y="828" on="0"/>
        <pt x="409" y="742" on="0"/>
        <pt x="471" y="700" on="1"/>
        <pt x="596" y="618" on="1"/>
        <pt x="658" y="577" on="0"/>
        <pt x="710" y="533" on="1"/>
        <pt x="826" y="433" on="0"/>
        <pt x="826" y="163" on="0"/>
        <pt x="606" y="-26" on="0"/>
        <pt x="424" y="-26" on="1"/>
        <pt x="320" y="-26" on="0"/>
        <pt x="144" y="54" on="0"/>
      </contour>
    </TTGlyph>
    <TTGlyph name="Sacute" xMin="94" yMin="-26" xMax="826" yMax="1710">
      <contour>
        <pt x="420" y="1373" on="1"/>
        <pt x="552" y="1710" on="1"/>
        <pt x="648" y="1671" on="1"/>
        <pt x="465" y="1347" on="1"/>
      </contour>
      <contour>
        <pt x="94" y="116" on="1"/>
        <pt x="124" y="401" on="1"/>
        <pt x="172" y="393" on="1"/>
        <pt x="200" y="174" on="1"/>
        <pt x="233" y="111" on="0"/>
        <pt x="388" y="37" on="0"/>
        <pt x="576" y="37" on="0"/>
        <pt x="716" y="156" on="0"/>
        <pt x="716" y="378" on="0"/>
        <pt x="602" y="470" on="1"/>
        <pt x="552" y="511" on="0"/>
        <pt x="491" y="551" on="1"/>
        <pt x="368" y="632" on="1"/>
        <pt x="307" y="674" on="0"/>
        <pt x="256" y="720" on="1"/>
        <pt x="143" y="822" on="0"/>
        <pt x="143" y="1100" on="0"/>
        <pt x="346" y="1271" on="0"/>
        <pt x="475" y="1271" on="1"/>
        <pt x="561" y="1271" on="0"/>
        <pt x="719" y="1215" on="0"/>
        <pt x="767" y="1161" on="1"/>
        <pt x="734" y="851" on="1"/>
        <pt x="688" y="858" on="1"/>
        <pt x="661" y="1101" on="1"/>
        <pt x="634" y="1150" on="0"/>
        <pt x="512" y="1214" on="0"/>
        <pt x="362" y="1214" on="0"/>
        <pt x="241" y="1101" on="0"/>
        <pt x="241" y="942" on="0"/>
        <pt x="306" y="828" on="0"/>
        <pt x="409" y="742" on="0"/>
        <pt x="471" y="700" on="1"/>
        <pt x="596" y="618" on="1"/>
        <pt x="658" y="577" on="0"/>
        <pt x="710" y="533" on="1"/>
        <pt x="826" y="433" on="0"/>
        <pt x="826" y="163" on="0"/>
        <pt x="606" y="-26" on="0"/>
        <pt x="424" y="-26" on="1"/>
        <pt x="320" y="-26" on="0"/>
        <pt x="144" y="54" on="0"/>
      </contour>
    </TTGlyph>
    <TTGlyph name="Scaron" xMin="94" yMin="-26" xMax="826" yMax="1589">
      <contour>
        <pt x="265" y="1540" on="1"/>
        <pt x="320" y="1589" on="1"/>
        <pt x="486" y="1420" on="1"/>
        <pt x="495" y="1420" on="1"/>
        <pt x="638" y="1585" on="1"/>
        <pt x="674" y="1558" on="1"/>
        <pt x="500" y="1374" on="1"/>
        <pt x="444" y="1360" on="1"/>
      </contour>
      <contour>
        <pt x="94" y="116" on="1"/>
        <pt x="124" y="401" on="1"/>
        <pt x="172" y="393" on="1"/>
        <pt x="200" y="174" on="1"/>
        <pt x="233" y="111" on="0"/>
        <pt x="388" y="37" on="0"/>
        <pt x="576" y="37" on="0"/>
        <pt x="716" y="156" on="0"/>
        <pt x="716" y="378" on="0"/>
        <pt x="602" y="470" on="1"/>
        <pt x="552" y="511" on="0"/>
        <pt x="491" y="551" on="1"/>
        <pt x="368" y="632" on="1"/>
        <pt x="307" y="674" on="0"/>
        <pt x="256" y="720" on="1"/>
        <pt x="143" y="822" on="0"/>
        <pt x="143" y="1100" on="0"/>
        <pt x="346" y="1271" on="0"/>
        <pt x="475" y="1271" on="1"/>
        <pt x="561" y="1271" on="0"/>
        <pt x="719" y="1215" on="0"/>
        <pt x="767" y="1161" on="1"/>
        <pt x="734" y="851" on="1"/>
        <pt x="688" y="858" on="1"/>
        <pt x="661" y="1101" on="1"/>
        <pt x="634" y="1150" on="0"/>
        <pt x="512" y="1214" on="0"/>
        <pt x="362" y="1214" on="0"/>
        <pt x="241" y="1101" on="0"/>
        <pt x="241" y="942" on="0"/>
        <pt x="306" y="828" on="0"/>
        <pt x="409" y="742" on="0"/>
        <pt x="471" y="700" on="1"/>
        <pt x="596" y="618" on="1"/>
        <pt x="658" y="577" on="0"/>
        <pt x="710" y="533" on="1"/>
        <pt x="826" y="433" on="0"/>
        <pt x="826" y="163" on="0"/>
        <pt x="606" y="-26" on="0"/>
        <pt x="424" y="-26" on="1"/>
        <pt x="320" y="-26" on="0"/>
        <pt x="144" y="54" on="0"/>
      </contour>
    </TTGlyph>
    <TTGlyph name="Scedilla" xMin="94" yMin="-390" xMax="826" yMax="1271">
      <contour>
        <pt x="94" y="116" on="1"/>
        <pt x="124" y="401" on="1"/>
        <pt x="172" y="393" on="1"/>
        <pt x="200" y="174" on="1"/>
        <pt x="233" y="111" on="0"/>
        <pt x="388" y="37" on="0"/>
        <pt x="576" y="37" on="0"/>
        <pt x="716" y="156" on="0"/>
        <pt x="716" y="378" on="0"/>
        <pt x="602" y="470" on="1"/>
        <pt x="552" y="511" on="0"/>
        <pt x="491" y="551" on="1"/>
        <pt x="368" y="632" on="1"/>
        <pt x="307" y="674" on="0"/>
        <pt x="256" y="720" on="1"/>
        <pt x="143" y="822" on="0"/>
        <pt x="143" y="1100" on="0"/>
        <pt x="346" y="1271" on="0"/>
        <pt x="475" y="1271" on="1"/>
        <pt x="561" y="1271" on="0"/>
        <pt x="719" y="1215" on="0"/>
        <pt x="767" y="1161" on="1"/>
        <pt x="734" y="851" on="1"/>
        <pt x="688" y="858" on="1"/>
        <pt x="661" y="1101" on="1"/>
        <pt x="634" y="1150" on="0"/>
        <pt x="512" y="1214" on="0"/>
        <pt x="362" y="1214" on="0"/>
        <pt x="241" y="1101" on="0"/>
        <pt x="241" y="942" on="0"/>
        <pt x="306" y="828" on="0"/>
        <pt x="409" y="742" on="0"/>
        <pt x="471" y="700" on="1"/>
        <pt x="596" y="618" on="1"/>
        <pt x="658" y="577" on="0"/>
        <pt x="710" y="533" on="1"/>
        <pt x="826" y="433" on="0"/>
        <pt x="826" y="181" on="0"/>
        <pt x="655" y="2" on="0"/>
        <pt x="508" y="-20" on="1"/>
        <pt x="469" y="-76" on="1"/>
        <pt x="558" y="-155" on="0"/>
        <pt x="558" y="-283" on="0"/>
        <pt x="455" y="-361" on="0"/>
        <pt x="359" y="-390" on="1"/>
        <pt x="348" y="-347" on="1"/>
        <pt x="391" y="-332" on="0"/>
        <pt x="466" y="-269" on="0"/>
        <pt x="466" y="-224" on="0"/>
        <pt x="447" y="-183" on="0"/>
        <pt x="429" y="-162" on="0"/>
        <pt x="386" y="-124" on="0"/>
        <pt x="380" y="-118" on="1"/>
        <pt x="445" y="-26" on="1"/>
        <pt x="424" y="-26" on="1"/>
        <pt x="320" y="-26" on="0"/>
        <pt x="144" y="54" on="0"/>
      </contour>
    </TTGlyph>
    <TTGlyph name="Scommaaccent" xMin="94" yMin="-386" xMax="826" yMax="1271">
      <contour>
        <pt x="310" y="-349" on="1"/>
        <pt x="370" y="-335" on="0"/>
        <pt x="436" y="-276" on="0"/>
        <pt x="436" y="-237" on="1"/>
        <pt x="436" y="-154" on="0"/>
        <pt x="331" y="-147" on="1"/>
        <pt x="331" y="-123" on="0"/>
        <pt x="375" y="-81" on="0"/>
        <pt x="453" y="-81" on="0"/>
        <pt x="512" y="-145" on="0"/>
        <pt x="512" y="-237" on="0"/>
        <pt x="480" y="-307" on="0"/>
        <pt x="392" y="-373" on="0"/>
        <pt x="326" y="-386" on="1"/>
      </contour>
      <contour>
        <pt x="94" y="116" on="1"/>
        <pt x="124" y="401" on="1"/>
        <pt x="172" y="393" on="1"/>
        <pt x="200" y="174" on="1"/>
        <pt x="233" y="111" on="0"/>
        <pt x="388" y="37" on="0"/>
        <pt x="576" y="37" on="0"/>
        <pt x="716" y="156" on="0"/>
        <pt x="716" y="378" on="0"/>
        <pt x="602" y="470" on="1"/>
        <pt x="552" y="511" on="0"/>
        <pt x="491" y="551" on="1"/>
        <pt x="368" y="632" on="1"/>
        <pt x="307" y="674" on="0"/>
        <pt x="256" y="720" on="1"/>
        <pt x="143" y="822" on="0"/>
        <pt x="143" y="1100" on="0"/>
        <pt x="346" y="1271" on="0"/>
        <pt x="475" y="1271" on="1"/>
        <pt x="561" y="1271" on="0"/>
        <pt x="719" y="1215" on="0"/>
        <pt x="767" y="1161" on="1"/>
        <pt x="734" y="851" on="1"/>
        <pt x="688" y="858" on="1"/>
        <pt x="661" y="1101" on="1"/>
        <pt x="634" y="1150" on="0"/>
        <pt x="512" y="1214" on="0"/>
        <pt x="362" y="1214" on="0"/>
        <pt x="241" y="1101" on="0"/>
        <pt x="241" y="942" on="0"/>
        <pt x="306" y="828" on="0"/>
        <pt x="409" y="742" on="0"/>
        <pt x="471" y="700" on="1"/>
        <pt x="596" y="618" on="1"/>
        <pt x="658" y="577" on="0"/>
        <pt x="710" y="533" on="1"/>
        <pt x="826" y="433" on="0"/>
        <pt x="826" y="163" on="0"/>
        <pt x="606" y="-26" on="0"/>
        <pt x="424" y="-26" on="1"/>
        <pt x="320" y="-26" on="0"/>
        <pt x="144" y="54" on="0"/>
      </contour>
    </TTGlyph>
    <TTGlyph name="T" xMin="87" yMin="0" xMax="1120" yMax="1244">
      <contour>
        <pt x="87" y="1244" on="1"/>
        <pt x="1120" y="1244" on="1"/>
        <pt x="1085" y="912" on="1"/>
        <pt x="1035" y="918" on="1"/>
        <pt x="1018" y="1193" on="1"/>
        <pt x="647" y="1193" on="1"/>
        <pt x="647" y="73" on="1"/>
        <pt x="824" y="46" on="1"/>
        <pt x="813" y="0" on="1"/>
        <pt x="360" y="0" on="1"/>
        <pt x="365" y="42" on="1"/>
        <pt x="540" y="72" on="1"/>
        <pt x="540" y="1193" on="1"/>
        <pt x="184" y="1193" on="1"/>
        <pt x="149" y="914" on="1"/>
        <pt x="97" y="922" on="1"/>
      </contour>
    </TTGlyph>
    <TTGlyph name="Tbar" xMin="87" yMin="0" xMax="1120" yMax="1244">
      <contour>
        <pt x="255" y="591" on="1"/>
        <pt x="263" y="652" on="1"/>
        <pt x="540" y="652" on="1"/>
        <pt x="540" y="1193" on="1"/>
        <pt x="184" y="1193" on="1"/>
        <pt x="149" y="914" on="1"/>
        <pt x="97" y="922" on="1"/>
        <pt x="87" y="1244" on="1"/>
        <pt x="1120" y="1244" on="1"/>
        <pt x="1085" y="912" on="1"/>
        <pt x="1035" y="918" on="1"/>
        <pt x="1018" y="1193" on="1"/>
        <pt x="647" y="1193" on="1"/>
        <pt x="647" y="652" on="1"/>
        <pt x="938" y="652" on="1"/>
        <pt x="931" y="591" on="1"/>
        <pt x="647" y="591" on="1"/>
        <pt x="647" y="73" on="1"/>
        <pt x="824" y="46" on="1"/>
        <pt x="813" y="0" on="1"/>
        <pt x="360" y="0" on="1"/>
        <pt x="365" y="42" on="1"/>
        <pt x="540" y="72" on="1"/>
        <pt x="540" y="591" on="1"/>
      </contour>
    </TTGlyph>
    <TTGlyph name="Tcaron" xMin="87" yMin="0" xMax="1120" yMax="1592">
      <contour>
        <pt x="404" y="1543" on="1"/>
        <pt x="459" y="1592" on="1"/>
        <pt x="625" y="1423" on="1"/>
        <pt x="634" y="1423" on="1"/>
        <pt x="777" y="1588" on="1"/>
        <pt x="813" y="1561" on="1"/>
        <pt x="639" y="1377" on="1"/>
        <pt x="583" y="1363" on="1"/>
      </contour>
      <contour>
        <pt x="87" y="1244" on="1"/>
        <pt x="1120" y="1244" on="1"/>
        <pt x="1085" y="912" on="1"/>
        <pt x="1035" y="918" on="1"/>
        <pt x="1018" y="1193" on="1"/>
        <pt x="647" y="1193" on="1"/>
        <pt x="647" y="73" on="1"/>
        <pt x="824" y="46" on="1"/>
        <pt x="813" y="0" on="1"/>
        <pt x="360" y="0" on="1"/>
        <pt x="365" y="42" on="1"/>
        <pt x="540" y="72" on="1"/>
        <pt x="540" y="1193" on="1"/>
        <pt x="184" y="1193" on="1"/>
        <pt x="149" y="914" on="1"/>
        <pt x="97" y="922" on="1"/>
      </contour>
    </TTGlyph>
    <TTGlyph name="Tcommaaccent" xMin="87" yMin="-390" xMax="1120" yMax="1244">
      <contour>
        <pt x="87" y="1244" on="1"/>
        <pt x="1120" y="1244" on="1"/>
        <pt x="1085" y="912" on="1"/>
        <pt x="1035" y="918" on="1"/>
        <pt x="1018" y="1193" on="1"/>
        <pt x="647" y="1193" on="1"/>
        <pt x="647" y="73" on="1"/>
        <pt x="824" y="46" on="1"/>
        <pt x="813" y="0" on="1"/>
        <pt x="797" y="0" on="1"/>
        <pt x="744" y="-76" on="1"/>
        <pt x="833" y="-155" on="0"/>
        <pt x="833" y="-283" on="0"/>
        <pt x="730" y="-361" on="0"/>
        <pt x="634" y="-390" on="1"/>
        <pt x="623" y="-347" on="1"/>
        <pt x="666" y="-332" on="0"/>
        <pt x="741" y="-269" on="0"/>
        <pt x="741" y="-224" on="0"/>
        <pt x="722" y="-183" on="0"/>
        <pt x="704" y="-162" on="0"/>
        <pt x="661" y="-124" on="0"/>
        <pt x="655" y="-118" on="1"/>
        <pt x="738" y="0" on="1"/>
        <pt x="360" y="0" on="1"/>
        <pt x="365" y="42" on="1"/>
        <pt x="540" y="72" on="1"/>
        <pt x="540" y="1193" on="1"/>
        <pt x="184" y="1193" on="1"/>
        <pt x="149" y="914" on="1"/>
        <pt x="97" y="922" on="1"/>
      </contour>
    </TTGlyph>
    <TTGlyph name="Thorn" xMin="113" yMin="0" xMax="1018" yMax="1244">
      <contour>
        <pt x="113" y="1205" on="1"/>
        <pt x="118" y="1244" on="1"/>
        <pt x="576" y="1244" on="1"/>
        <pt x="571" y="1205" on="1"/>
        <pt x="393" y="1182" on="1"/>
        <pt x="393" y="1021" on="1"/>
        <pt x="435" y="1024" on="0"/>
        <pt x="536" y="1024" on="1"/>
        <pt x="742" y="1024" on="0"/>
        <pt x="1018" y="847" on="0"/>
        <pt x="1018" y="660" on="1"/>
        <pt x="1018" y="539" on="0"/>
        <pt x="880" y="348" on="0"/>
        <pt x="661" y="248" on="0"/>
        <pt x="535" y="248" on="1"/>
        <pt x="493" y="248" on="0"/>
        <pt x="482" y="250" on="1"/>
        <pt x="472" y="293" on="1"/>
        <pt x="526" y="296" on="1"/>
        <pt x="802" y="307" on="0"/>
        <pt x="874" y="512" on="1"/>
        <pt x="894" y="571" on="0"/>
        <pt x="894" y="638" on="1"/>
        <pt x="894" y="776" on="0"/>
        <pt x="695" y="979" on="0"/>
        <pt x="503" y="979" on="1"/>
        <pt x="393" y="972" on="1"/>
        <pt x="393" y="66" on="1"/>
        <pt x="627" y="46" on="1"/>
        <pt x="619" y="0" on="1"/>
        <pt x="120" y="0" on="1"/>
        <pt x="125" y="42" on="1"/>
        <pt x="283" y="72" on="1"/>
        <pt x="286" y="1180" on="1"/>
      </contour>
    </TTGlyph>
    <TTGlyph name="U" xMin="100" yMin="-27" xMax="1361" yMax="1244">
      <contour>
        <pt x="724" y="-27" on="1"/>
        <pt x="281" y="-27" on="0"/>
        <pt x="281" y="462" on="1"/>
        <pt x="281" y="1180" on="1"/>
        <pt x="100" y="1205" on="1"/>
        <pt x="104" y="1244" on="1"/>
        <pt x="558" y="1244" on="1"/>
        <pt x="554" y="1205" on="1"/>
        <pt x="385" y="1182" on="1"/>
        <pt x="385" y="495" on="1"/>
        <pt x="385" y="243" on="0"/>
        <pt x="586" y="42" on="0"/>
        <pt x="929" y="42" on="0"/>
        <pt x="1117" y="251" on="0"/>
        <pt x="1117" y="449" on="1"/>
        <pt x="1117" y="1180" on="1"/>
        <pt x="931" y="1205" on="1"/>
        <pt x="936" y="1244" on="1"/>
        <pt x="1361" y="1244" on="1"/>
        <pt x="1353" y="1205" on="1"/>
        <pt x="1187" y="1182" on="1"/>
        <pt x="1184" y="490" on="1"/>
        <pt x="1183" y="236" on="0"/>
        <pt x="967" y="-27" on="0"/>
      </contour>
    </TTGlyph>
    <TTGlyph name="Uacute" xMin="100" yMin="-27" xMax="1361" yMax="1713">
      <contour>
        <pt x="678" y="1376" on="1"/>
        <pt x="810" y="1713" on="1"/>
        <pt x="906" y="1674" on="1"/>
        <pt x="723" y="1350" on="1"/>
      </contour>
      <contour>
        <pt x="724" y="-27" on="1"/>
        <pt x="281" y="-27" on="0"/>
        <pt x="281" y="462" on="1"/>
        <pt x="281" y="1180" on="1"/>
        <pt x="100" y="1205" on="1"/>
        <pt x="104" y="1244" on="1"/>
        <pt x="558" y="1244" on="1"/>
        <pt x="554" y="1205" on="1"/>
        <pt x="385" y="1182" on="1"/>
        <pt x="385" y="495" on="1"/>
        <pt x="385" y="243" on="0"/>
        <pt x="586" y="42" on="0"/>
        <pt x="929" y="42" on="0"/>
        <pt x="1117" y="251" on="0"/>
        <pt x="1117" y="449" on="1"/>
        <pt x="1117" y="1180" on="1"/>
        <pt x="931" y="1205" on="1"/>
        <pt x="936" y="1244" on="1"/>
        <pt x="1361" y="1244" on="1"/>
        <pt x="1353" y="1205" on="1"/>
        <pt x="1187" y="1182" on="1"/>
        <pt x="1184" y="490" on="1"/>
        <pt x="1183" y="236" on="0"/>
        <pt x="967" y="-27" on="0"/>
      </contour>
    </TTGlyph>
    <TTGlyph name="Ucircumflex" xMin="100" yMin="-27" xMax="1361" yMax="1588">
      <contour>
        <pt x="539" y="1394" on="1"/>
        <pt x="706" y="1575" on="1"/>
        <pt x="760" y="1588" on="1"/>
        <pt x="939" y="1402" on="1"/>
        <pt x="907" y="1365" on="1"/>
        <pt x="726" y="1500" on="1"/>
        <pt x="717" y="1500" on="1"/>
        <pt x="560" y="1364" on="1"/>
      </contour>
      <contour>
        <pt x="724" y="-27" on="1"/>
        <pt x="281" y="-27" on="0"/>
        <pt x="281" y="462" on="1"/>
        <pt x="281" y="1180" on="1"/>
        <pt x="100" y="1205" on="1"/>
        <pt x="104" y="1244" on="1"/>
        <pt x="558" y="1244" on="1"/>
        <pt x="554" y="1205" on="1"/>
        <pt x="385" y="1182" on="1"/>
        <pt x="385" y="495" on="1"/>
        <pt x="385" y="243" on="0"/>
        <pt x="586" y="42" on="0"/>
        <pt x="929" y="42" on="0"/>
        <pt x="1117" y="251" on="0"/>
        <pt x="1117" y="449" on="1"/>
        <pt x="1117" y="1180" on="1"/>
        <pt x="931" y="1205" on="1"/>
        <pt x="936" y="1244" on="1"/>
        <pt x="1361" y="1244" on="1"/>
        <pt x="1353" y="1205" on="1"/>
        <pt x="1187" y="1182" on="1"/>
        <pt x="1184" y="490" on="1"/>
        <pt x="1183" y="236" on="0"/>
        <pt x="967" y="-27" on="0"/>
      </contour>
    </TTGlyph>
    <TTGlyph name="Udieresis" xMin="100" yMin="-27" xMax="1361" yMax="1532">
      <contour>
        <pt x="808" y="1373" on="0"/>
        <pt x="808" y="1532" on="0"/>
        <pt x="920" y="1532" on="0"/>
        <pt x="920" y="1373" on="0"/>
      </contour>
      <contour>
        <pt x="596" y="1373" on="1"/>
        <pt x="539" y="1373" on="0"/>
        <pt x="539" y="1532" on="0"/>
        <pt x="652" y="1532" on="0"/>
        <pt x="652" y="1454" on="1"/>
        <pt x="652" y="1413" on="0"/>
        <pt x="627" y="1373" on="0"/>
      </contour>
      <contour>
        <pt x="724" y="-27" on="1"/>
        <pt x="281" y="-27" on="0"/>
        <pt x="281" y="462" on="1"/>
        <pt x="281" y="1180" on="1"/>
        <pt x="100" y="1205" on="1"/>
        <pt x="104" y="1244" on="1"/>
        <pt x="558" y="1244" on="1"/>
        <pt x="554" y="1205" on="1"/>
        <pt x="385" y="1182" on="1"/>
        <pt x="385" y="495" on="1"/>
        <pt x="385" y="243" on="0"/>
        <pt x="586" y="42" on="0"/>
        <pt x="929" y="42" on="0"/>
        <pt x="1117" y="251" on="0"/>
        <pt x="1117" y="449" on="1"/>
        <pt x="1117" y="1180" on="1"/>
        <pt x="931" y="1205" on="1"/>
        <pt x="936" y="1244" on="1"/>
        <pt x="1361" y="1244" on="1"/>
        <pt x="1353" y="1205" on="1"/>
        <pt x="1187" y="1182" on="1"/>
        <pt x="1184" y="490" on="1"/>
        <pt x="1183" y="236" on="0"/>
        <pt x="967" y="-27" on="0"/>
      </contour>
    </TTGlyph>
    <TTGlyph name="Ugrave" xMin="100" yMin="-27" xMax="1361" yMax="1704">
      <contour>
        <pt x="546" y="1667" on="1"/>
        <pt x="640" y="1704" on="1"/>
        <pt x="773" y="1368" on="1"/>
        <pt x="727" y="1341" on="1"/>
      </contour>
      <contour>
        <pt x="724" y="-27" on="1"/>
        <pt x="281" y="-27" on="0"/>
        <pt x="281" y="462" on="1"/>
        <pt x="281" y="1180" on="1"/>
        <pt x="100" y="1205" on="1"/>
        <pt x="104" y="1244" on="1"/>
        <pt x="558" y="1244" on="1"/>
        <pt x="554" y="1205" on="1"/>
        <pt x="385" y="1182" on="1"/>
        <pt x="385" y="495" on="1"/>
        <pt x="385" y="243" on="0"/>
        <pt x="586" y="42" on="0"/>
        <pt x="929" y="42" on="0"/>
        <pt x="1117" y="251" on="0"/>
        <pt x="1117" y="449" on="1"/>
        <pt x="1117" y="1180" on="1"/>
        <pt x="931" y="1205" on="1"/>
        <pt x="936" y="1244" on="1"/>
        <pt x="1361" y="1244" on="1"/>
        <pt x="1353" y="1205" on="1"/>
        <pt x="1187" y="1182" on="1"/>
        <pt x="1184" y="490" on="1"/>
        <pt x="1183" y="236" on="0"/>
        <pt x="967" y="-27" on="0"/>
      </contour>
    </TTGlyph>
    <TTGlyph name="Uhungarumlaut" xMin="100" yMin="-27" xMax="1361" yMax="1607">
      <contour>
        <pt x="753" y="1398" on="1"/>
        <pt x="1010" y="1597" on="1"/>
        <pt x="1066" y="1533" on="1"/>
        <pt x="774" y="1365" on="1"/>
      </contour>
      <contour>
        <pt x="544" y="1398" on="1"/>
        <pt x="804" y="1607" on="1"/>
        <pt x="864" y="1537" on="1"/>
        <pt x="565" y="1365" on="1"/>
      </contour>
      <contour>
        <pt x="724" y="-27" on="1"/>
        <pt x="281" y="-27" on="0"/>
        <pt x="281" y="462" on="1"/>
        <pt x="281" y="1180" on="1"/>
        <pt x="100" y="1205" on="1"/>
        <pt x="104" y="1244" on="1"/>
        <pt x="558" y="1244" on="1"/>
        <pt x="554" y="1205" on="1"/>
        <pt x="385" y="1182" on="1"/>
        <pt x="385" y="495" on="1"/>
        <pt x="385" y="243" on="0"/>
        <pt x="586" y="42" on="0"/>
        <pt x="929" y="42" on="0"/>
        <pt x="1117" y="251" on="0"/>
        <pt x="1117" y="449" on="1"/>
        <pt x="1117" y="1180" on="1"/>
        <pt x="931" y="1205" on="1"/>
        <pt x="936" y="1244" on="1"/>
        <pt x="1361" y="1244" on="1"/>
        <pt x="1353" y="1205" on="1"/>
        <pt x="1187" y="1182" on="1"/>
        <pt x="1184" y="490" on="1"/>
        <pt x="1183" y="236" on="0"/>
        <pt x="967" y="-27" on="0"/>
      </contour>
    </TTGlyph>
    <TTGlyph name="Umacron" xMin="100" yMin="-27" xMax="1361" yMax="1432">
      <contour>
        <pt x="724" y="-27" on="1"/>
        <pt x="281" y="-27" on="0"/>
        <pt x="281" y="462" on="1"/>
        <pt x="281" y="1180" on="1"/>
        <pt x="100" y="1205" on="1"/>
        <pt x="104" y="1244" on="1"/>
        <pt x="558" y="1244" on="1"/>
        <pt x="554" y="1205" on="1"/>
        <pt x="385" y="1182" on="1"/>
        <pt x="385" y="495" on="1"/>
        <pt x="385" y="243" on="0"/>
        <pt x="586" y="42" on="0"/>
        <pt x="929" y="42" on="0"/>
        <pt x="1117" y="251" on="0"/>
        <pt x="1117" y="449" on="1"/>
        <pt x="1117" y="1180" on="1"/>
        <pt x="931" y="1205" on="1"/>
        <pt x="936" y="1244" on="1"/>
        <pt x="1361" y="1244" on="1"/>
        <pt x="1353" y="1205" on="1"/>
        <pt x="1187" y="1182" on="1"/>
        <pt x="1184" y="490" on="1"/>
        <pt x="1183" y="236" on="0"/>
        <pt x="967" y="-27" on="0"/>
      </contour>
      <contour>
        <pt x="520" y="1380" on="1"/>
        <pt x="529" y="1432" on="1"/>
        <pt x="969" y="1432" on="1"/>
        <pt x="961" y="1380" on="1"/>
      </contour>
    </TTGlyph>
    <TTGlyph name="Uogonek" xMin="100" yMin="-387" xMax="1361" yMax="1244">
      <contour>
        <pt x="100" y="1205" on="1"/>
        <pt x="104" y="1244" on="1"/>
        <pt x="558" y="1244" on="1"/>
        <pt x="554" y="1205" on="1"/>
        <pt x="385" y="1182" on="1"/>
        <pt x="385" y="495" on="1"/>
        <pt x="385" y="243" on="0"/>
        <pt x="586" y="42" on="0"/>
        <pt x="929" y="42" on="0"/>
        <pt x="1117" y="251" on="0"/>
        <pt x="1117" y="449" on="1"/>
        <pt x="1117" y="1180" on="1"/>
        <pt x="931" y="1205" on="1"/>
        <pt x="936" y="1244" on="1"/>
        <pt x="1361" y="1244" on="1"/>
        <pt x="1353" y="1205" on="1"/>
        <pt x="1187" y="1182" on="1"/>
        <pt x="1184" y="490" on="1"/>
        <pt x="1183" y="283" on="0"/>
        <pt x="1042" y="33" on="0"/>
        <pt x="887" y="-8" on="1"/>
        <pt x="816" y="-98" on="0"/>
        <pt x="816" y="-225" on="0"/>
        <pt x="885" y="-311" on="0"/>
        <pt x="957" y="-353" on="1"/>
        <pt x="924" y="-387" on="1"/>
        <pt x="822" y="-376" on="0"/>
        <pt x="718" y="-277" on="0"/>
        <pt x="718" y="-168" on="0"/>
        <pt x="762" y="-81" on="0"/>
        <pt x="822" y="-21" on="1"/>
        <pt x="777" y="-27" on="0"/>
        <pt x="651" y="-27" on="0"/>
        <pt x="589" y="-14" on="1"/>
        <pt x="449" y="17" on="0"/>
        <pt x="281" y="241" on="0"/>
        <pt x="281" y="462" on="1"/>
        <pt x="281" y="1180" on="1"/>
      </contour>
    </TTGlyph>
    <TTGlyph name="Uring" xMin="100" yMin="-27" xMax="1361" yMax="1674">
      <contour>
        <pt x="724" y="-27" on="1"/>
        <pt x="281" y="-27" on="0"/>
        <pt x="281" y="462" on="1"/>
        <pt x="281" y="1180" on="1"/>
        <pt x="100" y="1205" on="1"/>
        <pt x="104" y="1244" on="1"/>
        <pt x="558" y="1244" on="1"/>
        <pt x="554" y="1205" on="1"/>
        <pt x="385" y="1182" on="1"/>
        <pt x="385" y="495" on="1"/>
        <pt x="385" y="243" on="0"/>
        <pt x="586" y="42" on="0"/>
        <pt x="929" y="42" on="0"/>
        <pt x="1117" y="251" on="0"/>
        <pt x="1117" y="449" on="1"/>
        <pt x="1117" y="1180" on="1"/>
        <pt x="931" y="1205" on="1"/>
        <pt x="936" y="1244" on="1"/>
        <pt x="1361" y="1244" on="1"/>
        <pt x="1353" y="1205" on="1"/>
        <pt x="1187" y="1182" on="1"/>
        <pt x="1184" y="490" on="1"/>
        <pt x="1183" y="236" on="0"/>
        <pt x="967" y="-27" on="0"/>
      </contour>
      <contour>
        <pt x="688" y="1634" on="0"/>
        <pt x="642" y="1564" on="0"/>
        <pt x="642" y="1461" on="0"/>
        <pt x="695" y="1378" on="0"/>
        <pt x="787" y="1378" on="0"/>
        <pt x="837" y="1440" on="0"/>
        <pt x="837" y="1550" on="0"/>
        <pt x="780" y="1634" on="0"/>
      </contour>
      <contour>
        <pt x="663" y="1337" on="0"/>
        <pt x="577" y="1427" on="0"/>
        <pt x="577" y="1573" on="0"/>
        <pt x="675" y="1674" on="0"/>
        <pt x="817" y="1674" on="0"/>
        <pt x="903" y="1583" on="0"/>
        <pt x="903" y="1441" on="0"/>
        <pt x="807" y="1337" on="0"/>
      </contour>
    </TTGlyph>
    <TTGlyph name="V" xMin="98" yMin="-26" xMax="1284" yMax="1244">
      <contour>
        <pt x="98" y="1208" on="1"/>
        <pt x="102" y="1244" on="1"/>
        <pt x="526" y="1244" on="1"/>
        <pt x="522" y="1208" on="1"/>
        <pt x="354" y="1182" on="1"/>
        <pt x="700" y="160" on="1"/>
        <pt x="1077" y="1178" on="1"/>
        <pt x="891" y="1208" on="1"/>
        <pt x="894" y="1244" on="1"/>
        <pt x="1284" y="1244" on="1"/>
        <pt x="1280" y="1208" on="1"/>
        <pt x="1151" y="1182" on="1"/>
        <pt x="710" y="-11" on="1"/>
        <pt x="659" y="-26" on="1"/>
        <pt x="245" y="1178" on="1"/>
      </contour>
    </TTGlyph>
    <TTGlyph name="W" xMin="98" yMin="-26" xMax="1769" yMax="1244">
      <contour>
        <pt x="98" y="1207" on="1"/>
        <pt x="105" y="1244" on="1"/>
        <pt x="498" y="1244" on="1"/>
        <pt x="495" y="1212" on="1"/>
        <pt x="330" y="1182" on="1"/>
        <pt x="616" y="178" on="1"/>
        <pt x="915" y="1202" on="1"/>
        <pt x="961" y="1208" on="1"/>
        <pt x="1244" y="178" on="1"/>
        <pt x="1568" y="1175" on="1"/>
        <pt x="1381" y="1210" on="1"/>
        <pt x="1386" y="1244" on="1"/>
        <pt x="1769" y="1244" on="1"/>
        <pt x="1766" y="1208" on="1"/>
        <pt x="1648" y="1178" on="1"/>
        <pt x="1254" y="-13" on="1"/>
        <pt x="1189" y="-26" on="1"/>
        <pt x="921" y="990" on="1"/>
        <pt x="626" y="-13" on="1"/>
        <pt x="555" y="-25" on="1"/>
        <pt x="220" y="1178" on="1"/>
      </contour>
    </TTGlyph>
    <TTGlyph name="Wacute" xMin="98" yMin="-26" xMax="1769" yMax="1713">
      <contour>
        <pt x="910" y="1376" on="1"/>
        <pt x="1042" y="1713" on="1"/>
        <pt x="1138" y="1674" on="1"/>
        <pt x="955" y="1350" on="1"/>
      </contour>
      <contour>
        <pt x="98" y="1207" on="1"/>
        <pt x="105" y="1244" on="1"/>
        <pt x="498" y="1244" on="1"/>
        <pt x="495" y="1212" on="1"/>
        <pt x="330" y="1182" on="1"/>
        <pt x="616" y="178" on="1"/>
        <pt x="915" y="1202" on="1"/>
        <pt x="961" y="1208" on="1"/>
        <pt x="1244" y="178" on="1"/>
        <pt x="1568" y="1175" on="1"/>
        <pt x="1381" y="1210" on="1"/>
        <pt x="1386" y="1244" on="1"/>
        <pt x="1769" y="1244" on="1"/>
        <pt x="1766" y="1208" on="1"/>
        <pt x="1648" y="1178" on="1"/>
        <pt x="1254" y="-13" on="1"/>
        <pt x="1189" y="-26" on="1"/>
        <pt x="921" y="990" on="1"/>
        <pt x="626" y="-13" on="1"/>
        <pt x="555" y="-25" on="1"/>
        <pt x="220" y="1178" on="1"/>
      </contour>
    </TTGlyph>
    <TTGlyph name="Wcircumflex" xMin="98" yMin="-26" xMax="1769" yMax="1525">
      <contour>
        <pt x="98" y="1207" on="1"/>
        <pt x="105" y="1244" on="1"/>
        <pt x="498" y="1244" on="1"/>
        <pt x="495" y="1212" on="1"/>
        <pt x="330" y="1182" on="1"/>
        <pt x="616" y="178" on="1"/>
        <pt x="915" y="1202" on="1"/>
        <pt x="961" y="1208" on="1"/>
        <pt x="1244" y="178" on="1"/>
        <pt x="1568" y="1175" on="1"/>
        <pt x="1381" y="1210" on="1"/>
        <pt x="1386" y="1244" on="1"/>
        <pt x="1769" y="1244" on="1"/>
        <pt x="1766" y="1208" on="1"/>
        <pt x="1648" y="1178" on="1"/>
        <pt x="1254" y="-13" on="1"/>
        <pt x="1189" y="-26" on="1"/>
        <pt x="921" y="990" on="1"/>
        <pt x="626" y="-13" on="1"/>
        <pt x="555" y="-25" on="1"/>
        <pt x="220" y="1178" on="1"/>
      </contour>
      <contour>
        <pt x="740" y="1331" on="1"/>
        <pt x="907" y="1512" on="1"/>
        <pt x="961" y="1525" on="1"/>
        <pt x="1140" y="1339" on="1"/>
        <pt x="1108" y="1302" on="1"/>
        <pt x="927" y="1437" on="1"/>
        <pt x="918" y="1437" on="1"/>
        <pt x="761" y="1301" on="1"/>
      </contour>
    </TTGlyph>
    <TTGlyph name="Wdieresis" xMin="98" yMin="-26" xMax="1769" yMax="1532">
      <contour>
        <pt x="1032" y="1373" on="0"/>
        <pt x="1032" y="1532" on="0"/>
        <pt x="1144" y="1532" on="0"/>
        <pt x="1144" y="1373" on="0"/>
      </contour>
      <contour>
        <pt x="820" y="1373" on="1"/>
        <pt x="763" y="1373" on="0"/>
        <pt x="763" y="1532" on="0"/>
        <pt x="876" y="1532" on="0"/>
        <pt x="876" y="1454" on="1"/>
        <pt x="876" y="1413" on="0"/>
        <pt x="851" y="1373" on="0"/>
      </contour>
      <contour>
        <pt x="98" y="1207" on="1"/>
        <pt x="105" y="1244" on="1"/>
        <pt x="498" y="1244" on="1"/>
        <pt x="495" y="1212" on="1"/>
        <pt x="330" y="1182" on="1"/>
        <pt x="616" y="178" on="1"/>
        <pt x="915" y="1202" on="1"/>
        <pt x="961" y="1208" on="1"/>
        <pt x="1244" y="178" on="1"/>
        <pt x="1568" y="1175" on="1"/>
        <pt x="1381" y="1210" on="1"/>
        <pt x="1386" y="1244" on="1"/>
        <pt x="1769" y="1244" on="1"/>
        <pt x="1766" y="1208" on="1"/>
        <pt x="1648" y="1178" on="1"/>
        <pt x="1254" y="-13" on="1"/>
        <pt x="1189" y="-26" on="1"/>
        <pt x="921" y="990" on="1"/>
        <pt x="626" y="-13" on="1"/>
        <pt x="555" y="-25" on="1"/>
        <pt x="220" y="1178" on="1"/>
      </contour>
    </TTGlyph>
    <TTGlyph name="Wgrave" xMin="98" yMin="-26" xMax="1769" yMax="1704">
      <contour>
        <pt x="746" y="1667" on="1"/>
        <pt x="840" y="1704" on="1"/>
        <pt x="973" y="1368" on="1"/>
        <pt x="927" y="1341" on="1"/>
      </contour>
      <contour>
        <pt x="98" y="1207" on="1"/>
        <pt x="105" y="1244" on="1"/>
        <pt x="498" y="1244" on="1"/>
        <pt x="495" y="1212" on="1"/>
        <pt x="330" y="1182" on="1"/>
        <pt x="616" y="178" on="1"/>
        <pt x="915" y="1202" on="1"/>
        <pt x="961" y="1208" on="1"/>
        <pt x="1244" y="178" on="1"/>
        <pt x="1568" y="1175" on="1"/>
        <pt x="1381" y="1210" on="1"/>
        <pt x="1386" y="1244" on="1"/>
        <pt x="1769" y="1244" on="1"/>
        <pt x="1766" y="1208" on="1"/>
        <pt x="1648" y="1178" on="1"/>
        <pt x="1254" y="-13" on="1"/>
        <pt x="1189" y="-26" on="1"/>
        <pt x="921" y="990" on="1"/>
        <pt x="626" y="-13" on="1"/>
        <pt x="555" y="-25" on="1"/>
        <pt x="220" y="1178" on="1"/>
      </contour>
    </TTGlyph>
    <TTGlyph name="X" xMin="-3" yMin="0" xMax="1200" yMax="1244">
      <contour>
        <pt x="-3" y="0" on="1"/>
        <pt x="3" y="36" on="1"/>
        <pt x="127" y="64" on="1"/>
        <pt x="543" y="625" on="1"/>
        <pt x="154" y="1184" on="1"/>
        <pt x="18" y="1212" on="1"/>
        <pt x="22" y="1244" on="1"/>
        <pt x="442" y="1244" on="1"/>
        <pt x="437" y="1212" on="1"/>
        <pt x="281" y="1182" on="1"/>
        <pt x="613" y="703" on="1"/>
        <pt x="970" y="1184" on="1"/>
        <pt x="798" y="1207" on="1"/>
        <pt x="803" y="1244" on="1"/>
        <pt x="1171" y="1244" on="1"/>
        <pt x="1171" y="1208" on="1"/>
        <pt x="1045" y="1187" on="1"/>
        <pt x="649" y="651" on="1"/>
        <pt x="1063" y="53" on="1"/>
        <pt x="1200" y="36" on="1"/>
        <pt x="1193" y="0" on="1"/>
        <pt x="768" y="0" on="1"/>
        <pt x="772" y="27" on="1"/>
        <pt x="935" y="60" on="1"/>
        <pt x="581" y="571" on="1"/>
        <pt x="206" y="60" on="1"/>
        <pt x="371" y="42" on="1"/>
        <pt x="363" y="0" on="1"/>
      </contour>
    </TTGlyph>
    <TTGlyph name="Y" xMin="4" yMin="0" xMax="1085" yMax="1244">
      <contour>
        <pt x="4" y="1207" on="1"/>
        <pt x="8" y="1243" on="1"/>
        <pt x="425" y="1243" on="1"/>
        <pt x="421" y="1207" on="1"/>
        <pt x="255" y="1181" on="1"/>
        <pt x="568" y="571" on="1"/>
        <pt x="878" y="1178" on="1"/>
        <pt x="693" y="1208" on="1"/>
        <pt x="695" y="1244" on="1"/>
        <pt x="1085" y="1244" on="1"/>
        <pt x="1082" y="1208" on="1"/>
        <pt x="953" y="1182" on="1"/>
        <pt x="604" y="489" on="1"/>
        <pt x="604" y="67" on="1"/>
        <pt x="785" y="46" on="1"/>
        <pt x="777" y="0" on="1"/>
        <pt x="317" y="0" on="1"/>
        <pt x="323" y="42" on="1"/>
        <pt x="498" y="72" on="1"/>
        <pt x="498" y="489" on="1"/>
        <pt x="143" y="1177" on="1"/>
      </contour>
    </TTGlyph>
    <TTGlyph name="Yacute" xMin="4" yMin="0" xMax="1085" yMax="1713">
      <contour>
        <pt x="505" y="1376" on="1"/>
        <pt x="637" y="1713" on="1"/>
        <pt x="733" y="1674" on="1"/>
        <pt x="550" y="1350" on="1"/>
      </contour>
      <contour>
        <pt x="4" y="1207" on="1"/>
        <pt x="8" y="1243" on="1"/>
        <pt x="425" y="1243" on="1"/>
        <pt x="421" y="1207" on="1"/>
        <pt x="255" y="1181" on="1"/>
        <pt x="568" y="571" on="1"/>
        <pt x="878" y="1178" on="1"/>
        <pt x="693" y="1208" on="1"/>
        <pt x="695" y="1244" on="1"/>
        <pt x="1085" y="1244" on="1"/>
        <pt x="1082" y="1208" on="1"/>
        <pt x="953" y="1182" on="1"/>
        <pt x="604" y="489" on="1"/>
        <pt x="604" y="67" on="1"/>
        <pt x="785" y="46" on="1"/>
        <pt x="777" y="0" on="1"/>
        <pt x="317" y="0" on="1"/>
        <pt x="323" y="42" on="1"/>
        <pt x="498" y="72" on="1"/>
        <pt x="498" y="489" on="1"/>
        <pt x="143" y="1177" on="1"/>
      </contour>
    </TTGlyph>
    <TTGlyph name="Ycircumflex" xMin="4" yMin="0" xMax="1085" yMax="1582">
      <contour>
        <pt x="4" y="1207" on="1"/>
        <pt x="8" y="1243" on="1"/>
        <pt x="425" y="1243" on="1"/>
        <pt x="421" y="1207" on="1"/>
        <pt x="255" y="1181" on="1"/>
        <pt x="568" y="571" on="1"/>
        <pt x="878" y="1178" on="1"/>
        <pt x="693" y="1208" on="1"/>
        <pt x="695" y="1244" on="1"/>
        <pt x="1085" y="1244" on="1"/>
        <pt x="1082" y="1208" on="1"/>
        <pt x="953" y="1182" on="1"/>
        <pt x="604" y="489" on="1"/>
        <pt x="604" y="67" on="1"/>
        <pt x="785" y="46" on="1"/>
        <pt x="777" y="0" on="1"/>
        <pt x="317" y="0" on="1"/>
        <pt x="323" y="42" on="1"/>
        <pt x="498" y="72" on="1"/>
        <pt x="498" y="489" on="1"/>
        <pt x="143" y="1177" on="1"/>
      </contour>
      <contour>
        <pt x="351" y="1388" on="1"/>
        <pt x="518" y="1569" on="1"/>
        <pt x="572" y="1582" on="1"/>
        <pt x="751" y="1396" on="1"/>
        <pt x="719" y="1359" on="1"/>
        <pt x="538" y="1494" on="1"/>
        <pt x="529" y="1494" on="1"/>
        <pt x="372" y="1358" on="1"/>
      </contour>
    </TTGlyph>
    <TTGlyph name="Ydieresis" xMin="4" yMin="0" xMax="1085" yMax="1543">
      <contour>
        <pt x="4" y="1207" on="1"/>
        <pt x="8" y="1243" on="1"/>
        <pt x="425" y="1243" on="1"/>
        <pt x="421" y="1207" on="1"/>
        <pt x="255" y="1181" on="1"/>
        <pt x="568" y="571" on="1"/>
        <pt x="878" y="1178" on="1"/>
        <pt x="693" y="1208" on="1"/>
        <pt x="695" y="1244" on="1"/>
        <pt x="1085" y="1244" on="1"/>
        <pt x="1082" y="1208" on="1"/>
        <pt x="953" y="1182" on="1"/>
        <pt x="604" y="489" on="1"/>
        <pt x="604" y="67" on="1"/>
        <pt x="785" y="46" on="1"/>
        <pt x="777" y="0" on="1"/>
        <pt x="317" y="0" on="1"/>
        <pt x="323" y="42" on="1"/>
        <pt x="498" y="72" on="1"/>
        <pt x="498" y="489" on="1"/>
        <pt x="143" y="1177" on="1"/>
      </contour>
      <contour>
        <pt x="632" y="1384" on="0"/>
        <pt x="632" y="1543" on="0"/>
        <pt x="744" y="1543" on="0"/>
        <pt x="744" y="1384" on="0"/>
      </contour>
      <contour>
        <pt x="420" y="1384" on="1"/>
        <pt x="363" y="1384" on="0"/>
        <pt x="363" y="1543" on="0"/>
        <pt x="476" y="1543" on="0"/>
        <pt x="476" y="1465" on="1"/>
        <pt x="476" y="1424" on="0"/>
        <pt x="451" y="1384" on="0"/>
      </contour>
    </TTGlyph>
    <TTGlyph name="Ygrave" xMin="4" yMin="0" xMax="1085" yMax="1704">
      <contour>
        <pt x="382" y="1667" on="1"/>
        <pt x="476" y="1704" on="1"/>
        <pt x="609" y="1368" on="1"/>
        <pt x="563" y="1341" on="1"/>
      </contour>
      <contour>
        <pt x="4" y="1207" on="1"/>
        <pt x="8" y="1243" on="1"/>
        <pt x="425" y="1243" on="1"/>
        <pt x="421" y="1207" on="1"/>
        <pt x="255" y="1181" on="1"/>
        <pt x="568" y="571" on="1"/>
        <pt x="878" y="1178" on="1"/>
        <pt x="693" y="1208" on="1"/>
        <pt x="695" y="1244" on="1"/>
        <pt x="1085" y="1244" on="1"/>
        <pt x="1082" y="1208" on="1"/>
        <pt x="953" y="1182" on="1"/>
        <pt x="604" y="489" on="1"/>
        <pt x="604" y="67" on="1"/>
        <pt x="785" y="46" on="1"/>
        <pt x="777" y="0" on="1"/>
        <pt x="317" y="0" on="1"/>
        <pt x="323" y="42" on="1"/>
        <pt x="498" y="72" on="1"/>
        <pt x="498" y="489" on="1"/>
        <pt x="143" y="1177" on="1"/>
      </contour>
    </TTGlyph>
    <TTGlyph name="Z" xMin="43" yMin="0" xMax="993" yMax="1244">
      <contour>
        <pt x="43" y="37" on="1"/>
        <pt x="845" y="1189" on="1"/>
        <pt x="209" y="1189" on="1"/>
        <pt x="131" y="903" on="1"/>
        <pt x="91" y="914" on="1"/>
        <pt x="100" y="1244" on="1"/>
        <pt x="976" y="1244" on="1"/>
        <pt x="981" y="1207" on="1"/>
        <pt x="176" y="58" on="1"/>
        <pt x="843" y="58" on="1"/>
        <pt x="949" y="342" on="1"/>
        <pt x="993" y="335" on="1"/>
        <pt x="953" y="0" on="1"/>
        <pt x="48" y="0" on="1"/>
      </contour>
    </TTGlyph>
    <TTGlyph name="Zacute" xMin="43" yMin="0" xMax="993" yMax="1713">
      <contour>
        <pt x="472" y="1376" on="1"/>
        <pt x="604" y="1713" on="1"/>
        <pt x="700" y="1674" on="1"/>
        <pt x="517" y="1350" on="1"/>
      </contour>
      <contour>
        <pt x="43" y="37" on="1"/>
        <pt x="845" y="1189" on="1"/>
        <pt x="209" y="1189" on="1"/>
        <pt x="131" y="903" on="1"/>
        <pt x="91" y="914" on="1"/>
        <pt x="100" y="1244" on="1"/>
        <pt x="976" y="1244" on="1"/>
        <pt x="981" y="1207" on="1"/>
        <pt x="176" y="58" on="1"/>
        <pt x="843" y="58" on="1"/>
        <pt x="949" y="342" on="1"/>
        <pt x="993" y="335" on="1"/>
        <pt x="953" y="0" on="1"/>
        <pt x="48" y="0" on="1"/>
      </contour>
    </TTGlyph>
    <TTGlyph name="Zcaron" xMin="43" yMin="0" xMax="993" yMax="1592">
      <contour>
        <pt x="318" y="1543" on="1"/>
        <pt x="373" y="1592" on="1"/>
        <pt x="539" y="1423" on="1"/>
        <pt x="548" y="1423" on="1"/>
        <pt x="691" y="1588" on="1"/>
        <pt x="727" y="1561" on="1"/>
        <pt x="553" y="1377" on="1"/>
        <pt x="497" y="1363" on="1"/>
      </contour>
      <contour>
        <pt x="43" y="37" on="1"/>
        <pt x="845" y="1189" on="1"/>
        <pt x="209" y="1189" on="1"/>
        <pt x="131" y="903" on="1"/>
        <pt x="91" y="914" on="1"/>
        <pt x="100" y="1244" on="1"/>
        <pt x="976" y="1244" on="1"/>
        <pt x="981" y="1207" on="1"/>
        <pt x="176" y="58" on="1"/>
        <pt x="843" y="58" on="1"/>
        <pt x="949" y="342" on="1"/>
        <pt x="993" y="335" on="1"/>
        <pt x="953" y="0" on="1"/>
        <pt x="48" y="0" on="1"/>
      </contour>
    </TTGlyph>
    <TTGlyph name="Zdotaccent" xMin="43" yMin="0" xMax="993" yMax="1582">
      <contour>
        <pt x="601" y="1382" on="0"/>
        <pt x="475" y="1382" on="0"/>
        <pt x="475" y="1582" on="0"/>
        <pt x="601" y="1582" on="0"/>
      </contour>
      <contour>
        <pt x="43" y="37" on="1"/>
        <pt x="845" y="1189" on="1"/>
        <pt x="209" y="1189" on="1"/>
        <pt x="131" y="903" on="1"/>
        <pt x="91" y="914" on="1"/>
        <pt x="100" y="1244" on="1"/>
        <pt x="976" y="1244" on="1"/>
        <pt x="981" y="1207" on="1"/>
        <pt x="176" y="58" on="1"/>
        <pt x="843" y="58" on="1"/>
        <pt x="949" y="342" on="1"/>
        <pt x="993" y="335" on="1"/>
        <pt x="953" y="0" on="1"/>
        <pt x="48" y="0" on="1"/>
      </contour>
    </TTGlyph>
    <TTGlyph name="a" xMin="138" yMin="-26" xMax="845" yMax="877">
      <contour>
        <pt x="238" y="190" on="1"/>
        <pt x="238" y="135" on="0"/>
        <pt x="314" y="43" on="0"/>
        <pt x="447" y="43" on="0"/>
        <pt x="564" y="122" on="0"/>
        <pt x="601" y="185" on="1"/>
        <pt x="601" y="432" on="1"/>
        <pt x="383" y="399" on="0"/>
        <pt x="238" y="288" on="0"/>
      </contour>
      <contour>
        <pt x="138" y="169" on="1"/>
        <pt x="138" y="296" on="0"/>
        <pt x="371" y="463" on="0"/>
        <pt x="601" y="477" on="1"/>
        <pt x="601" y="516" on="1"/>
        <pt x="601" y="681" on="0"/>
        <pt x="521" y="826" on="0"/>
        <pt x="410" y="826" on="1"/>
        <pt x="334" y="826" on="0"/>
        <pt x="267" y="714" on="0"/>
        <pt x="254" y="609" on="1"/>
        <pt x="219" y="609" on="0"/>
        <pt x="172" y="644" on="0"/>
        <pt x="172" y="676" on="1"/>
        <pt x="172" y="752" on="0"/>
        <pt x="359" y="877" on="0"/>
        <pt x="469" y="877" on="1"/>
        <pt x="691" y="877" on="0"/>
        <pt x="691" y="569" on="1"/>
        <pt x="691" y="229" on="1"/>
        <pt x="691" y="137" on="0"/>
        <pt x="708" y="97" on="0"/>
        <pt x="734" y="59" on="0"/>
        <pt x="779" y="50" on="1"/>
        <pt x="845" y="37" on="1"/>
        <pt x="840" y="3" on="1"/>
        <pt x="793" y="-18" on="0"/>
        <pt x="680" y="-18" on="0"/>
        <pt x="614" y="60" on="0"/>
        <pt x="614" y="117" on="1"/>
        <pt x="614" y="130" on="1"/>
        <pt x="609" y="130" on="1"/>
        <pt x="590" y="76" on="0"/>
        <pt x="441" y="-26" on="0"/>
        <pt x="262" y="-26" on="0"/>
        <pt x="138" y="81" on="0"/>
      </contour>
    </TTGlyph>
    <TTGlyph name="aacute" xMin="138" yMin="-26" xMax="845" yMax="1344">
      <contour>
        <pt x="396" y="1007" on="1"/>
        <pt x="528" y="1344" on="1"/>
        <pt x="624" y="1305" on="1"/>
        <pt x="441" y="981" on="1"/>
      </contour>
      <contour>
        <pt x="238" y="190" on="1"/>
        <pt x="238" y="135" on="0"/>
        <pt x="314" y="43" on="0"/>
        <pt x="447" y="43" on="0"/>
        <pt x="564" y="122" on="0"/>
        <pt x="601" y="185" on="1"/>
        <pt x="601" y="432" on="1"/>
        <pt x="383" y="399" on="0"/>
        <pt x="238" y="288" on="0"/>
      </contour>
      <contour>
        <pt x="138" y="169" on="1"/>
        <pt x="138" y="296" on="0"/>
        <pt x="371" y="463" on="0"/>
        <pt x="601" y="477" on="1"/>
        <pt x="601" y="516" on="1"/>
        <pt x="601" y="681" on="0"/>
        <pt x="521" y="826" on="0"/>
        <pt x="410" y="826" on="1"/>
        <pt x="334" y="826" on="0"/>
        <pt x="267" y="714" on="0"/>
        <pt x="254" y="609" on="1"/>
        <pt x="219" y="609" on="0"/>
        <pt x="172" y="644" on="0"/>
        <pt x="172" y="676" on="1"/>
        <pt x="172" y="752" on="0"/>
        <pt x="359" y="877" on="0"/>
        <pt x="469" y="877" on="1"/>
        <pt x="691" y="877" on="0"/>
        <pt x="691" y="569" on="1"/>
        <pt x="691" y="229" on="1"/>
        <pt x="691" y="137" on="0"/>
        <pt x="708" y="97" on="0"/>
        <pt x="734" y="59" on="0"/>
        <pt x="779" y="50" on="1"/>
        <pt x="845" y="37" on="1"/>
        <pt x="840" y="3" on="1"/>
        <pt x="793" y="-18" on="0"/>
        <pt x="680" y="-18" on="0"/>
        <pt x="614" y="60" on="0"/>
        <pt x="614" y="117" on="1"/>
        <pt x="614" y="130" on="1"/>
        <pt x="609" y="130" on="1"/>
        <pt x="590" y="76" on="0"/>
        <pt x="441" y="-26" on="0"/>
        <pt x="262" y="-26" on="0"/>
        <pt x="138" y="81" on="0"/>
      </contour>
    </TTGlyph>
    <TTGlyph name="abreve" xMin="138" yMin="-26" xMax="845" yMax="1216">
      <contour>
        <pt x="248" y="1190" on="1"/>
        <pt x="278" y="1214" on="1"/>
        <pt x="344" y="1087" on="0"/>
        <pt x="537" y="1087" on="0"/>
        <pt x="607" y="1216" on="1"/>
        <pt x="630" y="1195" on="1"/>
        <pt x="570" y="1012" on="0"/>
        <pt x="293" y="1012" on="0"/>
      </contour>
      <contour>
        <pt x="238" y="190" on="1"/>
        <pt x="238" y="135" on="0"/>
        <pt x="314" y="43" on="0"/>
        <pt x="447" y="43" on="0"/>
        <pt x="564" y="122" on="0"/>
        <pt x="601" y="185" on="1"/>
        <pt x="601" y="432" on="1"/>
        <pt x="383" y="399" on="0"/>
        <pt x="238" y="288" on="0"/>
      </contour>
      <contour>
        <pt x="138" y="169" on="1"/>
        <pt x="138" y="296" on="0"/>
        <pt x="371" y="463" on="0"/>
        <pt x="601" y="477" on="1"/>
        <pt x="601" y="516" on="1"/>
        <pt x="601" y="681" on="0"/>
        <pt x="521" y="826" on="0"/>
        <pt x="410" y="826" on="1"/>
        <pt x="334" y="826" on="0"/>
        <pt x="267" y="714" on="0"/>
        <pt x="254" y="609" on="1"/>
        <pt x="219" y="609" on="0"/>
        <pt x="172" y="644" on="0"/>
        <pt x="172" y="676" on="1"/>
        <pt x="172" y="752" on="0"/>
        <pt x="359" y="877" on="0"/>
        <pt x="469" y="877" on="1"/>
        <pt x="691" y="877" on="0"/>
        <pt x="691" y="569" on="1"/>
        <pt x="691" y="229" on="1"/>
        <pt x="691" y="137" on="0"/>
        <pt x="708" y="97" on="0"/>
        <pt x="734" y="59" on="0"/>
        <pt x="779" y="50" on="1"/>
        <pt x="845" y="37" on="1"/>
        <pt x="840" y="3" on="1"/>
        <pt x="793" y="-18" on="0"/>
        <pt x="680" y="-18" on="0"/>
        <pt x="614" y="60" on="0"/>
        <pt x="614" y="117" on="1"/>
        <pt x="614" y="130" on="1"/>
        <pt x="609" y="130" on="1"/>
        <pt x="590" y="76" on="0"/>
        <pt x="441" y="-26" on="0"/>
        <pt x="262" y="-26" on="0"/>
        <pt x="138" y="81" on="0"/>
      </contour>
    </TTGlyph>
    <TTGlyph name="acircumflex" xMin="138" yMin="-26" xMax="845" yMax="1219">
      <contour>
        <pt x="248" y="1025" on="1"/>
        <pt x="415" y="1206" on="1"/>
        <pt x="469" y="1219" on="1"/>
        <pt x="648" y="1033" on="1"/>
        <pt x="616" y="996" on="1"/>
        <pt x="435" y="1131" on="1"/>
        <pt x="426" y="1131" on="1"/>
        <pt x="269" y="995" on="1"/>
      </contour>
      <contour>
        <pt x="238" y="190" on="1"/>
        <pt x="238" y="135" on="0"/>
        <pt x="314" y="43" on="0"/>
        <pt x="447" y="43" on="0"/>
        <pt x="564" y="122" on="0"/>
        <pt x="601" y="185" on="1"/>
        <pt x="601" y="432" on="1"/>
        <pt x="383" y="399" on="0"/>
        <pt x="238" y="288" on="0"/>
      </contour>
      <contour>
        <pt x="138" y="169" on="1"/>
        <pt x="138" y="296" on="0"/>
        <pt x="371" y="463" on="0"/>
        <pt x="601" y="477" on="1"/>
        <pt x="601" y="516" on="1"/>
        <pt x="601" y="681" on="0"/>
        <pt x="521" y="826" on="0"/>
        <pt x="410" y="826" on="1"/>
        <pt x="334" y="826" on="0"/>
        <pt x="267" y="714" on="0"/>
        <pt x="254" y="609" on="1"/>
        <pt x="219" y="609" on="0"/>
        <pt x="172" y="644" on="0"/>
        <pt x="172" y="676" on="1"/>
        <pt x="172" y="752" on="0"/>
        <pt x="359" y="877" on="0"/>
        <pt x="469" y="877" on="1"/>
        <pt x="691" y="877" on="0"/>
        <pt x="691" y="569" on="1"/>
        <pt x="691" y="229" on="1"/>
        <pt x="691" y="137" on="0"/>
        <pt x="708" y="97" on="0"/>
        <pt x="734" y="59" on="0"/>
        <pt x="779" y="50" on="1"/>
        <pt x="845" y="37" on="1"/>
        <pt x="840" y="3" on="1"/>
        <pt x="793" y="-18" on="0"/>
        <pt x="680" y="-18" on="0"/>
        <pt x="614" y="60" on="0"/>
        <pt x="614" y="117" on="1"/>
        <pt x="614" y="130" on="1"/>
        <pt x="609" y="130" on="1"/>
        <pt x="590" y="76" on="0"/>
        <pt x="441" y="-26" on="0"/>
        <pt x="262" y="-26" on="0"/>
        <pt x="138" y="81" on="0"/>
      </contour>
    </TTGlyph>
    <TTGlyph name="acute" xMin="227" yMin="1344" xMax="455" yMax="1707">
      <contour>
        <pt x="227" y="1370" on="1"/>
        <pt x="359" y="1707" on="1"/>
        <pt x="455" y="1668" on="1"/>
        <pt x="272" y="1344" on="1"/>
      </contour>
    </TTGlyph>
    <TTGlyph name="adieresis" xMin="138" yMin="-26" xMax="845" yMax="1163">
      <contour>
        <pt x="523" y="1004" on="0"/>
        <pt x="523" y="1163" on="0"/>
        <pt x="635" y="1163" on="0"/>
        <pt x="635" y="1004" on="0"/>
      </contour>
      <contour>
        <pt x="311" y="1004" on="1"/>
        <pt x="254" y="1004" on="0"/>
        <pt x="254" y="1163" on="0"/>
        <pt x="367" y="1163" on="0"/>
        <pt x="367" y="1085" on="1"/>
        <pt x="367" y="1044" on="0"/>
        <pt x="342" y="1004" on="0"/>
      </contour>
      <contour>
        <pt x="238" y="190" on="1"/>
        <pt x="238" y="135" on="0"/>
        <pt x="314" y="43" on="0"/>
        <pt x="447" y="43" on="0"/>
        <pt x="564" y="122" on="0"/>
        <pt x="601" y="185" on="1"/>
        <pt x="601" y="432" on="1"/>
        <pt x="383" y="399" on="0"/>
        <pt x="238" y="288" on="0"/>
      </contour>
      <contour>
        <pt x="138" y="169" on="1"/>
        <pt x="138" y="296" on="0"/>
        <pt x="371" y="463" on="0"/>
        <pt x="601" y="477" on="1"/>
        <pt x="601" y="516" on="1"/>
        <pt x="601" y="681" on="0"/>
        <pt x="521" y="826" on="0"/>
        <pt x="410" y="826" on="1"/>
        <pt x="334" y="826" on="0"/>
        <pt x="267" y="714" on="0"/>
        <pt x="254" y="609" on="1"/>
        <pt x="219" y="609" on="0"/>
        <pt x="172" y="644" on="0"/>
        <pt x="172" y="676" on="1"/>
        <pt x="172" y="752" on="0"/>
        <pt x="359" y="877" on="0"/>
        <pt x="469" y="877" on="1"/>
        <pt x="691" y="877" on="0"/>
        <pt x="691" y="569" on="1"/>
        <pt x="691" y="229" on="1"/>
        <pt x="691" y="137" on="0"/>
        <pt x="708" y="97" on="0"/>
        <pt x="734" y="59" on="0"/>
        <pt x="779" y="50" on="1"/>
        <pt x="845" y="37" on="1"/>
        <pt x="840" y="3" on="1"/>
        <pt x="793" y="-18" on="0"/>
        <pt x="680" y="-18" on="0"/>
        <pt x="614" y="60" on="0"/>
        <pt x="614" y="117" on="1"/>
        <pt x="614" y="130" on="1"/>
        <pt x="609" y="130" on="1"/>
        <pt x="590" y="76" on="0"/>
        <pt x="441" y="-26" on="0"/>
        <pt x="262" y="-26" on="0"/>
        <pt x="138" y="81" on="0"/>
      </contour>
    </TTGlyph>
    <TTGlyph name="ae" xMin="138" yMin="-29" xMax="1213" yMax="875">
      <contour>
        <pt x="686" y="476" on="1"/>
        <pt x="1073" y="514" on="1"/>
        <pt x="1083" y="538" on="0"/>
        <pt x="1083" y="695" on="0"/>
        <pt x="978" y="818" on="0"/>
        <pt x="905" y="818" on="1"/>
        <pt x="806" y="818" on="0"/>
        <pt x="686" y="631" on="0"/>
      </contour>
      <contour>
        <pt x="236" y="187" on="1"/>
        <pt x="236" y="132" on="0"/>
        <pt x="313" y="42" on="0"/>
        <pt x="458" y="42" on="0"/>
        <pt x="600" y="162" on="0"/>
        <pt x="600" y="248" on="1"/>
        <pt x="600" y="424" on="1"/>
        <pt x="380" y="392" on="0"/>
        <pt x="236" y="285" on="0"/>
      </contour>
      <contour>
        <pt x="1213" y="104" on="1"/>
        <pt x="1111" y="-29" on="0"/>
        <pt x="925" y="-29" on="1"/>
        <pt x="845" y="-29" on="0"/>
        <pt x="665" y="85" on="0"/>
        <pt x="632" y="169" on="1"/>
        <pt x="617" y="114" on="0"/>
        <pt x="459" y="-27" on="0"/>
        <pt x="261" y="-27" on="0"/>
        <pt x="138" y="81" on="0"/>
        <pt x="138" y="169" on="1"/>
        <pt x="138" y="293" on="0"/>
        <pt x="356" y="440" on="0"/>
        <pt x="600" y="467" on="1"/>
        <pt x="600" y="538" on="1"/>
        <pt x="600" y="699" on="0"/>
        <pt x="521" y="825" on="0"/>
        <pt x="408" y="825" on="1"/>
        <pt x="332" y="825" on="0"/>
        <pt x="266" y="714" on="0"/>
        <pt x="253" y="609" on="1"/>
        <pt x="172" y="609" on="0"/>
        <pt x="172" y="673" on="1"/>
        <pt x="172" y="749" on="0"/>
        <pt x="357" y="875" on="0"/>
        <pt x="449" y="875" on="1"/>
        <pt x="640" y="875" on="0"/>
        <pt x="679" y="718" on="1"/>
        <pt x="776" y="874" on="0"/>
        <pt x="954" y="874" on="1"/>
        <pt x="1187" y="874" on="0"/>
        <pt x="1187" y="573" on="1"/>
        <pt x="1187" y="515" on="0"/>
        <pt x="1171" y="451" on="1"/>
        <pt x="685" y="429" on="1"/>
        <pt x="685" y="255" on="0"/>
        <pt x="831" y="53" on="0"/>
        <pt x="1111" y="53" on="0"/>
        <pt x="1195" y="137" on="1"/>
      </contour>
    </TTGlyph>
    <TTGlyph name="agrave" xMin="138" yMin="-26" xMax="845" yMax="1335">
      <contour>
        <pt x="277" y="1298" on="1"/>
        <pt x="371" y="1335" on="1"/>
        <pt x="504" y="999" on="1"/>
        <pt x="458" y="972" on="1"/>
      </contour>
      <contour>
        <pt x="238" y="190" on="1"/>
        <pt x="238" y="135" on="0"/>
        <pt x="314" y="43" on="0"/>
        <pt x="447" y="43" on="0"/>
        <pt x="564" y="122" on="0"/>
        <pt x="601" y="185" on="1"/>
        <pt x="601" y="432" on="1"/>
        <pt x="383" y="399" on="0"/>
        <pt x="238" y="288" on="0"/>
      </contour>
      <contour>
        <pt x="138" y="169" on="1"/>
        <pt x="138" y="296" on="0"/>
        <pt x="371" y="463" on="0"/>
        <pt x="601" y="477" on="1"/>
        <pt x="601" y="516" on="1"/>
        <pt x="601" y="681" on="0"/>
        <pt x="521" y="826" on="0"/>
        <pt x="410" y="826" on="1"/>
        <pt x="334" y="826" on="0"/>
        <pt x="267" y="714" on="0"/>
        <pt x="254" y="609" on="1"/>
        <pt x="219" y="609" on="0"/>
        <pt x="172" y="644" on="0"/>
        <pt x="172" y="676" on="1"/>
        <pt x="172" y="752" on="0"/>
        <pt x="359" y="877" on="0"/>
        <pt x="469" y="877" on="1"/>
        <pt x="691" y="877" on="0"/>
        <pt x="691" y="569" on="1"/>
        <pt x="691" y="229" on="1"/>
        <pt x="691" y="137" on="0"/>
        <pt x="708" y="97" on="0"/>
        <pt x="734" y="59" on="0"/>
        <pt x="779" y="50" on="1"/>
        <pt x="845" y="37" on="1"/>
        <pt x="840" y="3" on="1"/>
        <pt x="793" y="-18" on="0"/>
        <pt x="680" y="-18" on="0"/>
        <pt x="614" y="60" on="0"/>
        <pt x="614" y="117" on="1"/>
        <pt x="614" y="130" on="1"/>
        <pt x="609" y="130" on="1"/>
        <pt x="590" y="76" on="0"/>
        <pt x="441" y="-26" on="0"/>
        <pt x="262" y="-26" on="0"/>
        <pt x="138" y="81" on="0"/>
      </contour>
    </TTGlyph>
    <TTGlyph name="amacron" xMin="138" yMin="-26" xMax="845" yMax="1069">
      <contour>
        <pt x="218" y="1017" on="1"/>
        <pt x="227" y="1069" on="1"/>
        <pt x="667" y="1069" on="1"/>
        <pt x="659" y="1017" on="1"/>
      </contour>
      <contour>
        <pt x="238" y="190" on="1"/>
        <pt x="238" y="135" on="0"/>
        <pt x="314" y="43" on="0"/>
        <pt x="447" y="43" on="0"/>
        <pt x="564" y="122" on="0"/>
        <pt x="601" y="185" on="1"/>
        <pt x="601" y="432" on="1"/>
        <pt x="383" y="399" on="0"/>
        <pt x="238" y="288" on="0"/>
      </contour>
      <contour>
        <pt x="138" y="169" on="1"/>
        <pt x="138" y="296" on="0"/>
        <pt x="371" y="463" on="0"/>
        <pt x="601" y="477" on="1"/>
        <pt x="601" y="516" on="1"/>
        <pt x="601" y="681" on="0"/>
        <pt x="521" y="826" on="0"/>
        <pt x="410" y="826" on="1"/>
        <pt x="334" y="826" on="0"/>
        <pt x="267" y="714" on="0"/>
        <pt x="254" y="609" on="1"/>
        <pt x="219" y="609" on="0"/>
        <pt x="172" y="644" on="0"/>
        <pt x="172" y="676" on="1"/>
        <pt x="172" y="752" on="0"/>
        <pt x="359" y="877" on="0"/>
        <pt x="469" y="877" on="1"/>
        <pt x="691" y="877" on="0"/>
        <pt x="691" y="569" on="1"/>
        <pt x="691" y="229" on="1"/>
        <pt x="691" y="137" on="0"/>
        <pt x="708" y="97" on="0"/>
        <pt x="734" y="59" on="0"/>
        <pt x="779" y="50" on="1"/>
        <pt x="845" y="37" on="1"/>
        <pt x="840" y="3" on="1"/>
        <pt x="793" y="-18" on="0"/>
        <pt x="680" y="-18" on="0"/>
        <pt x="614" y="60" on="0"/>
        <pt x="614" y="117" on="1"/>
        <pt x="614" y="130" on="1"/>
        <pt x="609" y="130" on="1"/>
        <pt x="590" y="76" on="0"/>
        <pt x="441" y="-26" on="0"/>
        <pt x="262" y="-26" on="0"/>
        <pt x="138" y="81" on="0"/>
      </contour>
    </TTGlyph>
    <TTGlyph name="ampersand" xMin="78" yMin="-20" xMax="1220" yMax="1272">
      <contour>
        <pt x="323" y="1026" on="1"/>
        <pt x="323" y="922" on="0"/>
        <pt x="477" y="731" on="1"/>
        <pt x="572" y="803" on="0"/>
        <pt x="674" y="928" on="0"/>
        <pt x="674" y="1087" on="0"/>
        <pt x="567" y="1212" on="0"/>
        <pt x="418" y="1212" on="0"/>
        <pt x="323" y="1101" on="0"/>
      </contour>
      <contour>
        <pt x="190" y="281" on="1"/>
        <pt x="190" y="191" on="0"/>
        <pt x="316" y="65" on="0"/>
        <pt x="408" y="65" on="1"/>
        <pt x="578" y="65" on="0"/>
        <pt x="721" y="290" on="1"/>
        <pt x="438" y="622" on="1"/>
        <pt x="435" y="622" on="1"/>
        <pt x="247" y="481" on="0"/>
        <pt x="208" y="380" on="1"/>
        <pt x="190" y="333" on="0"/>
      </contour>
      <contour>
        <pt x="767" y="236" on="1"/>
        <pt x="596" y="-20" on="0"/>
        <pt x="365" y="-20" on="1"/>
        <pt x="235" y="-20" on="0"/>
        <pt x="78" y="131" on="0"/>
        <pt x="78" y="243" on="1"/>
        <pt x="78" y="425" on="0"/>
        <pt x="302" y="600" on="1"/>
        <pt x="302" y="600" on="0"/>
        <pt x="396" y="672" on="1"/>
        <pt x="245" y="855" on="0"/>
        <pt x="245" y="1095" on="0"/>
        <pt x="403" y="1272" on="0"/>
        <pt x="636" y="1272" on="0"/>
        <pt x="773" y="1136" on="0"/>
        <pt x="773" y="906" on="0"/>
        <pt x="665" y="802" on="1"/>
        <pt x="605" y="745" on="0"/>
        <pt x="520" y="683" on="1"/>
        <pt x="520" y="680" on="1"/>
        <pt x="775" y="385" on="1"/>
        <pt x="963" y="721" on="1"/>
        <pt x="802" y="752" on="1"/>
        <pt x="804" y="786" on="1"/>
        <pt x="1220" y="786" on="1"/>
        <pt x="1215" y="752" on="1"/>
        <pt x="1047" y="723" on="1"/>
        <pt x="824" y="332" on="1"/>
        <pt x="1001" y="100" on="0"/>
        <pt x="1169" y="47" on="1"/>
        <pt x="1215" y="34" on="1"/>
        <pt x="1208" y="-3" on="1"/>
        <pt x="1159" y="-20" on="0"/>
        <pt x="1050" y="-20" on="0"/>
        <pt x="918" y="61" on="0"/>
        <pt x="870" y="116" on="1"/>
      </contour>
    </TTGlyph>
    <TTGlyph name="ampersand.osf" xMin="167" yMin="-20" xMax="1062" yMax="971">
      <contour>
        <pt x="708" y="116" on="1"/>
        <pt x="598" y="-20" on="0"/>
        <pt x="232" y="-20" on="0"/>
        <pt x="180" y="122" on="1"/>
        <pt x="167" y="159" on="0"/>
        <pt x="167" y="238" on="0"/>
        <pt x="196" y="311" on="0"/>
        <pt x="214" y="336" on="1"/>
        <pt x="248" y="382" on="0"/>
        <pt x="330" y="442" on="1"/>
        <pt x="401" y="490" on="1"/>
        <pt x="268" y="651" on="0"/>
        <pt x="268" y="835" on="0"/>
        <pt x="411" y="971" on="0"/>
        <pt x="605" y="971" on="0"/>
        <pt x="722" y="867" on="0"/>
        <pt x="722" y="729" on="0"/>
        <pt x="658" y="618" on="0"/>
        <pt x="581" y="548" on="0"/>
        <pt x="518" y="502" on="1"/>
        <pt x="722" y="255" on="1"/>
        <pt x="773" y="345" on="0"/>
        <pt x="842" y="520" on="1"/>
        <pt x="718" y="550" on="1"/>
        <pt x="721" y="583" on="1"/>
        <pt x="1062" y="583" on="1"/>
        <pt x="1058" y="550" on="1"/>
        <pt x="917" y="523" on="1"/>
        <pt x="849" y="373" on="1"/>
        <pt x="797" y="257" on="0"/>
        <pt x="767" y="204" on="1"/>
        <pt x="837" y="128" on="0"/>
        <pt x="934" y="66" on="0"/>
        <pt x="997" y="47" on="1"/>
        <pt x="1044" y="34" on="1"/>
        <pt x="1038" y="-3" on="1"/>
        <pt x="989" y="-20" on="0"/>
        <pt x="943" y="-20" on="1"/>
        <pt x="820" y="-20" on="0"/>
        <pt x="714" y="109" on="1"/>
      </contour>
      <contour>
        <pt x="666" y="168" on="1"/>
        <pt x="439" y="445" on="1"/>
        <pt x="362" y="389" on="0"/>
        <pt x="281" y="293" on="0"/>
        <pt x="281" y="147" on="0"/>
        <pt x="372" y="47" on="0"/>
        <pt x="449" y="47" on="1"/>
        <pt x="574" y="47" on="0"/>
      </contour>
      <contour>
        <pt x="481" y="545" on="1"/>
        <pt x="551" y="597" on="0"/>
        <pt x="628" y="699" on="0"/>
        <pt x="628" y="826" on="0"/>
        <pt x="552" y="917" on="0"/>
        <pt x="428" y="917" on="0"/>
        <pt x="356" y="840" on="0"/>
        <pt x="356" y="724" on="0"/>
        <pt x="421" y="616" on="0"/>
      </contour>
    </TTGlyph>
    <TTGlyph name="aogonek" xMin="138" yMin="-387" xMax="876" yMax="877">
      <contour>
        <pt x="238" y="190" on="1"/>
        <pt x="238" y="135" on="0"/>
        <pt x="314" y="43" on="0"/>
        <pt x="447" y="43" on="0"/>
        <pt x="564" y="122" on="0"/>
        <pt x="601" y="185" on="1"/>
        <pt x="601" y="432" on="1"/>
        <pt x="383" y="399" on="0"/>
        <pt x="238" y="288" on="0"/>
      </contour>
      <contour>
        <pt x="741" y="-376" on="0"/>
        <pt x="637" y="-277" on="0"/>
        <pt x="637" y="-123" on="0"/>
        <pt x="744" y="-18" on="1"/>
        <pt x="739" y="-18" on="1"/>
        <pt x="680" y="-18" on="0"/>
        <pt x="614" y="60" on="0"/>
        <pt x="614" y="117" on="1"/>
        <pt x="614" y="130" on="1"/>
        <pt x="609" y="130" on="1"/>
        <pt x="590" y="76" on="0"/>
        <pt x="441" y="-26" on="0"/>
        <pt x="262" y="-26" on="0"/>
        <pt x="138" y="81" on="0"/>
        <pt x="138" y="169" on="1"/>
        <pt x="138" y="296" on="0"/>
        <pt x="371" y="463" on="0"/>
        <pt x="601" y="477" on="1"/>
        <pt x="601" y="516" on="1"/>
        <pt x="601" y="681" on="0"/>
        <pt x="521" y="826" on="0"/>
        <pt x="410" y="826" on="1"/>
        <pt x="334" y="826" on="0"/>
        <pt x="267" y="714" on="0"/>
        <pt x="254" y="609" on="1"/>
        <pt x="219" y="609" on="0"/>
        <pt x="172" y="644" on="0"/>
        <pt x="172" y="676" on="1"/>
        <pt x="172" y="752" on="0"/>
        <pt x="359" y="877" on="0"/>
        <pt x="469" y="877" on="1"/>
        <pt x="691" y="877" on="0"/>
        <pt x="691" y="569" on="1"/>
        <pt x="691" y="229" on="1"/>
        <pt x="691" y="137" on="0"/>
        <pt x="708" y="97" on="0"/>
        <pt x="734" y="59" on="0"/>
        <pt x="779" y="50" on="1"/>
        <pt x="845" y="37" on="1"/>
        <pt x="840" y="3" on="1"/>
        <pt x="831" y="-2" on="0"/>
        <pt x="805" y="-9" on="1"/>
        <pt x="735" y="-99" on="0"/>
        <pt x="735" y="-225" on="0"/>
        <pt x="804" y="-311" on="0"/>
        <pt x="876" y="-353" on="1"/>
        <pt x="843" y="-387" on="1"/>
      </contour>
    </TTGlyph>
    <TTGlyph name="approxequal" xMin="82" yMin="278" xMax="868" yMax="747">
      <contour>
        <pt x="82" y="549" on="1"/>
        <pt x="82" y="549" on="0"/>
        <pt x="90" y="575" on="1"/>
        <pt x="95" y="591" on="0"/>
        <pt x="136" y="668" on="0"/>
        <pt x="186" y="722" on="0"/>
        <pt x="272" y="754" on="0"/>
        <pt x="321" y="741" on="1"/>
        <pt x="670" y="643" on="1"/>
        <pt x="726" y="627" on="0"/>
        <pt x="803" y="704" on="0"/>
        <pt x="822" y="747" on="1"/>
        <pt x="868" y="746" on="1"/>
        <pt x="821" y="590" on="0"/>
        <pt x="716" y="550" on="1"/>
        <pt x="672" y="533" on="0"/>
        <pt x="622" y="546" on="1"/>
        <pt x="274" y="643" on="1"/>
        <pt x="209" y="660" on="0"/>
        <pt x="149" y="580" on="1"/>
        <pt x="135" y="562" on="0"/>
        <pt x="121" y="535" on="1"/>
      </contour>
      <contour>
        <pt x="82" y="292" on="1"/>
        <pt x="90" y="318" on="1"/>
        <pt x="95" y="334" on="0"/>
        <pt x="136" y="411" on="0"/>
        <pt x="186" y="465" on="0"/>
        <pt x="272" y="497" on="0"/>
        <pt x="321" y="484" on="1"/>
        <pt x="670" y="386" on="1"/>
        <pt x="726" y="370" on="0"/>
        <pt x="803" y="447" on="0"/>
        <pt x="822" y="490" on="1"/>
        <pt x="868" y="489" on="1"/>
        <pt x="821" y="333" on="0"/>
        <pt x="716" y="292" on="1"/>
        <pt x="672" y="276" on="0"/>
        <pt x="622" y="289" on="1"/>
        <pt x="274" y="386" on="1"/>
        <pt x="209" y="403" on="0"/>
        <pt x="149" y="324" on="1"/>
        <pt x="135" y="305" on="0"/>
        <pt x="121" y="278" on="1"/>
      </contour>
    </TTGlyph>
    <TTGlyph name="aring" xMin="138" yMin="-26" xMax="845" yMax="1340">
      <contour>
        <pt x="238" y="190" on="1"/>
        <pt x="238" y="135" on="0"/>
        <pt x="314" y="43" on="0"/>
        <pt x="447" y="43" on="0"/>
        <pt x="564" y="122" on="0"/>
        <pt x="601" y="185" on="1"/>
        <pt x="601" y="432" on="1"/>
        <pt x="383" y="399" on="0"/>
        <pt x="238" y="288" on="0"/>
      </contour>
      <contour>
        <pt x="138" y="169" on="1"/>
        <pt x="138" y="296" on="0"/>
        <pt x="371" y="463" on="0"/>
        <pt x="601" y="477" on="1"/>
        <pt x="601" y="516" on="1"/>
        <pt x="601" y="681" on="0"/>
        <pt x="521" y="826" on="0"/>
        <pt x="410" y="826" on="1"/>
        <pt x="334" y="826" on="0"/>
        <pt x="267" y="714" on="0"/>
        <pt x="254" y="609" on="1"/>
        <pt x="219" y="609" on="0"/>
        <pt x="172" y="644" on="0"/>
        <pt x="172" y="676" on="1"/>
        <pt x="172" y="752" on="0"/>
        <pt x="359" y="877" on="0"/>
        <pt x="469" y="877" on="1"/>
        <pt x="691" y="877" on="0"/>
        <pt x="691" y="569" on="1"/>
        <pt x="691" y="229" on="1"/>
        <pt x="691" y="137" on="0"/>
        <pt x="708" y="97" on="0"/>
        <pt x="734" y="59" on="0"/>
        <pt x="779" y="50" on="1"/>
        <pt x="845" y="37" on="1"/>
        <pt x="840" y="3" on="1"/>
        <pt x="793" y="-18" on="0"/>
        <pt x="680" y="-18" on="0"/>
        <pt x="614" y="60" on="0"/>
        <pt x="614" y="117" on="1"/>
        <pt x="614" y="130" on="1"/>
        <pt x="609" y="130" on="1"/>
        <pt x="590" y="76" on="0"/>
        <pt x="441" y="-26" on="0"/>
        <pt x="262" y="-26" on="0"/>
        <pt x="138" y="81" on="0"/>
      </contour>
      <contour>
        <pt x="398" y="1300" on="0"/>
        <pt x="352" y="1230" on="0"/>
        <pt x="352" y="1127" on="0"/>
        <pt x="405" y="1044" on="0"/>
        <pt x="497" y="1044" on="0"/>
        <pt x="547" y="1106" on="0"/>
        <pt x="547" y="1216" on="0"/>
        <pt x="490" y="1300" on="0"/>
      </contour>
      <contour>
        <pt x="373" y="1003" on="0"/>
        <pt x="287" y="1093" on="0"/>
        <pt x="287" y="1239" on="0"/>
        <pt x="385" y="1340" on="0"/>
        <pt x="527" y="1340" on="0"/>
        <pt x="613" y="1249" on="0"/>
        <pt x="613" y="1107" on="0"/>
        <pt x="517" y="1003" on="0"/>
      </contour>
    </TTGlyph>
    <TTGlyph name="asciicircum" xMin="57" yMin="796" xMax="695" yMax="1251">
      <contour>
        <pt x="57" y="826" on="1"/>
        <pt x="345" y="1238" on="1"/>
        <pt x="401" y="1251" on="1"/>
        <pt x="695" y="824" on="1"/>
        <pt x="656" y="796" on="1"/>
        <pt x="372" y="1123" on="1"/>
        <pt x="363" y="1123" on="1"/>
        <pt x="90" y="802" on="1"/>
      </contour>
    </TTGlyph>
    <TTGlyph name="asciitilde" xMin="82" yMin="408" xMax="868" yMax="620">
      <contour>
        <pt x="82" y="422" on="1"/>
        <pt x="82" y="422" on="0"/>
        <pt x="90" y="448" on="1"/>
        <pt x="95" y="464" on="0"/>
        <pt x="136" y="541" on="0"/>
        <pt x="186" y="595" on="0"/>
        <pt x="272" y="627" on="0"/>
        <pt x="321" y="614" on="1"/>
        <pt x="670" y="516" on="1"/>
        <pt x="726" y="500" on="0"/>
        <pt x="803" y="577" on="0"/>
        <pt x="822" y="620" on="1"/>
        <pt x="868" y="619" on="1"/>
        <pt x="821" y="463" on="0"/>
        <pt x="716" y="422" on="1"/>
        <pt x="672" y="406" on="0"/>
        <pt x="622" y="419" on="1"/>
        <pt x="274" y="516" on="1"/>
        <pt x="209" y="533" on="0"/>
        <pt x="149" y="454" on="1"/>
        <pt x="135" y="435" on="0"/>
        <pt x="121" y="408" on="1"/>
      </contour>
    </TTGlyph>
    <TTGlyph name="asterisk" xMin="76" yMin="616" xMax="776" yMax="1289">
      <contour>
        <pt x="374" y="1289" on="1"/>
        <pt x="483" y="1280" on="1"/>
        <pt x="458" y="973" on="1"/>
        <pt x="751" y="1097" on="1"/>
        <pt x="776" y="990" on="1"/>
        <pt x="476" y="923" on="1"/>
        <pt x="683" y="680" on="1"/>
        <pt x="591" y="623" on="1"/>
        <pt x="434" y="893" on="1"/>
        <pt x="265" y="616" on="1"/>
        <pt x="182" y="684" on="1"/>
        <pt x="386" y="919" on="1"/>
        <pt x="76" y="990" on="1"/>
        <pt x="118" y="1093" on="1"/>
        <pt x="402" y="970" on="1"/>
      </contour>
    </TTGlyph>
    <TTGlyph name="at" xMin="121" yMin="-227" xMax="1302" yMax="1044">
      <contour>
        <pt x="634" y="725" on="0"/>
        <pt x="507" y="524" on="0"/>
        <pt x="507" y="391" on="1"/>
        <pt x="507" y="138" on="0"/>
        <pt x="591" y="138" on="1"/>
        <pt x="629" y="138" on="0"/>
        <pt x="759" y="211" on="0"/>
        <pt x="788" y="243" on="1"/>
        <pt x="843" y="714" on="1"/>
        <pt x="810" y="725" on="0"/>
      </contour>
      <contour>
        <pt x="784" y="124" on="1"/>
        <pt x="786" y="188" on="1"/>
        <pt x="777" y="188" on="1"/>
        <pt x="745" y="140" on="0"/>
        <pt x="619" y="60" on="0"/>
        <pt x="495" y="60" on="0"/>
        <pt x="418" y="197" on="0"/>
        <pt x="418" y="312" on="1"/>
        <pt x="418" y="532" on="0"/>
        <pt x="649" y="790" on="0"/>
        <pt x="782" y="790" on="1"/>
        <pt x="841" y="790" on="0"/>
        <pt x="921" y="772" on="1"/>
        <pt x="936" y="752" on="1"/>
        <pt x="894" y="385" on="1"/>
        <pt x="874" y="209" on="0"/>
        <pt x="874" y="195" on="1"/>
        <pt x="873" y="136" on="0"/>
        <pt x="905" y="136" on="1"/>
        <pt x="1025" y="136" on="0"/>
        <pt x="1218" y="350" on="0"/>
        <pt x="1218" y="540" on="1"/>
        <pt x="1218" y="639" on="0"/>
        <pt x="1139" y="810" on="0"/>
        <pt x="1074" y="866" on="1"/>
        <pt x="933" y="988" on="0"/>
        <pt x="598" y="988" on="0"/>
        <pt x="350" y="825" on="0"/>
        <pt x="211" y="537" on="0"/>
        <pt x="211" y="358" on="1"/>
        <pt x="211" y="121" on="0"/>
        <pt x="488" y="-163" on="0"/>
        <pt x="730" y="-163" on="1"/>
        <pt x="831" y="-163" on="0"/>
        <pt x="1054" y="-80" on="0"/>
        <pt x="1097" y="-43" on="1"/>
        <pt x="1118" y="-82" on="1"/>
        <pt x="968" y="-190" on="0"/>
        <pt x="838" y="-214" on="1"/>
        <pt x="771" y="-227" on="0"/>
        <pt x="577" y="-227" on="0"/>
        <pt x="372" y="-153" on="0"/>
        <pt x="214" y="-16" on="0"/>
        <pt x="121" y="200" on="0"/>
        <pt x="121" y="468" on="0"/>
        <pt x="214" y="722" on="0"/>
        <pt x="382" y="923" on="0"/>
        <pt x="638" y="1044" on="0"/>
        <pt x="930" y="1044" on="0"/>
        <pt x="1164" y="924" on="0"/>
        <pt x="1302" y="707" on="0"/>
        <pt x="1302" y="438" on="0"/>
        <pt x="1183" y="208" on="0"/>
        <pt x="967" y="69" on="0"/>
        <pt x="833" y="69" on="1"/>
        <pt x="784" y="69" on="0"/>
      </contour>
    </TTGlyph>
    <TTGlyph name="atilde" xMin="138" yMin="-26" xMax="845" yMax="1138">
      <contour>
        <pt x="238" y="190" on="1"/>
        <pt x="238" y="135" on="0"/>
        <pt x="314" y="43" on="0"/>
        <pt x="447" y="43" on="0"/>
        <pt x="564" y="122" on="0"/>
        <pt x="601" y="185" on="1"/>
        <pt x="601" y="432" on="1"/>
        <pt x="383" y="399" on="0"/>
        <pt x="238" y="288" on="0"/>
      </contour>
      <contour>
        <pt x="138" y="169" on="1"/>
        <pt x="138" y="296" on="0"/>
        <pt x="371" y="463" on="0"/>
        <pt x="601" y="477" on="1"/>
        <pt x="601" y="516" on="1"/>
        <pt x="601" y="681" on="0"/>
        <pt x="521" y="826" on="0"/>
        <pt x="410" y="826" on="1"/>
        <pt x="334" y="826" on="0"/>
        <pt x="267" y="714" on="0"/>
        <pt x="254" y="609" on="1"/>
        <pt x="219" y="609" on="0"/>
        <pt x="172" y="644" on="0"/>
        <pt x="172" y="676" on="1"/>
        <pt x="172" y="752" on="0"/>
        <pt x="359" y="877" on="0"/>
        <pt x="469" y="877" on="1"/>
        <pt x="691" y="877" on="0"/>
        <pt x="691" y="569" on="1"/>
        <pt x="691" y="229" on="1"/>
        <pt x="691" y="137" on="0"/>
        <pt x="708" y="97" on="0"/>
        <pt x="734" y="59" on="0"/>
        <pt x="779" y="50" on="1"/>
        <pt x="845" y="37" on="1"/>
        <pt x="840" y="3" on="1"/>
        <pt x="793" y="-18" on="0"/>
        <pt x="680" y="-18" on="0"/>
        <pt x="614" y="60" on="0"/>
        <pt x="614" y="117" on="1"/>
        <pt x="614" y="130" on="1"/>
        <pt x="609" y="130" on="1"/>
        <pt x="590" y="76" on="0"/>
        <pt x="441" y="-26" on="0"/>
        <pt x="262" y="-26" on="0"/>
        <pt x="138" y="81" on="0"/>
      </contour>
      <contour>
        <pt x="231" y="990" on="1"/>
        <pt x="231" y="1008" on="0"/>
        <pt x="263" y="1074" on="0"/>
        <pt x="272" y="1084" on="1"/>
        <pt x="327" y="1150" on="0"/>
        <pt x="389" y="1125" on="1"/>
        <pt x="570" y="1071" on="1"/>
        <pt x="602" y="1061" on="0"/>
        <pt x="650" y="1095" on="0"/>
        <pt x="658" y="1116" on="1"/>
        <pt x="666" y="1138" on="1"/>
        <pt x="700" y="1136" on="1"/>
        <pt x="699" y="1134" on="0"/>
        <pt x="690" y="1103" on="0"/>
        <pt x="685" y="1093" on="1"/>
        <pt x="672" y="1068" on="1"/>
        <pt x="662" y="1048" on="0"/>
        <pt x="642" y="1028" on="1"/>
        <pt x="592" y="980" on="0"/>
        <pt x="534" y="1002" on="1"/>
        <pt x="358" y="1054" on="1"/>
        <pt x="330" y="1063" on="0"/>
        <pt x="280" y="1025" on="0"/>
        <pt x="270" y="1002" on="1"/>
        <pt x="259" y="978" on="1"/>
      </contour>
    </TTGlyph>
    <TTGlyph name="b" xMin="51" yMin="-24" xMax="906" yMax="1271">
      <contour>
        <pt x="526" y="802" on="1"/>
        <pt x="431" y="802" on="0"/>
        <pt x="301" y="664" on="1"/>
        <pt x="301" y="98" on="1"/>
        <pt x="362" y="37" on="0"/>
        <pt x="505" y="37" on="1"/>
        <pt x="611" y="37" on="0"/>
        <pt x="802" y="239" on="0"/>
        <pt x="802" y="423" on="1"/>
        <pt x="802" y="802" on="0"/>
      </contour>
      <contour>
        <pt x="420" y="-24" on="1"/>
        <pt x="314" y="-24" on="0"/>
        <pt x="206" y="48" on="1"/>
        <pt x="206" y="1190" on="1"/>
        <pt x="51" y="1221" on="1"/>
        <pt x="57" y="1252" on="1"/>
        <pt x="296" y="1271" on="1"/>
        <pt x="301" y="1262" on="1"/>
        <pt x="301" y="824" on="1"/>
        <pt x="286" y="721" on="1"/>
        <pt x="299" y="721" on="1"/>
        <pt x="436" y="874" on="0"/>
        <pt x="737" y="874" on="0"/>
        <pt x="906" y="649" on="0"/>
        <pt x="906" y="460" on="1"/>
        <pt x="906" y="227" on="0"/>
        <pt x="630" y="-24" on="0"/>
      </contour>
    </TTGlyph>
    <TTGlyph name="backslash" xMin="27" yMin="-358" xMax="571" yMax="1244">
      <contour>
        <pt x="27" y="1244" on="1"/>
        <pt x="110" y="1241" on="1"/>
        <pt x="571" y="-358" on="1"/>
        <pt x="492" y="-354" on="1"/>
      </contour>
    </TTGlyph>
    <TTGlyph name="bar" xMin="274" yMin="-380" xMax="350" yMax="1260">
      <contour>
        <pt x="274" y="-368" on="1"/>
        <pt x="274" y="1260" on="1"/>
        <pt x="350" y="1248" on="1"/>
        <pt x="350" y="-380" on="1"/>
      </contour>
    </TTGlyph>
    <TTGlyph name="braceleft" xMin="-244" yMin="-378" xMax="283" yMax="1256">
      <contour>
        <pt x="283" y="-378" on="1"/>
        <pt x="181" y="-378" on="1"/>
        <pt x="97" y="-378" on="0"/>
        <pt x="-4" y="-295" on="0"/>
        <pt x="-40" y="-161" on="0"/>
        <pt x="-49" y="2" on="0"/>
        <pt x="-50" y="167" on="0"/>
        <pt x="-58" y="237" on="1"/>
        <pt x="-76" y="395" on="0"/>
        <pt x="-191" y="408" on="1"/>
        <pt x="-244" y="414" on="1"/>
        <pt x="-244" y="463" on="1"/>
        <pt x="-195" y="470" on="1"/>
        <pt x="-101" y="482" on="0"/>
        <pt x="-74" y="584" on="1"/>
        <pt x="-52" y="666" on="0"/>
        <pt x="-50" y="877" on="0"/>
        <pt x="-48" y="940" on="1"/>
        <pt x="-44" y="1076" on="0"/>
        <pt x="46" y="1256" on="0"/>
        <pt x="176" y="1256" on="1"/>
        <pt x="279" y="1256" on="1"/>
        <pt x="271" y="1207" on="1"/>
        <pt x="165" y="1200" on="1"/>
        <pt x="82" y="1196" on="0"/>
        <pt x="69" y="1059" on="1"/>
        <pt x="63" y="998" on="0"/>
        <pt x="62" y="848" on="0"/>
        <pt x="51" y="693" on="0"/>
        <pt x="21" y="559" on="0"/>
        <pt x="-61" y="458" on="0"/>
        <pt x="-128" y="441" on="1"/>
        <pt x="-128" y="437" on="1"/>
        <pt x="-61" y="426" on="0"/>
        <pt x="21" y="332" on="0"/>
        <pt x="52" y="198" on="0"/>
        <pt x="63" y="40" on="0"/>
        <pt x="66" y="-114" on="0"/>
        <pt x="73" y="-178" on="1"/>
        <pt x="89" y="-319" on="0"/>
        <pt x="176" y="-323" on="1"/>
        <pt x="277" y="-329" on="1"/>
      </contour>
    </TTGlyph>
    <TTGlyph name="braceright" xMin="42" yMin="-378" xMax="569" yMax="1256">
      <contour>
        <pt x="42" y="-378" on="1"/>
        <pt x="48" y="-329" on="1"/>
        <pt x="149" y="-323" on="1"/>
        <pt x="236" y="-319" on="0"/>
        <pt x="252" y="-178" on="1"/>
        <pt x="259" y="-114" on="0"/>
        <pt x="262" y="40" on="0"/>
        <pt x="273" y="198" on="0"/>
        <pt x="304" y="332" on="0"/>
        <pt x="386" y="426" on="0"/>
        <pt x="453" y="437" on="1"/>
        <pt x="453" y="441" on="1"/>
        <pt x="386" y="458" on="0"/>
        <pt x="304" y="559" on="0"/>
        <pt x="274" y="693" on="0"/>
        <pt x="263" y="848" on="0"/>
        <pt x="262" y="998" on="0"/>
        <pt x="256" y="1059" on="1"/>
        <pt x="242" y="1196" on="0"/>
        <pt x="160" y="1200" on="1"/>
        <pt x="54" y="1207" on="1"/>
        <pt x="46" y="1256" on="1"/>
        <pt x="149" y="1256" on="1"/>
        <pt x="278" y="1256" on="0"/>
        <pt x="369" y="1076" on="0"/>
        <pt x="375" y="877" on="0"/>
        <pt x="376" y="813" on="1"/>
        <pt x="377" y="666" on="0"/>
        <pt x="398" y="584" on="1"/>
        <pt x="426" y="482" on="0"/>
        <pt x="520" y="470" on="1"/>
        <pt x="569" y="463" on="1"/>
        <pt x="569" y="414" on="1"/>
        <pt x="516" y="408" on="1"/>
        <pt x="401" y="395" on="0"/>
        <pt x="383" y="237" on="1"/>
        <pt x="375" y="167" on="0"/>
        <pt x="374" y="2" on="0"/>
        <pt x="365" y="-161" on="0"/>
        <pt x="329" y="-295" on="0"/>
        <pt x="228" y="-378" on="0"/>
        <pt x="144" y="-378" on="1"/>
      </contour>
    </TTGlyph>
    <TTGlyph name="bracketleft" xMin="67" yMin="-374" xMax="435" yMax="1256">
      <contour>
        <pt x="435" y="-333" on="1"/>
        <pt x="429" y="-374" on="1"/>
        <pt x="67" y="-374" on="1"/>
        <pt x="67" y="1256" on="1"/>
        <pt x="429" y="1256" on="1"/>
        <pt x="432" y="1203" on="1"/>
        <pt x="177" y="1182" on="1"/>
        <pt x="177" y="-312" on="1"/>
      </contour>
    </TTGlyph>
    <TTGlyph name="bracketright" xMin="48" yMin="-374" xMax="416" yMax="1256">
      <contour>
        <pt x="48" y="-333" on="1"/>
        <pt x="306" y="-312" on="1"/>
        <pt x="306" y="1182" on="1"/>
        <pt x="51" y="1203" on="1"/>
        <pt x="54" y="1256" on="1"/>
        <pt x="416" y="1256" on="1"/>
        <pt x="416" y="-374" on="1"/>
        <pt x="54" y="-374" on="1"/>
      </contour>
    </TTGlyph>
    <TTGlyph name="breve" xMin="121" yMin="1375" xMax="503" yMax="1579">
      <contour>
        <pt x="121" y="1553" on="1"/>
        <pt x="151" y="1577" on="1"/>
        <pt x="217" y="1450" on="0"/>
        <pt x="410" y="1450" on="0"/>
        <pt x="480" y="1579" on="1"/>
        <pt x="503" y="1558" on="1"/>
        <pt x="443" y="1375" on="0"/>
        <pt x="166" y="1375" on="0"/>
      </contour>
    </TTGlyph>
    <TTGlyph name="brokenbar" xMin="279" yMin="-380" xMax="348" yMax="1253">
      <contour>
        <pt x="279" y="535" on="1"/>
        <pt x="279" y="1253" on="1"/>
        <pt x="347" y="1248" on="1"/>
        <pt x="344" y="529" on="1"/>
      </contour>
      <contour>
        <pt x="279" y="-374" on="1"/>
        <pt x="279" y="414" on="1"/>
        <pt x="348" y="410" on="1"/>
        <pt x="348" y="-380" on="1"/>
      </contour>
    </TTGlyph>
    <TTGlyph name="bullet" xMin="190" yMin="394" xMax="374" yMax="686">
      <contour>
        <pt x="374" y="394" on="0"/>
        <pt x="190" y="394" on="0"/>
        <pt x="190" y="686" on="0"/>
        <pt x="374" y="686" on="0"/>
      </contour>
    </TTGlyph>
    <TTGlyph name="c" xMin="132" yMin="-29" xMax="770" yMax="875">
      <contour>
        <pt x="308" y="-29" on="0"/>
        <pt x="132" y="208" on="0"/>
        <pt x="132" y="614" on="0"/>
        <pt x="342" y="875" on="0"/>
        <pt x="507" y="875" on="1"/>
        <pt x="623" y="875" on="0"/>
        <pt x="728" y="775" on="0"/>
        <pt x="728" y="632" on="0"/>
        <pt x="663" y="612" on="1"/>
        <pt x="627" y="718" on="0"/>
        <pt x="535" y="813" on="0"/>
        <pt x="364" y="813" on="0"/>
        <pt x="232" y="626" on="0"/>
        <pt x="232" y="453" on="1"/>
        <pt x="232" y="45" on="0"/>
        <pt x="517" y="45" on="1"/>
        <pt x="585" y="45" on="0"/>
        <pt x="711" y="104" on="0"/>
        <pt x="752" y="144" on="1"/>
        <pt x="770" y="111" on="1"/>
        <pt x="733" y="53" on="0"/>
        <pt x="564" y="-29" on="0"/>
        <pt x="469" y="-29" on="1"/>
      </contour>
    </TTGlyph>
    <TTGlyph name="cacute" xMin="132" yMin="-29" xMax="770" yMax="1360">
      <contour>
        <pt x="417" y="1023" on="1"/>
        <pt x="549" y="1360" on="1"/>
        <pt x="645" y="1321" on="1"/>
        <pt x="462" y="997" on="1"/>
      </contour>
      <contour>
        <pt x="308" y="-29" on="0"/>
        <pt x="132" y="208" on="0"/>
        <pt x="132" y="614" on="0"/>
        <pt x="342" y="875" on="0"/>
        <pt x="507" y="875" on="1"/>
        <pt x="623" y="875" on="0"/>
        <pt x="728" y="775" on="0"/>
        <pt x="728" y="632" on="0"/>
        <pt x="663" y="612" on="1"/>
        <pt x="627" y="718" on="0"/>
        <pt x="535" y="813" on="0"/>
        <pt x="364" y="813" on="0"/>
        <pt x="232" y="626" on="0"/>
        <pt x="232" y="453" on="1"/>
        <pt x="232" y="45" on="0"/>
        <pt x="517" y="45" on="1"/>
        <pt x="585" y="45" on="0"/>
        <pt x="711" y="104" on="0"/>
        <pt x="752" y="144" on="1"/>
        <pt x="770" y="111" on="1"/>
        <pt x="733" y="53" on="0"/>
        <pt x="564" y="-29" on="0"/>
        <pt x="469" y="-29" on="1"/>
      </contour>
    </TTGlyph>
    <TTGlyph name="caron" xMin="123" yMin="1357" xMax="532" yMax="1586">
      <contour>
        <pt x="123" y="1537" on="1"/>
        <pt x="178" y="1586" on="1"/>
        <pt x="344" y="1417" on="1"/>
        <pt x="353" y="1417" on="1"/>
        <pt x="496" y="1582" on="1"/>
        <pt x="532" y="1555" on="1"/>
        <pt x="358" y="1371" on="1"/>
        <pt x="302" y="1357" on="1"/>
      </contour>
    </TTGlyph>
    <TTGlyph name="ccaron" xMin="132" yMin="-29" xMax="770" yMax="1239">
      <contour>
        <pt x="269" y="1190" on="1"/>
        <pt x="324" y="1239" on="1"/>
        <pt x="490" y="1070" on="1"/>
        <pt x="499" y="1070" on="1"/>
        <pt x="642" y="1235" on="1"/>
        <pt x="678" y="1208" on="1"/>
        <pt x="504" y="1024" on="1"/>
        <pt x="448" y="1010" on="1"/>
      </contour>
      <contour>
        <pt x="308" y="-29" on="0"/>
        <pt x="132" y="208" on="0"/>
        <pt x="132" y="614" on="0"/>
        <pt x="342" y="875" on="0"/>
        <pt x="507" y="875" on="1"/>
        <pt x="623" y="875" on="0"/>
        <pt x="728" y="775" on="0"/>
        <pt x="728" y="632" on="0"/>
        <pt x="663" y="612" on="1"/>
        <pt x="627" y="718" on="0"/>
        <pt x="535" y="813" on="0"/>
        <pt x="364" y="813" on="0"/>
        <pt x="232" y="626" on="0"/>
        <pt x="232" y="453" on="1"/>
        <pt x="232" y="45" on="0"/>
        <pt x="517" y="45" on="1"/>
        <pt x="585" y="45" on="0"/>
        <pt x="711" y="104" on="0"/>
        <pt x="752" y="144" on="1"/>
        <pt x="770" y="111" on="1"/>
        <pt x="733" y="53" on="0"/>
        <pt x="564" y="-29" on="0"/>
        <pt x="469" y="-29" on="1"/>
      </contour>
    </TTGlyph>
    <TTGlyph name="ccedilla" xMin="132" yMin="-390" xMax="770" yMax="875">
      <contour>
        <pt x="300" y="-23" on="0"/>
        <pt x="132" y="213" on="0"/>
        <pt x="132" y="614" on="0"/>
        <pt x="342" y="875" on="0"/>
        <pt x="507" y="875" on="1"/>
        <pt x="623" y="875" on="0"/>
        <pt x="728" y="775" on="0"/>
        <pt x="728" y="632" on="0"/>
        <pt x="663" y="612" on="1"/>
        <pt x="627" y="718" on="0"/>
        <pt x="535" y="813" on="0"/>
        <pt x="364" y="813" on="0"/>
        <pt x="232" y="626" on="0"/>
        <pt x="232" y="453" on="1"/>
        <pt x="232" y="45" on="0"/>
        <pt x="517" y="45" on="1"/>
        <pt x="585" y="45" on="0"/>
        <pt x="711" y="104" on="0"/>
        <pt x="752" y="144" on="1"/>
        <pt x="770" y="111" on="1"/>
        <pt x="738" y="60" on="0"/>
        <pt x="597" y="-16" on="0"/>
        <pt x="515" y="-26" on="1"/>
        <pt x="480" y="-76" on="1"/>
        <pt x="569" y="-155" on="0"/>
        <pt x="569" y="-283" on="0"/>
        <pt x="466" y="-361" on="0"/>
        <pt x="370" y="-390" on="1"/>
        <pt x="359" y="-347" on="1"/>
        <pt x="402" y="-332" on="0"/>
        <pt x="477" y="-269" on="0"/>
        <pt x="477" y="-224" on="0"/>
        <pt x="458" y="-183" on="0"/>
        <pt x="440" y="-162" on="0"/>
        <pt x="397" y="-124" on="0"/>
        <pt x="391" y="-118" on="1"/>
        <pt x="454" y="-29" on="1"/>
      </contour>
    </TTGlyph>
    <TTGlyph name="cdotaccent" xMin="132" yMin="-29" xMax="770" yMax="1183">
      <contour>
        <pt x="308" y="-29" on="0"/>
        <pt x="132" y="208" on="0"/>
        <pt x="132" y="614" on="0"/>
        <pt x="342" y="875" on="0"/>
        <pt x="507" y="875" on="1"/>
        <pt x="623" y="875" on="0"/>
        <pt x="728" y="775" on="0"/>
        <pt x="728" y="632" on="0"/>
        <pt x="663" y="612" on="1"/>
        <pt x="627" y="718" on="0"/>
        <pt x="535" y="813" on="0"/>
        <pt x="364" y="813" on="0"/>
        <pt x="232" y="626" on="0"/>
        <pt x="232" y="453" on="1"/>
        <pt x="232" y="45" on="0"/>
        <pt x="517" y="45" on="1"/>
        <pt x="585" y="45" on="0"/>
        <pt x="711" y="104" on="0"/>
        <pt x="752" y="144" on="1"/>
        <pt x="770" y="111" on="1"/>
        <pt x="733" y="53" on="0"/>
        <pt x="564" y="-29" on="0"/>
        <pt x="469" y="-29" on="1"/>
      </contour>
      <contour>
        <pt x="528" y="983" on="0"/>
        <pt x="402" y="983" on="0"/>
        <pt x="402" y="1183" on="0"/>
        <pt x="528" y="1183" on="0"/>
      </contour>
    </TTGlyph>
    <TTGlyph name="cedilla" xMin="91" yMin="-390" xMax="301" yMax="3">
      <contour>
        <pt x="91" y="-347" on="1"/>
        <pt x="134" y="-332" on="0"/>
        <pt x="209" y="-269" on="0"/>
        <pt x="209" y="-224" on="0"/>
        <pt x="190" y="-183" on="0"/>
        <pt x="172" y="-162" on="0"/>
        <pt x="129" y="-124" on="0"/>
        <pt x="123" y="-118" on="1"/>
        <pt x="208" y="3" on="1"/>
        <pt x="267" y="3" on="1"/>
        <pt x="212" y="-76" on="1"/>
        <pt x="301" y="-155" on="0"/>
        <pt x="301" y="-283" on="0"/>
        <pt x="198" y="-361" on="0"/>
        <pt x="102" y="-390" on="1"/>
      </contour>
    </TTGlyph>
    <TTGlyph name="cent" xMin="132" yMin="-267" xMax="770" yMax="1133">
      <contour>
        <pt x="404" y="1115" on="1"/>
        <pt x="510" y="1133" on="1"/>
        <pt x="489" y="899" on="1"/>
        <pt x="507" y="899" on="1"/>
        <pt x="623" y="899" on="0"/>
        <pt x="728" y="800" on="0"/>
        <pt x="728" y="658" on="0"/>
        <pt x="663" y="638" on="1"/>
        <pt x="627" y="744" on="0"/>
        <pt x="535" y="840" on="0"/>
        <pt x="365" y="840" on="0"/>
        <pt x="232" y="639" on="0"/>
        <pt x="232" y="252" on="0"/>
        <pt x="388" y="47" on="0"/>
        <pt x="517" y="47" on="1"/>
        <pt x="586" y="47" on="0"/>
        <pt x="711" y="104" on="0"/>
        <pt x="752" y="144" on="1"/>
        <pt x="770" y="111" on="1"/>
        <pt x="735" y="57" on="0"/>
        <pt x="581" y="-23" on="0"/>
        <pt x="493" y="-28" on="1"/>
        <pt x="522" y="-250" on="1"/>
        <pt x="414" y="-267" on="1"/>
        <pt x="438" y="-28" on="1"/>
        <pt x="292" y="-15" on="0"/>
        <pt x="132" y="229" on="0"/>
        <pt x="132" y="602" on="0"/>
        <pt x="297" y="861" on="0"/>
        <pt x="432" y="891" on="1"/>
      </contour>
    </TTGlyph>
    <TTGlyph name="circumflex" xMin="121" yMin="1358" xMax="521" yMax="1582">
      <contour>
        <pt x="121" y="1388" on="1"/>
        <pt x="288" y="1569" on="1"/>
        <pt x="342" y="1582" on="1"/>
        <pt x="521" y="1396" on="1"/>
        <pt x="489" y="1359" on="1"/>
        <pt x="308" y="1494" on="1"/>
        <pt x="299" y="1494" on="1"/>
        <pt x="142" y="1358" on="1"/>
      </contour>
    </TTGlyph>
    <TTGlyph name="colon" xMin="142" yMin="0" xMax="271" yMax="829">
      <contour>
        <pt x="271" y="0" on="0"/>
        <pt x="145" y="0" on="0"/>
        <pt x="145" y="200" on="0"/>
        <pt x="271" y="200" on="0"/>
      </contour>
      <contour>
        <pt x="267" y="829" on="0"/>
        <pt x="267" y="631" on="0"/>
        <pt x="142" y="631" on="0"/>
        <pt x="142" y="829" on="0"/>
      </contour>
    </TTGlyph>
</ttFont>
